%TF.GenerationSoftware,KiCad,Pcbnew,6.0.1*%
%TF.CreationDate,2022-02-02T08:09:41-07:00*%
%TF.ProjectId,aerogel_shield,6165726f-6765-46c5-9f73-6869656c642e,rev?*%
%TF.SameCoordinates,Original*%
%TF.FileFunction,Copper,L1,Top*%
%TF.FilePolarity,Positive*%
%FSLAX46Y46*%
G04 Gerber Fmt 4.6, Leading zero omitted, Abs format (unit mm)*
G04 Created by KiCad (PCBNEW 6.0.1) date 2022-02-02 08:09:41*
%MOMM*%
%LPD*%
G01*
G04 APERTURE LIST*
%TA.AperFunction,ComponentPad*%
%ADD10O,1.727200X2.032000*%
%TD*%
%TA.AperFunction,ComponentPad*%
%ADD11R,1.700000X1.700000*%
%TD*%
%TA.AperFunction,ComponentPad*%
%ADD12O,1.700000X1.700000*%
%TD*%
%TA.AperFunction,ComponentPad*%
%ADD13C,1.600000*%
%TD*%
%TA.AperFunction,ComponentPad*%
%ADD14O,1.600000X1.600000*%
%TD*%
%TA.AperFunction,Conductor*%
%ADD15C,0.250000*%
%TD*%
G04 APERTURE END LIST*
D10*
%TO.P,P1,1,Pin_1*%
%TO.N,unconnected-(P1-Pad1)*%
X138938000Y-123825000D03*
%TO.P,P1,2,Pin_2*%
%TO.N,/IOREF*%
X141478000Y-123825000D03*
%TO.P,P1,3,Pin_3*%
%TO.N,/Reset*%
X144018000Y-123825000D03*
%TO.P,P1,4,Pin_4*%
%TO.N,+3V3*%
X146558000Y-123825000D03*
%TO.P,P1,5,Pin_5*%
%TO.N,+5V*%
X149098000Y-123825000D03*
%TO.P,P1,6,Pin_6*%
%TO.N,GND*%
X151638000Y-123825000D03*
%TO.P,P1,7,Pin_7*%
X154178000Y-123825000D03*
%TO.P,P1,8,Pin_8*%
%TO.N,/Vin*%
X156718000Y-123825000D03*
%TD*%
%TO.P,P2,1,Pin_1*%
%TO.N,/A0*%
X161798000Y-123825000D03*
%TO.P,P2,2,Pin_2*%
%TO.N,/A1*%
X164338000Y-123825000D03*
%TO.P,P2,3,Pin_3*%
%TO.N,/A2*%
X166878000Y-123825000D03*
%TO.P,P2,4,Pin_4*%
%TO.N,/A3*%
X169418000Y-123825000D03*
%TO.P,P2,5,Pin_5*%
%TO.N,/A4(SDA)*%
X171958000Y-123825000D03*
%TO.P,P2,6,Pin_6*%
%TO.N,/A5(SCL)*%
X174498000Y-123825000D03*
%TD*%
%TO.P,P3,1,Pin_1*%
%TO.N,/A5(SCL)*%
X129794000Y-75565000D03*
%TO.P,P3,2,Pin_2*%
%TO.N,/A4(SDA)*%
X132334000Y-75565000D03*
%TO.P,P3,3,Pin_3*%
%TO.N,/AREF*%
X134874000Y-75565000D03*
%TO.P,P3,4,Pin_4*%
%TO.N,GND*%
X137414000Y-75565000D03*
%TO.P,P3,5,Pin_5*%
%TO.N,/13(SCK)*%
X139954000Y-75565000D03*
%TO.P,P3,6,Pin_6*%
%TO.N,/12(MISO)*%
X142494000Y-75565000D03*
%TO.P,P3,7,Pin_7*%
%TO.N,/11(\u002A\u002A{slash}MOSI)*%
X145034000Y-75565000D03*
%TO.P,P3,8,Pin_8*%
%TO.N,/10(\u002A\u002A{slash}SS)*%
X147574000Y-75565000D03*
%TO.P,P3,9,Pin_9*%
%TO.N,/9(\u002A\u002A)*%
X150114000Y-75565000D03*
%TO.P,P3,10,Pin_10*%
%TO.N,/8*%
X152654000Y-75565000D03*
%TD*%
%TO.P,P4,1,Pin_1*%
%TO.N,/7*%
X156718000Y-75565000D03*
%TO.P,P4,2,Pin_2*%
%TO.N,/6(\u002A\u002A)*%
X159258000Y-75565000D03*
%TO.P,P4,3,Pin_3*%
%TO.N,/5(\u002A\u002A)*%
X161798000Y-75565000D03*
%TO.P,P4,4,Pin_4*%
%TO.N,/4*%
X164338000Y-75565000D03*
%TO.P,P4,5,Pin_5*%
%TO.N,/3(\u002A\u002A)*%
X166878000Y-75565000D03*
%TO.P,P4,6,Pin_6*%
%TO.N,/2*%
X169418000Y-75565000D03*
%TO.P,P4,7,Pin_7*%
%TO.N,/1(Tx)*%
X171958000Y-75565000D03*
%TO.P,P4,8,Pin_8*%
%TO.N,/0(Rx)*%
X174498000Y-75565000D03*
%TD*%
D11*
%TO.P,J8,1,Pin_1*%
%TO.N,+5V*%
X125730000Y-93091000D03*
D12*
%TO.P,J8,2,Pin_2*%
%TO.N,unconnected-(J8-Pad2)*%
X128270000Y-93091000D03*
%TO.P,J8,3,Pin_3*%
%TO.N,GND*%
X130810000Y-93091000D03*
%TO.P,J8,4,Pin_4*%
%TO.N,/13(SCK)*%
X133350000Y-93091000D03*
%TO.P,J8,5,Pin_5*%
%TO.N,/12(MISO)*%
X135890000Y-93091000D03*
%TO.P,J8,6,Pin_6*%
%TO.N,/11(\u002A\u002A{slash}MOSI)*%
X138430000Y-93091000D03*
%TO.P,J8,7,Pin_7*%
%TO.N,/8*%
X140970000Y-93091000D03*
%TO.P,J8,8,Pin_8*%
%TO.N,unconnected-(J8-Pad8)*%
X143510000Y-93091000D03*
%TO.P,J8,9,Pin_9*%
%TO.N,unconnected-(J8-Pad9)*%
X146050000Y-93091000D03*
%TD*%
D11*
%TO.P,J12,1,Pin_1*%
%TO.N,+5V*%
X114808000Y-76835000D03*
D12*
%TO.P,J12,2,Pin_2*%
%TO.N,/5(\u002A\u002A)*%
X114808000Y-79375000D03*
%TO.P,J12,3,Pin_3*%
%TO.N,GND*%
X114808000Y-81915000D03*
%TD*%
D11*
%TO.P,J2,1,Pin_1*%
%TO.N,Net-(J2-Pad1)*%
X173482000Y-86746000D03*
D12*
%TO.P,J2,2,Pin_2*%
%TO.N,/A0*%
X173482000Y-89286000D03*
%TD*%
D11*
%TO.P,J7,1,Pin_1*%
%TO.N,+5V*%
X125730000Y-88011000D03*
D12*
%TO.P,J7,2,Pin_2*%
%TO.N,unconnected-(J7-Pad2)*%
X128270000Y-88011000D03*
%TO.P,J7,3,Pin_3*%
%TO.N,GND*%
X130810000Y-88011000D03*
%TO.P,J7,4,Pin_4*%
%TO.N,/13(SCK)*%
X133350000Y-88011000D03*
%TO.P,J7,5,Pin_5*%
%TO.N,/12(MISO)*%
X135890000Y-88011000D03*
%TO.P,J7,6,Pin_6*%
%TO.N,/11(\u002A\u002A{slash}MOSI)*%
X138430000Y-88011000D03*
%TO.P,J7,7,Pin_7*%
%TO.N,/9(\u002A\u002A)*%
X140970000Y-88011000D03*
%TO.P,J7,8,Pin_8*%
%TO.N,unconnected-(J7-Pad8)*%
X143510000Y-88011000D03*
%TO.P,J7,9,Pin_9*%
%TO.N,unconnected-(J7-Pad9)*%
X146050000Y-88011000D03*
%TD*%
D11*
%TO.P,J3,1,Pin_1*%
%TO.N,Net-(J2-Pad1)*%
X173482000Y-93858000D03*
D12*
%TO.P,J3,2,Pin_2*%
%TO.N,/A1*%
X173482000Y-96398000D03*
%TD*%
D11*
%TO.P,J10,1,Pin_1*%
%TO.N,+5V*%
X125730000Y-98171000D03*
D12*
%TO.P,J10,2,Pin_2*%
%TO.N,unconnected-(J10-Pad2)*%
X128270000Y-98171000D03*
%TO.P,J10,3,Pin_3*%
%TO.N,GND*%
X130810000Y-98171000D03*
%TO.P,J10,4,Pin_4*%
%TO.N,/13(SCK)*%
X133350000Y-98171000D03*
%TO.P,J10,5,Pin_5*%
%TO.N,/12(MISO)*%
X135890000Y-98171000D03*
%TO.P,J10,6,Pin_6*%
%TO.N,/11(\u002A\u002A{slash}MOSI)*%
X138430000Y-98171000D03*
%TO.P,J10,7,Pin_7*%
%TO.N,/7*%
X140970000Y-98171000D03*
%TO.P,J10,8,Pin_8*%
%TO.N,unconnected-(J10-Pad8)*%
X143510000Y-98171000D03*
%TO.P,J10,9,Pin_9*%
%TO.N,unconnected-(J10-Pad9)*%
X146050000Y-98171000D03*
%TD*%
D11*
%TO.P,J6,1,Pin_1*%
%TO.N,Net-(J2-Pad1)*%
X173482000Y-108077000D03*
D12*
%TO.P,J6,2,Pin_2*%
%TO.N,/A3*%
X173482000Y-110617000D03*
%TD*%
D11*
%TO.P,J14,1,Pin_1*%
%TO.N,+5V*%
X114808000Y-99695000D03*
D12*
%TO.P,J14,2,Pin_2*%
%TO.N,/3(\u002A\u002A)*%
X114808000Y-102235000D03*
%TO.P,J14,3,Pin_3*%
%TO.N,GND*%
X114808000Y-104775000D03*
%TD*%
D11*
%TO.P,J9,1,Pin_1*%
%TO.N,Net-(J2-Pad1)*%
X173482000Y-115189000D03*
D12*
%TO.P,J9,2,Pin_2*%
%TO.N,/A4(SDA)*%
X173482000Y-117729000D03*
%TD*%
D13*
%TO.P,R5,1*%
%TO.N,GND*%
X160020000Y-117729000D03*
D14*
%TO.P,R5,2*%
%TO.N,/A4(SDA)*%
X170180000Y-117729000D03*
%TD*%
D11*
%TO.P,J13,1,Pin_1*%
%TO.N,+5V*%
X114808000Y-88280000D03*
D12*
%TO.P,J13,2,Pin_2*%
%TO.N,/4*%
X114808000Y-90820000D03*
%TO.P,J13,3,Pin_3*%
%TO.N,GND*%
X114808000Y-93360000D03*
%TD*%
D11*
%TO.P,J5,1,Pin_1*%
%TO.N,Net-(J2-Pad1)*%
X173482000Y-100965000D03*
D12*
%TO.P,J5,2,Pin_2*%
%TO.N,/A2*%
X173482000Y-103505000D03*
%TD*%
D13*
%TO.P,R4,1*%
%TO.N,GND*%
X160020000Y-110617000D03*
D14*
%TO.P,R4,2*%
%TO.N,/A3*%
X170180000Y-110617000D03*
%TD*%
D13*
%TO.P,R3,1*%
%TO.N,GND*%
X160020000Y-103505000D03*
D14*
%TO.P,R3,2*%
%TO.N,/A2*%
X170180000Y-103505000D03*
%TD*%
D13*
%TO.P,R2,1*%
%TO.N,GND*%
X160020000Y-96403000D03*
D14*
%TO.P,R2,2*%
%TO.N,/A1*%
X170180000Y-96403000D03*
%TD*%
D11*
%TO.P,J4,1,Pin_1*%
%TO.N,+5V*%
X125730000Y-82677000D03*
D12*
%TO.P,J4,2,Pin_2*%
%TO.N,unconnected-(J4-Pad2)*%
X128270000Y-82677000D03*
%TO.P,J4,3,Pin_3*%
%TO.N,GND*%
X130810000Y-82677000D03*
%TO.P,J4,4,Pin_4*%
%TO.N,/13(SCK)*%
X133350000Y-82677000D03*
%TO.P,J4,5,Pin_5*%
%TO.N,/12(MISO)*%
X135890000Y-82677000D03*
%TO.P,J4,6,Pin_6*%
%TO.N,/11(\u002A\u002A{slash}MOSI)*%
X138430000Y-82677000D03*
%TO.P,J4,7,Pin_7*%
%TO.N,/10(\u002A\u002A{slash}SS)*%
X140970000Y-82677000D03*
%TO.P,J4,8,Pin_8*%
%TO.N,unconnected-(J4-Pad8)*%
X143510000Y-82677000D03*
%TO.P,J4,9,Pin_9*%
%TO.N,unconnected-(J4-Pad9)*%
X146050000Y-82677000D03*
%TD*%
D13*
%TO.P,R1,1*%
%TO.N,GND*%
X160020000Y-89286000D03*
D14*
%TO.P,R1,2*%
%TO.N,/A0*%
X170180000Y-89286000D03*
%TD*%
D11*
%TO.P,J11,1,Pin_1*%
%TO.N,+5V*%
X125730000Y-103251000D03*
D12*
%TO.P,J11,2,Pin_2*%
%TO.N,unconnected-(J11-Pad2)*%
X128270000Y-103251000D03*
%TO.P,J11,3,Pin_3*%
%TO.N,GND*%
X130810000Y-103251000D03*
%TO.P,J11,4,Pin_4*%
%TO.N,/13(SCK)*%
X133350000Y-103251000D03*
%TO.P,J11,5,Pin_5*%
%TO.N,/12(MISO)*%
X135890000Y-103251000D03*
%TO.P,J11,6,Pin_6*%
%TO.N,/11(\u002A\u002A{slash}MOSI)*%
X138430000Y-103251000D03*
%TO.P,J11,7,Pin_7*%
%TO.N,/6(\u002A\u002A)*%
X140970000Y-103251000D03*
%TO.P,J11,8,Pin_8*%
%TO.N,unconnected-(J11-Pad8)*%
X143510000Y-103251000D03*
%TO.P,J11,9,Pin_9*%
%TO.N,unconnected-(J11-Pad9)*%
X146050000Y-103251000D03*
%TD*%
D11*
%TO.P,J1,1,Pin_1*%
%TO.N,Net-(J2-Pad1)*%
X173482000Y-79639000D03*
D12*
%TO.P,J1,2,Pin_2*%
%TO.N,GND*%
X173482000Y-82179000D03*
%TD*%
D15*
%TO.N,+5V*%
X114793000Y-88280000D02*
X112014000Y-91059000D01*
X112014000Y-117475000D02*
X115824000Y-121285000D01*
X114808000Y-99695000D02*
X112014000Y-102489000D01*
X149098000Y-122047000D02*
X149098000Y-123825000D01*
X114808000Y-76835000D02*
X112014000Y-79629000D01*
X125730000Y-78613000D02*
X125730000Y-82677000D01*
X123952000Y-76835000D02*
X125730000Y-78613000D01*
X114808000Y-76835000D02*
X123952000Y-76835000D01*
X148336000Y-121285000D02*
X149098000Y-122047000D01*
X114808000Y-88280000D02*
X114793000Y-88280000D01*
X125730000Y-93091000D02*
X125730000Y-88011000D01*
X115824000Y-121285000D02*
X148336000Y-121285000D01*
X125730000Y-88011000D02*
X125730000Y-82677000D01*
X112014000Y-91059000D02*
X112014000Y-102489000D01*
X125730000Y-98171000D02*
X125730000Y-93091000D01*
X112014000Y-79629000D02*
X112014000Y-91059000D01*
X112014000Y-102489000D02*
X112014000Y-117475000D01*
X125730000Y-103251000D02*
X125730000Y-98171000D01*
%TO.N,/A0*%
X161798000Y-122047000D02*
X161798000Y-123825000D01*
X170180000Y-91821000D02*
X164084000Y-97917000D01*
X170180000Y-89286000D02*
X170180000Y-91821000D01*
X173482000Y-89286000D02*
X170180000Y-89286000D01*
X164084000Y-97917000D02*
X164084000Y-119761000D01*
X164084000Y-119761000D02*
X161798000Y-122047000D01*
%TO.N,/A1*%
X170180000Y-98933000D02*
X165608000Y-103505000D01*
X165608000Y-120777000D02*
X164338000Y-122047000D01*
X165608000Y-103505000D02*
X165608000Y-120777000D01*
X170180000Y-96403000D02*
X170180000Y-98933000D01*
X164338000Y-122047000D02*
X164338000Y-123825000D01*
X170185000Y-96398000D02*
X170180000Y-96403000D01*
X173482000Y-96398000D02*
X170185000Y-96398000D01*
%TO.N,/A2*%
X167132000Y-121793000D02*
X166878000Y-122047000D01*
X170180000Y-106045000D02*
X167132000Y-109093000D01*
X170180000Y-103505000D02*
X170180000Y-106045000D01*
X173482000Y-103505000D02*
X170180000Y-103505000D01*
X166878000Y-122047000D02*
X166878000Y-123825000D01*
X167132000Y-109093000D02*
X167132000Y-121793000D01*
%TO.N,/A3*%
X168656000Y-121285000D02*
X168656000Y-114649250D01*
X168656000Y-114649250D02*
X170180000Y-113125250D01*
X169418000Y-122047000D02*
X168656000Y-121285000D01*
X170180000Y-113125250D02*
X170180000Y-110617000D01*
X173482000Y-110617000D02*
X170180000Y-110617000D01*
X169418000Y-123825000D02*
X169418000Y-122047000D01*
%TO.N,/A4(SDA)*%
X170180000Y-120269000D02*
X170180000Y-117729000D01*
X171958000Y-122047000D02*
X170180000Y-120269000D01*
X171958000Y-123825000D02*
X171958000Y-122047000D01*
X173482000Y-117729000D02*
X170180000Y-117729000D01*
%TO.N,/9(\u002A\u002A)*%
X149098000Y-83693000D02*
X149098000Y-80137000D01*
X147320000Y-85471000D02*
X149098000Y-83693000D01*
X140970000Y-86233000D02*
X141732000Y-85471000D01*
X149098000Y-80137000D02*
X150114000Y-79121000D01*
X141732000Y-85471000D02*
X147320000Y-85471000D01*
X140970000Y-88011000D02*
X140970000Y-86233000D01*
X150114000Y-79121000D02*
X150114000Y-75565000D01*
%TO.N,/8*%
X152654000Y-77597000D02*
X152654000Y-75565000D01*
X141732000Y-90551000D02*
X147574000Y-90551000D01*
X149860000Y-80391000D02*
X152654000Y-77597000D01*
X140970000Y-93091000D02*
X140970000Y-91313000D01*
X140970000Y-91313000D02*
X141732000Y-90551000D01*
X147574000Y-90551000D02*
X149860000Y-88265000D01*
X149860000Y-88265000D02*
X149860000Y-80391000D01*
%TO.N,/7*%
X141732000Y-95631000D02*
X147828000Y-95631000D01*
X150622000Y-92837000D02*
X150622000Y-80645000D01*
X153416000Y-77851000D02*
X156210000Y-77851000D01*
X150622000Y-80645000D02*
X153416000Y-77851000D01*
X140970000Y-98171000D02*
X140970000Y-96393000D01*
X156210000Y-77851000D02*
X156718000Y-77343000D01*
X156718000Y-77343000D02*
X156718000Y-75565000D01*
X140970000Y-96393000D02*
X141732000Y-95631000D01*
X147828000Y-95631000D02*
X150622000Y-92837000D01*
%TO.N,/6(\u002A\u002A)*%
X157988000Y-78613000D02*
X159258000Y-77343000D01*
X140970000Y-103251000D02*
X140970000Y-101473000D01*
X140970000Y-101473000D02*
X141732000Y-100711000D01*
X159258000Y-77343000D02*
X159258000Y-75565000D01*
X141732000Y-100711000D02*
X147828000Y-100711000D01*
X147828000Y-100711000D02*
X151384000Y-97155000D01*
X151384000Y-80899000D02*
X153670000Y-78613000D01*
X153670000Y-78613000D02*
X157988000Y-78613000D01*
X151384000Y-97155000D02*
X151384000Y-80899000D01*
%TO.N,/5(\u002A\u002A)*%
X122682000Y-105029000D02*
X122682000Y-81661000D01*
X123444000Y-105791000D02*
X122682000Y-105029000D01*
X152146000Y-81153000D02*
X152146000Y-102997000D01*
X120396000Y-79375000D02*
X114808000Y-79375000D01*
X153924000Y-79375000D02*
X152146000Y-81153000D01*
X161798000Y-77343000D02*
X159766000Y-79375000D01*
X149352000Y-105791000D02*
X123444000Y-105791000D01*
X152146000Y-102997000D02*
X149352000Y-105791000D01*
X122682000Y-81661000D02*
X120396000Y-79375000D01*
X159766000Y-79375000D02*
X153924000Y-79375000D01*
X161798000Y-75565000D02*
X161798000Y-77343000D01*
%TO.N,/4*%
X121920000Y-93091000D02*
X119649000Y-90820000D01*
X121920000Y-105283000D02*
X121920000Y-93091000D01*
X149606000Y-106553000D02*
X123190000Y-106553000D01*
X154178000Y-80137000D02*
X152908000Y-81407000D01*
X123190000Y-106553000D02*
X121920000Y-105283000D01*
X164338000Y-77343000D02*
X161544000Y-80137000D01*
X161544000Y-80137000D02*
X154178000Y-80137000D01*
X152908000Y-103251000D02*
X149606000Y-106553000D01*
X152908000Y-81407000D02*
X152908000Y-103251000D01*
X119649000Y-90820000D02*
X114808000Y-90820000D01*
X164338000Y-75565000D02*
X164338000Y-77343000D01*
%TO.N,/3(\u002A\u002A)*%
X166878000Y-77343000D02*
X163322000Y-80899000D01*
X163322000Y-80899000D02*
X154432000Y-80899000D01*
X149860000Y-107315000D02*
X122936000Y-107315000D01*
X153670000Y-81661000D02*
X153670000Y-103505000D01*
X121158000Y-105537000D02*
X121158000Y-104648000D01*
X166878000Y-75565000D02*
X166878000Y-77343000D01*
X121158000Y-104648000D02*
X118745000Y-102235000D01*
X154432000Y-80899000D02*
X153670000Y-81661000D01*
X118745000Y-102235000D02*
X114808000Y-102235000D01*
X153670000Y-103505000D02*
X149860000Y-107315000D01*
X122936000Y-107315000D02*
X121158000Y-105537000D01*
%TO.N,/13(SCK)*%
X133350000Y-80899000D02*
X133350000Y-82677000D01*
X136144000Y-78105000D02*
X133350000Y-80899000D01*
X139192000Y-78105000D02*
X136144000Y-78105000D01*
X133350000Y-98171000D02*
X133350000Y-103251000D01*
X133350000Y-82677000D02*
X133350000Y-88011000D01*
X133350000Y-88011000D02*
X133350000Y-93091000D01*
X139954000Y-75565000D02*
X139954000Y-77343000D01*
X133350000Y-93091000D02*
X133350000Y-98171000D01*
X139954000Y-77343000D02*
X139192000Y-78105000D01*
%TO.N,/11(\u002A\u002A{slash}MOSI)*%
X142748000Y-79629000D02*
X139700000Y-79629000D01*
X145034000Y-75565000D02*
X145034000Y-77343000D01*
X138430000Y-80899000D02*
X138430000Y-82677000D01*
X138430000Y-98171000D02*
X138430000Y-103251000D01*
X145034000Y-77343000D02*
X142748000Y-79629000D01*
X138430000Y-93091000D02*
X138430000Y-98171000D01*
X139700000Y-79629000D02*
X138430000Y-80899000D01*
X138430000Y-82677000D02*
X138430000Y-88011000D01*
X138430000Y-88011000D02*
X138430000Y-93091000D01*
%TO.N,/10(\u002A\u002A{slash}SS)*%
X140970000Y-82677000D02*
X140970000Y-80899000D01*
X141478000Y-80391000D02*
X144526000Y-80391000D01*
X147574000Y-77343000D02*
X147574000Y-75565000D01*
X140970000Y-80899000D02*
X141478000Y-80391000D01*
X144526000Y-80391000D02*
X147574000Y-77343000D01*
%TO.N,/12(MISO)*%
X142494000Y-77343000D02*
X140970000Y-78867000D01*
X135890000Y-98171000D02*
X135890000Y-93091000D01*
X140970000Y-78867000D02*
X137922000Y-78867000D01*
X137922000Y-78867000D02*
X135890000Y-80899000D01*
X135890000Y-93091000D02*
X135890000Y-88011000D01*
X135890000Y-103251000D02*
X135890000Y-98171000D01*
X135890000Y-80899000D02*
X135890000Y-82677000D01*
X142494000Y-75565000D02*
X142494000Y-77343000D01*
X135890000Y-88011000D02*
X135890000Y-82677000D01*
%TO.N,Net-(J2-Pad1)*%
X175768000Y-80137000D02*
X175768000Y-86741000D01*
X175768000Y-86741000D02*
X178308000Y-89281000D01*
X178308000Y-112141000D02*
X175260000Y-115189000D01*
X175260000Y-100965000D02*
X178308000Y-97917000D01*
X178308000Y-90805000D02*
X178308000Y-97917000D01*
X175260000Y-108077000D02*
X178308000Y-105029000D01*
X178308000Y-89281000D02*
X178308000Y-90805000D01*
X175763000Y-86746000D02*
X175768000Y-86741000D01*
X178308000Y-97917000D02*
X178308000Y-105029000D01*
X173482000Y-86746000D02*
X173482000Y-86751000D01*
X173482000Y-100965000D02*
X175260000Y-100965000D01*
X173482000Y-79639000D02*
X175250000Y-79639000D01*
X173482000Y-86746000D02*
X175763000Y-86746000D01*
X178308000Y-105029000D02*
X178308000Y-112141000D01*
X175260000Y-115189000D02*
X173482000Y-115189000D01*
X175260000Y-79629000D02*
X175768000Y-80137000D01*
X175255000Y-93858000D02*
X178308000Y-90805000D01*
X173482000Y-93858000D02*
X175255000Y-93858000D01*
X175250000Y-79639000D02*
X175260000Y-79629000D01*
X173482000Y-108077000D02*
X175260000Y-108077000D01*
%TD*%
M02*
