%TF.GenerationSoftware,KiCad,Pcbnew,6.0.1*%
%TF.CreationDate,2022-02-02T08:09:41-07:00*%
%TF.ProjectId,aerogel_shield,6165726f-6765-46c5-9f73-6869656c642e,rev?*%
%TF.SameCoordinates,Original*%
%TF.FileFunction,Legend,Top*%
%TF.FilePolarity,Positive*%
%FSLAX46Y46*%
G04 Gerber Fmt 4.6, Leading zero omitted, Abs format (unit mm)*
G04 Created by KiCad (PCBNEW 6.0.1) date 2022-02-02 08:09:41*
%MOMM*%
%LPD*%
G01*
G04 APERTURE LIST*
%ADD10C,0.150000*%
%ADD11C,0.120000*%
%ADD12O,1.727200X2.032000*%
G04 APERTURE END LIST*
D10*
X139390380Y-120999285D02*
X139390380Y-121570714D01*
X139390380Y-121285000D02*
X138390380Y-121285000D01*
X138533238Y-121380238D01*
X138628476Y-121475476D01*
X138676095Y-121570714D01*
%TO.C,P1*%
X147089904Y-121737380D02*
X147089904Y-120737380D01*
X147470857Y-120737380D01*
X147566095Y-120785000D01*
X147613714Y-120832619D01*
X147661333Y-120927857D01*
X147661333Y-121070714D01*
X147613714Y-121165952D01*
X147566095Y-121213571D01*
X147470857Y-121261190D01*
X147089904Y-121261190D01*
X148613714Y-121737380D02*
X148042285Y-121737380D01*
X148328000Y-121737380D02*
X148328000Y-120737380D01*
X148232761Y-120880238D01*
X148137523Y-120975476D01*
X148042285Y-121023095D01*
%TO.C,P2*%
X167663904Y-121737380D02*
X167663904Y-120737380D01*
X168044857Y-120737380D01*
X168140095Y-120785000D01*
X168187714Y-120832619D01*
X168235333Y-120927857D01*
X168235333Y-121070714D01*
X168187714Y-121165952D01*
X168140095Y-121213571D01*
X168044857Y-121261190D01*
X167663904Y-121261190D01*
X168616285Y-120832619D02*
X168663904Y-120785000D01*
X168759142Y-120737380D01*
X168997238Y-120737380D01*
X169092476Y-120785000D01*
X169140095Y-120832619D01*
X169187714Y-120927857D01*
X169187714Y-121023095D01*
X169140095Y-121165952D01*
X168568666Y-121737380D01*
X169187714Y-121737380D01*
%TO.C,P3*%
X140485904Y-78811380D02*
X140485904Y-77811380D01*
X140866857Y-77811380D01*
X140962095Y-77859000D01*
X141009714Y-77906619D01*
X141057333Y-78001857D01*
X141057333Y-78144714D01*
X141009714Y-78239952D01*
X140962095Y-78287571D01*
X140866857Y-78335190D01*
X140485904Y-78335190D01*
X141390666Y-77811380D02*
X142009714Y-77811380D01*
X141676380Y-78192333D01*
X141819238Y-78192333D01*
X141914476Y-78239952D01*
X141962095Y-78287571D01*
X142009714Y-78382809D01*
X142009714Y-78620904D01*
X141962095Y-78716142D01*
X141914476Y-78763761D01*
X141819238Y-78811380D01*
X141533523Y-78811380D01*
X141438285Y-78763761D01*
X141390666Y-78716142D01*
%TO.C,P4*%
X164869904Y-78811380D02*
X164869904Y-77811380D01*
X165250857Y-77811380D01*
X165346095Y-77859000D01*
X165393714Y-77906619D01*
X165441333Y-78001857D01*
X165441333Y-78144714D01*
X165393714Y-78239952D01*
X165346095Y-78287571D01*
X165250857Y-78335190D01*
X164869904Y-78335190D01*
X166298476Y-78144714D02*
X166298476Y-78811380D01*
X166060380Y-77763761D02*
X165822285Y-78478047D01*
X166441333Y-78478047D01*
%TO.C,J8*%
X122852380Y-93424333D02*
X123566666Y-93424333D01*
X123709523Y-93471952D01*
X123804761Y-93567190D01*
X123852380Y-93710047D01*
X123852380Y-93805285D01*
X123280952Y-92805285D02*
X123233333Y-92900523D01*
X123185714Y-92948142D01*
X123090476Y-92995761D01*
X123042857Y-92995761D01*
X122947619Y-92948142D01*
X122900000Y-92900523D01*
X122852380Y-92805285D01*
X122852380Y-92614809D01*
X122900000Y-92519571D01*
X122947619Y-92471952D01*
X123042857Y-92424333D01*
X123090476Y-92424333D01*
X123185714Y-92471952D01*
X123233333Y-92519571D01*
X123280952Y-92614809D01*
X123280952Y-92805285D01*
X123328571Y-92900523D01*
X123376190Y-92948142D01*
X123471428Y-92995761D01*
X123661904Y-92995761D01*
X123757142Y-92948142D01*
X123804761Y-92900523D01*
X123852380Y-92805285D01*
X123852380Y-92614809D01*
X123804761Y-92519571D01*
X123757142Y-92471952D01*
X123661904Y-92424333D01*
X123471428Y-92424333D01*
X123376190Y-92471952D01*
X123328571Y-92519571D01*
X123280952Y-92614809D01*
%TO.C,J12*%
X113998476Y-73957380D02*
X113998476Y-74671666D01*
X113950857Y-74814523D01*
X113855619Y-74909761D01*
X113712761Y-74957380D01*
X113617523Y-74957380D01*
X114998476Y-74957380D02*
X114427047Y-74957380D01*
X114712761Y-74957380D02*
X114712761Y-73957380D01*
X114617523Y-74100238D01*
X114522285Y-74195476D01*
X114427047Y-74243095D01*
X115379428Y-74052619D02*
X115427047Y-74005000D01*
X115522285Y-73957380D01*
X115760380Y-73957380D01*
X115855619Y-74005000D01*
X115903238Y-74052619D01*
X115950857Y-74147857D01*
X115950857Y-74243095D01*
X115903238Y-74385952D01*
X115331809Y-74957380D01*
X115950857Y-74957380D01*
%TO.C,J2*%
X173148666Y-83868380D02*
X173148666Y-84582666D01*
X173101047Y-84725523D01*
X173005809Y-84820761D01*
X172862952Y-84868380D01*
X172767714Y-84868380D01*
X173577238Y-83963619D02*
X173624857Y-83916000D01*
X173720095Y-83868380D01*
X173958190Y-83868380D01*
X174053428Y-83916000D01*
X174101047Y-83963619D01*
X174148666Y-84058857D01*
X174148666Y-84154095D01*
X174101047Y-84296952D01*
X173529619Y-84868380D01*
X174148666Y-84868380D01*
%TO.C,J7*%
X122852380Y-88344333D02*
X123566666Y-88344333D01*
X123709523Y-88391952D01*
X123804761Y-88487190D01*
X123852380Y-88630047D01*
X123852380Y-88725285D01*
X122852380Y-87963380D02*
X122852380Y-87296714D01*
X123852380Y-87725285D01*
%TO.C,J3*%
X173148666Y-90980380D02*
X173148666Y-91694666D01*
X173101047Y-91837523D01*
X173005809Y-91932761D01*
X172862952Y-91980380D01*
X172767714Y-91980380D01*
X173529619Y-90980380D02*
X174148666Y-90980380D01*
X173815333Y-91361333D01*
X173958190Y-91361333D01*
X174053428Y-91408952D01*
X174101047Y-91456571D01*
X174148666Y-91551809D01*
X174148666Y-91789904D01*
X174101047Y-91885142D01*
X174053428Y-91932761D01*
X173958190Y-91980380D01*
X173672476Y-91980380D01*
X173577238Y-91932761D01*
X173529619Y-91885142D01*
%TO.C,J10*%
X122852380Y-98980523D02*
X123566666Y-98980523D01*
X123709523Y-99028142D01*
X123804761Y-99123380D01*
X123852380Y-99266238D01*
X123852380Y-99361476D01*
X123852380Y-97980523D02*
X123852380Y-98551952D01*
X123852380Y-98266238D02*
X122852380Y-98266238D01*
X122995238Y-98361476D01*
X123090476Y-98456714D01*
X123138095Y-98551952D01*
X122852380Y-97361476D02*
X122852380Y-97266238D01*
X122900000Y-97171000D01*
X122947619Y-97123380D01*
X123042857Y-97075761D01*
X123233333Y-97028142D01*
X123471428Y-97028142D01*
X123661904Y-97075761D01*
X123757142Y-97123380D01*
X123804761Y-97171000D01*
X123852380Y-97266238D01*
X123852380Y-97361476D01*
X123804761Y-97456714D01*
X123757142Y-97504333D01*
X123661904Y-97551952D01*
X123471428Y-97599571D01*
X123233333Y-97599571D01*
X123042857Y-97551952D01*
X122947619Y-97504333D01*
X122900000Y-97456714D01*
X122852380Y-97361476D01*
%TO.C,J6*%
X173148666Y-105448380D02*
X173148666Y-106162666D01*
X173101047Y-106305523D01*
X173005809Y-106400761D01*
X172862952Y-106448380D01*
X172767714Y-106448380D01*
X174053428Y-105448380D02*
X173862952Y-105448380D01*
X173767714Y-105496000D01*
X173720095Y-105543619D01*
X173624857Y-105686476D01*
X173577238Y-105876952D01*
X173577238Y-106257904D01*
X173624857Y-106353142D01*
X173672476Y-106400761D01*
X173767714Y-106448380D01*
X173958190Y-106448380D01*
X174053428Y-106400761D01*
X174101047Y-106353142D01*
X174148666Y-106257904D01*
X174148666Y-106019809D01*
X174101047Y-105924571D01*
X174053428Y-105876952D01*
X173958190Y-105829333D01*
X173767714Y-105829333D01*
X173672476Y-105876952D01*
X173624857Y-105924571D01*
X173577238Y-106019809D01*
%TO.C,J14*%
X113998476Y-96817380D02*
X113998476Y-97531666D01*
X113950857Y-97674523D01*
X113855619Y-97769761D01*
X113712761Y-97817380D01*
X113617523Y-97817380D01*
X114998476Y-97817380D02*
X114427047Y-97817380D01*
X114712761Y-97817380D02*
X114712761Y-96817380D01*
X114617523Y-96960238D01*
X114522285Y-97055476D01*
X114427047Y-97103095D01*
X115855619Y-97150714D02*
X115855619Y-97817380D01*
X115617523Y-96769761D02*
X115379428Y-97484047D01*
X115998476Y-97484047D01*
%TO.C,J9*%
X173148666Y-112560380D02*
X173148666Y-113274666D01*
X173101047Y-113417523D01*
X173005809Y-113512761D01*
X172862952Y-113560380D01*
X172767714Y-113560380D01*
X173672476Y-113560380D02*
X173862952Y-113560380D01*
X173958190Y-113512761D01*
X174005809Y-113465142D01*
X174101047Y-113322285D01*
X174148666Y-113131809D01*
X174148666Y-112750857D01*
X174101047Y-112655619D01*
X174053428Y-112608000D01*
X173958190Y-112560380D01*
X173767714Y-112560380D01*
X173672476Y-112608000D01*
X173624857Y-112655619D01*
X173577238Y-112750857D01*
X173577238Y-112988952D01*
X173624857Y-113084190D01*
X173672476Y-113131809D01*
X173767714Y-113179428D01*
X173958190Y-113179428D01*
X174053428Y-113131809D01*
X174101047Y-113084190D01*
X174148666Y-112988952D01*
%TO.C,R5*%
X164933333Y-115811380D02*
X164600000Y-115335190D01*
X164361904Y-115811380D02*
X164361904Y-114811380D01*
X164742857Y-114811380D01*
X164838095Y-114859000D01*
X164885714Y-114906619D01*
X164933333Y-115001857D01*
X164933333Y-115144714D01*
X164885714Y-115239952D01*
X164838095Y-115287571D01*
X164742857Y-115335190D01*
X164361904Y-115335190D01*
X165838095Y-114811380D02*
X165361904Y-114811380D01*
X165314285Y-115287571D01*
X165361904Y-115239952D01*
X165457142Y-115192333D01*
X165695238Y-115192333D01*
X165790476Y-115239952D01*
X165838095Y-115287571D01*
X165885714Y-115382809D01*
X165885714Y-115620904D01*
X165838095Y-115716142D01*
X165790476Y-115763761D01*
X165695238Y-115811380D01*
X165457142Y-115811380D01*
X165361904Y-115763761D01*
X165314285Y-115716142D01*
%TO.C,J13*%
X113998476Y-85402380D02*
X113998476Y-86116666D01*
X113950857Y-86259523D01*
X113855619Y-86354761D01*
X113712761Y-86402380D01*
X113617523Y-86402380D01*
X114998476Y-86402380D02*
X114427047Y-86402380D01*
X114712761Y-86402380D02*
X114712761Y-85402380D01*
X114617523Y-85545238D01*
X114522285Y-85640476D01*
X114427047Y-85688095D01*
X115331809Y-85402380D02*
X115950857Y-85402380D01*
X115617523Y-85783333D01*
X115760380Y-85783333D01*
X115855619Y-85830952D01*
X115903238Y-85878571D01*
X115950857Y-85973809D01*
X115950857Y-86211904D01*
X115903238Y-86307142D01*
X115855619Y-86354761D01*
X115760380Y-86402380D01*
X115474666Y-86402380D01*
X115379428Y-86354761D01*
X115331809Y-86307142D01*
%TO.C,J5*%
X173148666Y-98087380D02*
X173148666Y-98801666D01*
X173101047Y-98944523D01*
X173005809Y-99039761D01*
X172862952Y-99087380D01*
X172767714Y-99087380D01*
X174101047Y-98087380D02*
X173624857Y-98087380D01*
X173577238Y-98563571D01*
X173624857Y-98515952D01*
X173720095Y-98468333D01*
X173958190Y-98468333D01*
X174053428Y-98515952D01*
X174101047Y-98563571D01*
X174148666Y-98658809D01*
X174148666Y-98896904D01*
X174101047Y-98992142D01*
X174053428Y-99039761D01*
X173958190Y-99087380D01*
X173720095Y-99087380D01*
X173624857Y-99039761D01*
X173577238Y-98992142D01*
%TO.C,R4*%
X164933333Y-108699380D02*
X164600000Y-108223190D01*
X164361904Y-108699380D02*
X164361904Y-107699380D01*
X164742857Y-107699380D01*
X164838095Y-107747000D01*
X164885714Y-107794619D01*
X164933333Y-107889857D01*
X164933333Y-108032714D01*
X164885714Y-108127952D01*
X164838095Y-108175571D01*
X164742857Y-108223190D01*
X164361904Y-108223190D01*
X165790476Y-108032714D02*
X165790476Y-108699380D01*
X165552380Y-107651761D02*
X165314285Y-108366047D01*
X165933333Y-108366047D01*
%TO.C,R3*%
X164933333Y-101587380D02*
X164600000Y-101111190D01*
X164361904Y-101587380D02*
X164361904Y-100587380D01*
X164742857Y-100587380D01*
X164838095Y-100635000D01*
X164885714Y-100682619D01*
X164933333Y-100777857D01*
X164933333Y-100920714D01*
X164885714Y-101015952D01*
X164838095Y-101063571D01*
X164742857Y-101111190D01*
X164361904Y-101111190D01*
X165266666Y-100587380D02*
X165885714Y-100587380D01*
X165552380Y-100968333D01*
X165695238Y-100968333D01*
X165790476Y-101015952D01*
X165838095Y-101063571D01*
X165885714Y-101158809D01*
X165885714Y-101396904D01*
X165838095Y-101492142D01*
X165790476Y-101539761D01*
X165695238Y-101587380D01*
X165409523Y-101587380D01*
X165314285Y-101539761D01*
X165266666Y-101492142D01*
%TO.C,R2*%
X164933333Y-94485380D02*
X164600000Y-94009190D01*
X164361904Y-94485380D02*
X164361904Y-93485380D01*
X164742857Y-93485380D01*
X164838095Y-93533000D01*
X164885714Y-93580619D01*
X164933333Y-93675857D01*
X164933333Y-93818714D01*
X164885714Y-93913952D01*
X164838095Y-93961571D01*
X164742857Y-94009190D01*
X164361904Y-94009190D01*
X165314285Y-93580619D02*
X165361904Y-93533000D01*
X165457142Y-93485380D01*
X165695238Y-93485380D01*
X165790476Y-93533000D01*
X165838095Y-93580619D01*
X165885714Y-93675857D01*
X165885714Y-93771095D01*
X165838095Y-93913952D01*
X165266666Y-94485380D01*
X165885714Y-94485380D01*
%TO.C,J4*%
X122852380Y-83010333D02*
X123566666Y-83010333D01*
X123709523Y-83057952D01*
X123804761Y-83153190D01*
X123852380Y-83296047D01*
X123852380Y-83391285D01*
X123185714Y-82105571D02*
X123852380Y-82105571D01*
X122804761Y-82343666D02*
X123519047Y-82581761D01*
X123519047Y-81962714D01*
%TO.C,R1*%
X164933333Y-87368380D02*
X164600000Y-86892190D01*
X164361904Y-87368380D02*
X164361904Y-86368380D01*
X164742857Y-86368380D01*
X164838095Y-86416000D01*
X164885714Y-86463619D01*
X164933333Y-86558857D01*
X164933333Y-86701714D01*
X164885714Y-86796952D01*
X164838095Y-86844571D01*
X164742857Y-86892190D01*
X164361904Y-86892190D01*
X165885714Y-87368380D02*
X165314285Y-87368380D01*
X165600000Y-87368380D02*
X165600000Y-86368380D01*
X165504761Y-86511238D01*
X165409523Y-86606476D01*
X165314285Y-86654095D01*
%TO.C,J11*%
X122852380Y-104060523D02*
X123566666Y-104060523D01*
X123709523Y-104108142D01*
X123804761Y-104203380D01*
X123852380Y-104346238D01*
X123852380Y-104441476D01*
X123852380Y-103060523D02*
X123852380Y-103631952D01*
X123852380Y-103346238D02*
X122852380Y-103346238D01*
X122995238Y-103441476D01*
X123090476Y-103536714D01*
X123138095Y-103631952D01*
X123852380Y-102108142D02*
X123852380Y-102679571D01*
X123852380Y-102393857D02*
X122852380Y-102393857D01*
X122995238Y-102489095D01*
X123090476Y-102584333D01*
X123138095Y-102679571D01*
%TO.C,J1*%
X173148666Y-76761380D02*
X173148666Y-77475666D01*
X173101047Y-77618523D01*
X173005809Y-77713761D01*
X172862952Y-77761380D01*
X172767714Y-77761380D01*
X174148666Y-77761380D02*
X173577238Y-77761380D01*
X173862952Y-77761380D02*
X173862952Y-76761380D01*
X173767714Y-76904238D01*
X173672476Y-76999476D01*
X173577238Y-77047095D01*
%TO.C,P1*%
X157988000Y-125095000D02*
X157988000Y-122555000D01*
X140208000Y-125095000D02*
X157988000Y-125095000D01*
X157988000Y-122555000D02*
X140208000Y-122555000D01*
X138938000Y-122275000D02*
X137388000Y-122275000D01*
X137388000Y-122275000D02*
X137388000Y-125375000D01*
X137388000Y-125375000D02*
X138938000Y-125375000D01*
X140208000Y-125095000D02*
X140208000Y-122555000D01*
%TO.C,P2*%
X163068000Y-125095000D02*
X163068000Y-122555000D01*
X161798000Y-122275000D02*
X160248000Y-122275000D01*
X175768000Y-122555000D02*
X163068000Y-122555000D01*
X163068000Y-125095000D02*
X175768000Y-125095000D01*
X175768000Y-125095000D02*
X175768000Y-122555000D01*
X160248000Y-122275000D02*
X160248000Y-125375000D01*
X160248000Y-125375000D02*
X161798000Y-125375000D01*
%TO.C,P3*%
X128244000Y-74015000D02*
X128244000Y-77115000D01*
X131064000Y-76835000D02*
X153924000Y-76835000D01*
X153924000Y-76835000D02*
X153924000Y-74295000D01*
X153924000Y-74295000D02*
X131064000Y-74295000D01*
X129794000Y-74015000D02*
X128244000Y-74015000D01*
X128244000Y-77115000D02*
X129794000Y-77115000D01*
X131064000Y-76835000D02*
X131064000Y-74295000D01*
%TO.C,P4*%
X175768000Y-74295000D02*
X157988000Y-74295000D01*
X155168000Y-77115000D02*
X156718000Y-77115000D01*
X157988000Y-76835000D02*
X175768000Y-76835000D01*
X157988000Y-76835000D02*
X157988000Y-74295000D01*
X156718000Y-74015000D02*
X155168000Y-74015000D01*
X175768000Y-76835000D02*
X175768000Y-74295000D01*
X155168000Y-74015000D02*
X155168000Y-77115000D01*
D11*
%TO.C,J8*%
X127000000Y-94421000D02*
X127000000Y-91761000D01*
X125730000Y-94421000D02*
X124400000Y-94421000D01*
X124400000Y-94421000D02*
X124400000Y-93091000D01*
X147380000Y-94421000D02*
X147380000Y-91761000D01*
X127000000Y-94421000D02*
X147380000Y-94421000D01*
X127000000Y-91761000D02*
X147380000Y-91761000D01*
%TO.C,J12*%
X113478000Y-83245000D02*
X116138000Y-83245000D01*
X113478000Y-78105000D02*
X116138000Y-78105000D01*
X113478000Y-78105000D02*
X113478000Y-83245000D01*
X113478000Y-76835000D02*
X113478000Y-75505000D01*
X113478000Y-75505000D02*
X114808000Y-75505000D01*
X116138000Y-78105000D02*
X116138000Y-83245000D01*
%TO.C,J2*%
X172152000Y-85416000D02*
X173482000Y-85416000D01*
X172152000Y-90616000D02*
X174812000Y-90616000D01*
X172152000Y-86746000D02*
X172152000Y-85416000D01*
X172152000Y-88016000D02*
X172152000Y-90616000D01*
X174812000Y-88016000D02*
X174812000Y-90616000D01*
X172152000Y-88016000D02*
X174812000Y-88016000D01*
%TO.C,J7*%
X124400000Y-89341000D02*
X124400000Y-88011000D01*
X127000000Y-86681000D02*
X147380000Y-86681000D01*
X127000000Y-89341000D02*
X147380000Y-89341000D01*
X147380000Y-89341000D02*
X147380000Y-86681000D01*
X127000000Y-89341000D02*
X127000000Y-86681000D01*
X125730000Y-89341000D02*
X124400000Y-89341000D01*
%TO.C,J3*%
X172152000Y-95128000D02*
X172152000Y-97728000D01*
X172152000Y-97728000D02*
X174812000Y-97728000D01*
X172152000Y-95128000D02*
X174812000Y-95128000D01*
X174812000Y-95128000D02*
X174812000Y-97728000D01*
X172152000Y-92528000D02*
X173482000Y-92528000D01*
X172152000Y-93858000D02*
X172152000Y-92528000D01*
%TO.C,J10*%
X127000000Y-99501000D02*
X127000000Y-96841000D01*
X127000000Y-99501000D02*
X147380000Y-99501000D01*
X147380000Y-99501000D02*
X147380000Y-96841000D01*
X124400000Y-99501000D02*
X124400000Y-98171000D01*
X127000000Y-96841000D02*
X147380000Y-96841000D01*
X125730000Y-99501000D02*
X124400000Y-99501000D01*
%TO.C,J6*%
X172152000Y-109347000D02*
X174812000Y-109347000D01*
X174812000Y-109347000D02*
X174812000Y-111947000D01*
X172152000Y-111947000D02*
X174812000Y-111947000D01*
X172152000Y-106747000D02*
X173482000Y-106747000D01*
X172152000Y-108077000D02*
X172152000Y-106747000D01*
X172152000Y-109347000D02*
X172152000Y-111947000D01*
%TO.C,J14*%
X113478000Y-100965000D02*
X116138000Y-100965000D01*
X113478000Y-106105000D02*
X116138000Y-106105000D01*
X113478000Y-98365000D02*
X114808000Y-98365000D01*
X116138000Y-100965000D02*
X116138000Y-106105000D01*
X113478000Y-99695000D02*
X113478000Y-98365000D01*
X113478000Y-100965000D02*
X113478000Y-106105000D01*
%TO.C,J9*%
X172152000Y-113859000D02*
X173482000Y-113859000D01*
X172152000Y-116459000D02*
X174812000Y-116459000D01*
X172152000Y-115189000D02*
X172152000Y-113859000D01*
X172152000Y-119059000D02*
X174812000Y-119059000D01*
X172152000Y-116459000D02*
X172152000Y-119059000D01*
X174812000Y-116459000D02*
X174812000Y-119059000D01*
%TO.C,R5*%
X168370000Y-119099000D02*
X168370000Y-116359000D01*
X161830000Y-119099000D02*
X168370000Y-119099000D01*
X168370000Y-116359000D02*
X161830000Y-116359000D01*
X169140000Y-117729000D02*
X168370000Y-117729000D01*
X161060000Y-117729000D02*
X161830000Y-117729000D01*
X161830000Y-116359000D02*
X161830000Y-119099000D01*
%TO.C,J13*%
X113478000Y-94690000D02*
X116138000Y-94690000D01*
X116138000Y-89550000D02*
X116138000Y-94690000D01*
X113478000Y-86950000D02*
X114808000Y-86950000D01*
X113478000Y-88280000D02*
X113478000Y-86950000D01*
X113478000Y-89550000D02*
X113478000Y-94690000D01*
X113478000Y-89550000D02*
X116138000Y-89550000D01*
%TO.C,J5*%
X172152000Y-102235000D02*
X172152000Y-104835000D01*
X172152000Y-100965000D02*
X172152000Y-99635000D01*
X174812000Y-102235000D02*
X174812000Y-104835000D01*
X172152000Y-102235000D02*
X174812000Y-102235000D01*
X172152000Y-104835000D02*
X174812000Y-104835000D01*
X172152000Y-99635000D02*
X173482000Y-99635000D01*
%TO.C,R4*%
X161060000Y-110617000D02*
X161830000Y-110617000D01*
X168370000Y-111987000D02*
X168370000Y-109247000D01*
X161830000Y-109247000D02*
X161830000Y-111987000D01*
X168370000Y-109247000D02*
X161830000Y-109247000D01*
X169140000Y-110617000D02*
X168370000Y-110617000D01*
X161830000Y-111987000D02*
X168370000Y-111987000D01*
%TO.C,R3*%
X161830000Y-102135000D02*
X161830000Y-104875000D01*
X168370000Y-104875000D02*
X168370000Y-102135000D01*
X161060000Y-103505000D02*
X161830000Y-103505000D01*
X168370000Y-102135000D02*
X161830000Y-102135000D01*
X169140000Y-103505000D02*
X168370000Y-103505000D01*
X161830000Y-104875000D02*
X168370000Y-104875000D01*
%TO.C,R2*%
X161060000Y-96403000D02*
X161830000Y-96403000D01*
X161830000Y-95033000D02*
X161830000Y-97773000D01*
X169140000Y-96403000D02*
X168370000Y-96403000D01*
X168370000Y-95033000D02*
X161830000Y-95033000D01*
X168370000Y-97773000D02*
X168370000Y-95033000D01*
X161830000Y-97773000D02*
X168370000Y-97773000D01*
%TO.C,J4*%
X125730000Y-84007000D02*
X124400000Y-84007000D01*
X127000000Y-84007000D02*
X127000000Y-81347000D01*
X127000000Y-81347000D02*
X147380000Y-81347000D01*
X124400000Y-84007000D02*
X124400000Y-82677000D01*
X127000000Y-84007000D02*
X147380000Y-84007000D01*
X147380000Y-84007000D02*
X147380000Y-81347000D01*
%TO.C,R1*%
X168370000Y-90656000D02*
X168370000Y-87916000D01*
X161830000Y-87916000D02*
X161830000Y-90656000D01*
X161060000Y-89286000D02*
X161830000Y-89286000D01*
X161830000Y-90656000D02*
X168370000Y-90656000D01*
X169140000Y-89286000D02*
X168370000Y-89286000D01*
X168370000Y-87916000D02*
X161830000Y-87916000D01*
%TO.C,J11*%
X124400000Y-104581000D02*
X124400000Y-103251000D01*
X125730000Y-104581000D02*
X124400000Y-104581000D01*
X147380000Y-104581000D02*
X147380000Y-101921000D01*
X127000000Y-101921000D02*
X147380000Y-101921000D01*
X127000000Y-104581000D02*
X127000000Y-101921000D01*
X127000000Y-104581000D02*
X147380000Y-104581000D01*
%TO.C,J1*%
X172152000Y-79639000D02*
X172152000Y-78309000D01*
X172152000Y-80909000D02*
X174812000Y-80909000D01*
X172152000Y-78309000D02*
X173482000Y-78309000D01*
X172152000Y-83509000D02*
X174812000Y-83509000D01*
X172152000Y-80909000D02*
X172152000Y-83509000D01*
X174812000Y-80909000D02*
X174812000Y-83509000D01*
%TD*%
D12*
%TO.C,P1*%
X138938000Y-123825000D03*
X141478000Y-123825000D03*
X144018000Y-123825000D03*
X146558000Y-123825000D03*
X149098000Y-123825000D03*
X151638000Y-123825000D03*
X154178000Y-123825000D03*
X156718000Y-123825000D03*
%TD*%
%TO.C,P2*%
X161798000Y-123825000D03*
X164338000Y-123825000D03*
X166878000Y-123825000D03*
X169418000Y-123825000D03*
X171958000Y-123825000D03*
X174498000Y-123825000D03*
%TD*%
%TO.C,P3*%
X129794000Y-75565000D03*
X132334000Y-75565000D03*
X134874000Y-75565000D03*
X137414000Y-75565000D03*
X139954000Y-75565000D03*
X142494000Y-75565000D03*
X145034000Y-75565000D03*
X147574000Y-75565000D03*
X150114000Y-75565000D03*
X152654000Y-75565000D03*
%TD*%
%TO.C,P4*%
X156718000Y-75565000D03*
X159258000Y-75565000D03*
X161798000Y-75565000D03*
X164338000Y-75565000D03*
X166878000Y-75565000D03*
X169418000Y-75565000D03*
X171958000Y-75565000D03*
X174498000Y-75565000D03*
%TD*%
M02*
