%TF.GenerationSoftware,KiCad,Pcbnew,6.0.1*%
%TF.CreationDate,2022-02-15T15:15:00-07:00*%
%TF.ProjectId,aerogel_shield,6165726f-6765-46c5-9f73-6869656c642e,rev?*%
%TF.SameCoordinates,Original*%
%TF.FileFunction,Copper,L1,Top*%
%TF.FilePolarity,Positive*%
%FSLAX46Y46*%
G04 Gerber Fmt 4.6, Leading zero omitted, Abs format (unit mm)*
G04 Created by KiCad (PCBNEW 6.0.1) date 2022-02-15 15:15:00*
%MOMM*%
%LPD*%
G01*
G04 APERTURE LIST*
%TA.AperFunction,ComponentPad*%
%ADD10O,1.727200X2.032000*%
%TD*%
%TA.AperFunction,ComponentPad*%
%ADD11R,1.700000X1.700000*%
%TD*%
%TA.AperFunction,ComponentPad*%
%ADD12O,1.700000X1.700000*%
%TD*%
%TA.AperFunction,ComponentPad*%
%ADD13C,1.600000*%
%TD*%
%TA.AperFunction,ComponentPad*%
%ADD14O,1.600000X1.600000*%
%TD*%
%TA.AperFunction,Conductor*%
%ADD15C,0.500000*%
%TD*%
%TA.AperFunction,Conductor*%
%ADD16C,0.600000*%
%TD*%
G04 APERTURE END LIST*
D10*
%TO.P,Digital,1,Pin_1*%
%TO.N,unconnected-(P1-Pad1)*%
X138938000Y-123825000D03*
%TO.P,Digital,2,Pin_2*%
%TO.N,/IOREF*%
X141478000Y-123825000D03*
%TO.P,Digital,3,Pin_3*%
%TO.N,/Reset*%
X144018000Y-123825000D03*
%TO.P,Digital,4,Pin_4*%
%TO.N,+3V3*%
X146558000Y-123825000D03*
%TO.P,Digital,5,Pin_5*%
%TO.N,+5V*%
X149098000Y-123825000D03*
%TO.P,Digital,6,Pin_6*%
%TO.N,GND*%
X151638000Y-123825000D03*
%TO.P,Digital,7,Pin_7*%
X154178000Y-123825000D03*
%TO.P,Digital,8,Pin_8*%
%TO.N,/Vin*%
X156718000Y-123825000D03*
%TD*%
%TO.P,Analog,1,Pin_1*%
%TO.N,/A0*%
X161798000Y-123825000D03*
%TO.P,Analog,2,Pin_2*%
%TO.N,/A1*%
X164338000Y-123825000D03*
%TO.P,Analog,3,Pin_3*%
%TO.N,/A2*%
X166878000Y-123825000D03*
%TO.P,Analog,4,Pin_4*%
%TO.N,/A3*%
X169418000Y-123825000D03*
%TO.P,Analog,5,Pin_5*%
%TO.N,/A4(SDA)*%
X171958000Y-123825000D03*
%TO.P,Analog,6,Pin_6*%
%TO.N,/A5(SCL)*%
X174498000Y-123825000D03*
%TD*%
%TO.P,Digital,1,Pin_1*%
%TO.N,/A5(SCL)*%
X129794000Y-75565000D03*
%TO.P,Digital,2,Pin_2*%
%TO.N,/A4(SDA)*%
X132334000Y-75565000D03*
%TO.P,Digital,3,Pin_3*%
%TO.N,/AREF*%
X134874000Y-75565000D03*
%TO.P,Digital,4,Pin_4*%
%TO.N,GND*%
X137414000Y-75565000D03*
%TO.P,Digital,5,Pin_5*%
%TO.N,/13(SCK)*%
X139954000Y-75565000D03*
%TO.P,Digital,6,Pin_6*%
%TO.N,/12(MISO)*%
X142494000Y-75565000D03*
%TO.P,Digital,7,Pin_7*%
%TO.N,/11(\u002A\u002A{slash}MOSI)*%
X145034000Y-75565000D03*
%TO.P,Digital,8,Pin_8*%
%TO.N,/10(\u002A\u002A{slash}SS)*%
X147574000Y-75565000D03*
%TO.P,Digital,9,Pin_9*%
%TO.N,/9(\u002A\u002A)*%
X150114000Y-75565000D03*
%TO.P,Digital,10,Pin_10*%
%TO.N,/8*%
X152654000Y-75565000D03*
%TD*%
%TO.P,Digital,1,Pin_1*%
%TO.N,/7*%
X156718000Y-75565000D03*
%TO.P,Digital,2,Pin_2*%
%TO.N,/6(\u002A\u002A)*%
X159258000Y-75565000D03*
%TO.P,Digital,3,Pin_3*%
%TO.N,/5(\u002A\u002A)*%
X161798000Y-75565000D03*
%TO.P,Digital,4,Pin_4*%
%TO.N,/4*%
X164338000Y-75565000D03*
%TO.P,Digital,5,Pin_5*%
%TO.N,/3(\u002A\u002A)*%
X166878000Y-75565000D03*
%TO.P,Digital,6,Pin_6*%
%TO.N,/2*%
X169418000Y-75565000D03*
%TO.P,Digital,7,Pin_7*%
%TO.N,/1(Tx)*%
X171958000Y-75565000D03*
%TO.P,Digital,8,Pin_8*%
%TO.N,/0(Rx)*%
X174498000Y-75565000D03*
%TD*%
D11*
%TO.P,T3,1,Pin_1*%
%TO.N,+5V*%
X125730000Y-93091000D03*
D12*
%TO.P,T3,2,Pin_2*%
%TO.N,unconnected-(J8-Pad2)*%
X128270000Y-93091000D03*
%TO.P,T3,3,Pin_3*%
%TO.N,GND*%
X130810000Y-93091000D03*
%TO.P,T3,4,Pin_4*%
%TO.N,/13(SCK)*%
X133350000Y-93091000D03*
%TO.P,T3,5,Pin_5*%
%TO.N,/12(MISO)*%
X135890000Y-93091000D03*
%TO.P,T3,6,Pin_6*%
%TO.N,/11(\u002A\u002A{slash}MOSI)*%
X138430000Y-93091000D03*
%TO.P,T3,7,Pin_7*%
%TO.N,/8*%
X140970000Y-93091000D03*
%TO.P,T3,8,Pin_8*%
%TO.N,unconnected-(J8-Pad8)*%
X143510000Y-93091000D03*
%TO.P,T3,9,Pin_9*%
%TO.N,unconnected-(J8-Pad9)*%
X146050000Y-93091000D03*
%TD*%
D11*
%TO.P,Y1,1,Pin_1*%
%TO.N,+5V*%
X121412000Y-76581000D03*
D12*
%TO.P,Y1,2,Pin_2*%
%TO.N,/5(\u002A\u002A)*%
X118872000Y-76581000D03*
%TO.P,Y1,3,Pin_3*%
%TO.N,GND*%
X116332000Y-76581000D03*
%TD*%
D11*
%TO.P,Y4,1,Pin_1*%
%TO.N,+5V*%
X125730000Y-123063000D03*
D12*
%TO.P,Y4,2,Pin_2*%
%TO.N,/2*%
X128270000Y-123063000D03*
%TO.P,Y4,3,Pin_3*%
%TO.N,GND*%
X130810000Y-123063000D03*
%TD*%
D11*
%TO.P,P5,1,Pin_1*%
%TO.N,+12V*%
X173482000Y-86746000D03*
D12*
%TO.P,P5,2,Pin_2*%
%TO.N,/A0*%
X173482000Y-89286000D03*
%TD*%
D11*
%TO.P,T2,1,Pin_1*%
%TO.N,+5V*%
X125730000Y-88011000D03*
D12*
%TO.P,T2,2,Pin_2*%
%TO.N,unconnected-(J7-Pad2)*%
X128270000Y-88011000D03*
%TO.P,T2,3,Pin_3*%
%TO.N,GND*%
X130810000Y-88011000D03*
%TO.P,T2,4,Pin_4*%
%TO.N,/13(SCK)*%
X133350000Y-88011000D03*
%TO.P,T2,5,Pin_5*%
%TO.N,/12(MISO)*%
X135890000Y-88011000D03*
%TO.P,T2,6,Pin_6*%
%TO.N,/11(\u002A\u002A{slash}MOSI)*%
X138430000Y-88011000D03*
%TO.P,T2,7,Pin_7*%
%TO.N,/9(\u002A\u002A)*%
X140970000Y-88011000D03*
%TO.P,T2,8,Pin_8*%
%TO.N,unconnected-(J7-Pad8)*%
X143510000Y-88011000D03*
%TO.P,T2,9,Pin_9*%
%TO.N,unconnected-(J7-Pad9)*%
X146050000Y-88011000D03*
%TD*%
D11*
%TO.P,P4,1,Pin_1*%
%TO.N,+12V*%
X173482000Y-93858000D03*
D12*
%TO.P,P4,2,Pin_2*%
%TO.N,/A1*%
X173482000Y-96398000D03*
%TD*%
D11*
%TO.P,T4,1,Pin_1*%
%TO.N,+5V*%
X125730000Y-98171000D03*
D12*
%TO.P,T4,2,Pin_2*%
%TO.N,unconnected-(J10-Pad2)*%
X128270000Y-98171000D03*
%TO.P,T4,3,Pin_3*%
%TO.N,GND*%
X130810000Y-98171000D03*
%TO.P,T4,4,Pin_4*%
%TO.N,/13(SCK)*%
X133350000Y-98171000D03*
%TO.P,T4,5,Pin_5*%
%TO.N,/12(MISO)*%
X135890000Y-98171000D03*
%TO.P,T4,6,Pin_6*%
%TO.N,/11(\u002A\u002A{slash}MOSI)*%
X138430000Y-98171000D03*
%TO.P,T4,7,Pin_7*%
%TO.N,/7*%
X140970000Y-98171000D03*
%TO.P,T4,8,Pin_8*%
%TO.N,unconnected-(J10-Pad8)*%
X143510000Y-98171000D03*
%TO.P,T4,9,Pin_9*%
%TO.N,unconnected-(J10-Pad9)*%
X146050000Y-98171000D03*
%TD*%
D11*
%TO.P,P2,1,Pin_1*%
%TO.N,+12V*%
X173482000Y-108077000D03*
D12*
%TO.P,P2,2,Pin_2*%
%TO.N,/A3*%
X173482000Y-110617000D03*
%TD*%
D11*
%TO.P,Y3,1,Pin_1*%
%TO.N,+5V*%
X114808000Y-106299000D03*
D12*
%TO.P,Y3,2,Pin_2*%
%TO.N,/3(\u002A\u002A)*%
X114808000Y-108839000D03*
%TO.P,Y3,3,Pin_3*%
%TO.N,GND*%
X114808000Y-111379000D03*
%TD*%
D11*
%TO.P,P1,1,Pin_1*%
%TO.N,+12V*%
X173482000Y-115189000D03*
D12*
%TO.P,P1,2,Pin_2*%
%TO.N,/A4(SDA)*%
X173482000Y-117729000D03*
%TD*%
D13*
%TO.P,R5,1*%
%TO.N,GND*%
X160020000Y-117729000D03*
D14*
%TO.P,R5,2*%
%TO.N,/A4(SDA)*%
X170180000Y-117729000D03*
%TD*%
D11*
%TO.P,Y2,1,Pin_1*%
%TO.N,+5V*%
X114808000Y-96393000D03*
D12*
%TO.P,Y2,2,Pin_2*%
%TO.N,/4*%
X114808000Y-98933000D03*
%TO.P,Y2,3,Pin_3*%
%TO.N,GND*%
X114808000Y-101473000D03*
%TD*%
D11*
%TO.P,P3,1,Pin_1*%
%TO.N,+12V*%
X173482000Y-100965000D03*
D12*
%TO.P,P3,2,Pin_2*%
%TO.N,/A2*%
X173482000Y-103505000D03*
%TD*%
D13*
%TO.P,R4,1*%
%TO.N,GND*%
X160020000Y-110617000D03*
D14*
%TO.P,R4,2*%
%TO.N,/A3*%
X170180000Y-110617000D03*
%TD*%
D13*
%TO.P,R3,1*%
%TO.N,GND*%
X160020000Y-103505000D03*
D14*
%TO.P,R3,2*%
%TO.N,/A2*%
X170180000Y-103505000D03*
%TD*%
D13*
%TO.P,R2,1*%
%TO.N,GND*%
X160020000Y-96403000D03*
D14*
%TO.P,R2,2*%
%TO.N,/A1*%
X170180000Y-96403000D03*
%TD*%
D11*
%TO.P,T1,1,Pin_1*%
%TO.N,+5V*%
X125730000Y-82931000D03*
D12*
%TO.P,T1,2,Pin_2*%
%TO.N,unconnected-(J4-Pad2)*%
X128270000Y-82931000D03*
%TO.P,T1,3,Pin_3*%
%TO.N,GND*%
X130810000Y-82931000D03*
%TO.P,T1,4,Pin_4*%
%TO.N,/13(SCK)*%
X133350000Y-82931000D03*
%TO.P,T1,5,Pin_5*%
%TO.N,/12(MISO)*%
X135890000Y-82931000D03*
%TO.P,T1,6,Pin_6*%
%TO.N,/11(\u002A\u002A{slash}MOSI)*%
X138430000Y-82931000D03*
%TO.P,T1,7,Pin_7*%
%TO.N,/10(\u002A\u002A{slash}SS)*%
X140970000Y-82931000D03*
%TO.P,T1,8,Pin_8*%
%TO.N,unconnected-(J4-Pad8)*%
X143510000Y-82931000D03*
%TO.P,T1,9,Pin_9*%
%TO.N,unconnected-(J4-Pad9)*%
X146050000Y-82931000D03*
%TD*%
D13*
%TO.P,R1,1*%
%TO.N,GND*%
X160020000Y-89286000D03*
D14*
%TO.P,R1,2*%
%TO.N,/A0*%
X170180000Y-89286000D03*
%TD*%
D11*
%TO.P,T5,1,Pin_1*%
%TO.N,+5V*%
X125730000Y-103251000D03*
D12*
%TO.P,T5,2,Pin_2*%
%TO.N,unconnected-(J11-Pad2)*%
X128270000Y-103251000D03*
%TO.P,T5,3,Pin_3*%
%TO.N,GND*%
X130810000Y-103251000D03*
%TO.P,T5,4,Pin_4*%
%TO.N,/13(SCK)*%
X133350000Y-103251000D03*
%TO.P,T5,5,Pin_5*%
%TO.N,/12(MISO)*%
X135890000Y-103251000D03*
%TO.P,T5,6,Pin_6*%
%TO.N,/11(\u002A\u002A{slash}MOSI)*%
X138430000Y-103251000D03*
%TO.P,T5,7,Pin_7*%
%TO.N,/6(\u002A\u002A)*%
X140970000Y-103251000D03*
%TO.P,T5,8,Pin_8*%
%TO.N,unconnected-(J11-Pad8)*%
X143510000Y-103251000D03*
%TO.P,T5,9,Pin_9*%
%TO.N,unconnected-(J11-Pad9)*%
X146050000Y-103251000D03*
%TD*%
D11*
%TO.P,12V,1,Pin_1*%
%TO.N,+12V*%
X173482000Y-79639000D03*
D12*
%TO.P,12V,2,Pin_2*%
%TO.N,GND*%
X173482000Y-82179000D03*
%TD*%
D15*
%TO.N,/12(MISO)*%
X135890000Y-82931000D02*
X135890000Y-81407000D01*
X137668000Y-79629000D02*
X140208000Y-79629000D01*
X135890000Y-81407000D02*
X137668000Y-79629000D01*
X140208000Y-79629000D02*
X142494000Y-77343000D01*
X142494000Y-77343000D02*
X142494000Y-75565000D01*
%TO.N,/11(\u002A\u002A{slash}MOSI)*%
X138430000Y-82931000D02*
X138430000Y-81407000D01*
X142748000Y-79629000D02*
X145034000Y-77343000D01*
X138430000Y-81407000D02*
X139192000Y-80645000D01*
X139192000Y-80645000D02*
X140462000Y-80645000D01*
X141478000Y-79629000D02*
X142748000Y-79629000D01*
X140462000Y-80645000D02*
X141478000Y-79629000D01*
X145034000Y-77343000D02*
X145034000Y-75565000D01*
%TO.N,/10(\u002A\u002A{slash}SS)*%
X140970000Y-82931000D02*
X140970000Y-81407000D01*
X140970000Y-81407000D02*
X141732000Y-80645000D01*
X141732000Y-80645000D02*
X144272000Y-80645000D01*
X144272000Y-80645000D02*
X147574000Y-77343000D01*
X147574000Y-77343000D02*
X147574000Y-75565000D01*
%TO.N,/13(SCK)*%
X133350000Y-82931000D02*
X133350000Y-81407000D01*
X133350000Y-81407000D02*
X136144000Y-78613000D01*
X136144000Y-78613000D02*
X138684000Y-78613000D01*
X138684000Y-78613000D02*
X139954000Y-77343000D01*
X139954000Y-77343000D02*
X139954000Y-75565000D01*
%TO.N,/5(\u002A\u002A)*%
X118872000Y-76581000D02*
X118872000Y-78486000D01*
X118872000Y-78486000D02*
X123444000Y-83058000D01*
X123444000Y-105029000D02*
X123952000Y-105537000D01*
X150728443Y-87376165D02*
X157459608Y-80645000D01*
X157459608Y-80645000D02*
X158750000Y-80645000D01*
X123444000Y-83058000D02*
X123444000Y-105029000D01*
X123952000Y-105537000D02*
X147828000Y-105537000D01*
X147828000Y-105537000D02*
X148336000Y-105029000D01*
X148336000Y-105029000D02*
X148336000Y-101404402D01*
X148336000Y-101404402D02*
X150728443Y-99011959D01*
X150728443Y-99011959D02*
X150728443Y-87376165D01*
X158750000Y-80645000D02*
X161798000Y-77597000D01*
X161798000Y-77597000D02*
X161798000Y-75565000D01*
%TO.N,/2*%
X128270000Y-123063000D02*
X128270000Y-109855000D01*
X128270000Y-109855000D02*
X129960481Y-108164519D01*
X129960481Y-108164519D02*
X148804687Y-108164519D01*
X163821274Y-83193726D02*
X169418000Y-77597000D01*
X148804687Y-108164519D02*
X150963520Y-106005686D01*
X150963520Y-106005686D02*
X150963520Y-102586882D01*
X150963520Y-102586882D02*
X153277003Y-100273399D01*
X153277003Y-100273399D02*
X153277003Y-88431811D01*
X153277003Y-88431811D02*
X158515088Y-83193726D01*
X158515088Y-83193726D02*
X163821274Y-83193726D01*
X169418000Y-77597000D02*
X169418000Y-75565000D01*
%TO.N,/3(\u002A\u002A)*%
X114808000Y-108839000D02*
X128084598Y-108839000D01*
X162130794Y-82344206D02*
X166878000Y-77597000D01*
X128084598Y-108839000D02*
X129608598Y-107315000D01*
X129608598Y-107315000D02*
X148452804Y-107315000D01*
X148452804Y-107315000D02*
X150114000Y-105653804D01*
X150114000Y-105653804D02*
X150114000Y-102235000D01*
X150114000Y-102235000D02*
X152427483Y-99921517D01*
X152427483Y-99921517D02*
X152427483Y-88079929D01*
X152427483Y-88079929D02*
X158163206Y-82344206D01*
X158163206Y-82344206D02*
X162130794Y-82344206D01*
X166878000Y-77597000D02*
X166878000Y-75565000D01*
%TO.N,/4*%
X114808000Y-98933000D02*
X120904000Y-98933000D01*
X120904000Y-98933000D02*
X122594480Y-100623480D01*
X122594480Y-100623480D02*
X122594481Y-105380883D01*
X122594481Y-105380883D02*
X123600117Y-106386519D01*
X123600117Y-106386519D02*
X148179883Y-106386519D01*
X148179883Y-106386519D02*
X149185520Y-105380882D01*
X149185520Y-105380882D02*
X149185520Y-101756284D01*
X149185520Y-101756284D02*
X151577963Y-99363841D01*
X151577963Y-99363841D02*
X151577963Y-87728047D01*
X151577963Y-87728047D02*
X157811490Y-81494520D01*
X157811490Y-81494520D02*
X160440480Y-81494520D01*
X160440480Y-81494520D02*
X164338000Y-77597000D01*
X164338000Y-77597000D02*
X164338000Y-75565000D01*
%TO.N,/6(\u002A\u002A)*%
X140970000Y-103251000D02*
X140970000Y-101981000D01*
X149878923Y-98660077D02*
X149878923Y-87024283D01*
X140970000Y-101981000D02*
X142240000Y-100711000D01*
X142240000Y-100711000D02*
X147828000Y-100711000D01*
X147828000Y-100711000D02*
X149878923Y-98660077D01*
X149878923Y-87024283D02*
X159258000Y-77645206D01*
X159258000Y-77645206D02*
X159258000Y-75565000D01*
%TO.N,/7*%
X140970000Y-98171000D02*
X140970000Y-96901000D01*
X140970000Y-96901000D02*
X142240000Y-95631000D01*
X142240000Y-95631000D02*
X147828000Y-95631000D01*
X147828000Y-95631000D02*
X149029403Y-94429597D01*
X149029403Y-94429597D02*
X149029404Y-86672400D01*
X149029404Y-86672400D02*
X156718000Y-78983804D01*
X156718000Y-78983804D02*
X156718000Y-75565000D01*
%TO.N,/8*%
X140970000Y-93091000D02*
X140970000Y-91821000D01*
X140970000Y-91821000D02*
X142240000Y-90551000D01*
X142240000Y-90551000D02*
X147574000Y-90551000D01*
X152654000Y-81846402D02*
X152654000Y-75565000D01*
X147574000Y-90551000D02*
X148179883Y-89945117D01*
X148179883Y-89945117D02*
X148179883Y-86320519D01*
X148179883Y-86320519D02*
X152654000Y-81846402D01*
%TO.N,/13(SCK)*%
X133350000Y-98171000D02*
X133350000Y-103251000D01*
X133350000Y-93091000D02*
X133350000Y-98171000D01*
X133350000Y-88011000D02*
X133350000Y-93091000D01*
X133350000Y-82931000D02*
X133350000Y-88011000D01*
%TO.N,/12(MISO)*%
X135890000Y-88011000D02*
X135890000Y-93091000D01*
X135890000Y-82931000D02*
X135890000Y-88011000D01*
X135890000Y-98171000D02*
X135890000Y-93091000D01*
X135890000Y-103251000D02*
X135890000Y-98171000D01*
%TO.N,/11(\u002A\u002A{slash}MOSI)*%
X138430000Y-103251000D02*
X138430000Y-98171000D01*
X138430000Y-98171000D02*
X138430000Y-93091000D01*
X138430000Y-93091000D02*
X138430000Y-88011000D01*
X138430000Y-88011000D02*
X138430000Y-82931000D01*
%TO.N,/9(\u002A\u002A)*%
X140970000Y-88011000D02*
X140970000Y-86487000D01*
X147828000Y-85471000D02*
X150114000Y-83185000D01*
X150114000Y-83185000D02*
X150114000Y-75565000D01*
X140970000Y-86487000D02*
X141986000Y-85471000D01*
X141986000Y-85471000D02*
X147828000Y-85471000D01*
D16*
%TO.N,/A0*%
X161798000Y-122047000D02*
X161798000Y-123825000D01*
X170180000Y-91821000D02*
X164084000Y-97917000D01*
X170180000Y-89286000D02*
X170180000Y-91821000D01*
X173482000Y-89286000D02*
X170180000Y-89286000D01*
X164084000Y-97917000D02*
X164084000Y-119761000D01*
X164084000Y-119761000D02*
X161798000Y-122047000D01*
%TO.N,/A1*%
X170180000Y-98933000D02*
X165608000Y-103505000D01*
X165608000Y-120777000D02*
X164338000Y-122047000D01*
X165608000Y-103505000D02*
X165608000Y-120777000D01*
X170180000Y-96403000D02*
X170180000Y-98933000D01*
X164338000Y-122047000D02*
X164338000Y-123825000D01*
X170185000Y-96398000D02*
X170180000Y-96403000D01*
X173482000Y-96398000D02*
X170185000Y-96398000D01*
%TO.N,/A2*%
X167132000Y-121793000D02*
X166878000Y-122047000D01*
X170180000Y-106045000D02*
X167132000Y-109093000D01*
X170180000Y-103505000D02*
X170180000Y-106045000D01*
X173482000Y-103505000D02*
X170180000Y-103505000D01*
X166878000Y-122047000D02*
X166878000Y-123825000D01*
X167132000Y-109093000D02*
X167132000Y-121793000D01*
%TO.N,/A3*%
X168656000Y-121285000D02*
X168656000Y-114649250D01*
X168656000Y-114649250D02*
X170180000Y-113125250D01*
X169418000Y-122047000D02*
X168656000Y-121285000D01*
X170180000Y-113125250D02*
X170180000Y-110617000D01*
X173482000Y-110617000D02*
X170180000Y-110617000D01*
X169418000Y-123825000D02*
X169418000Y-122047000D01*
%TO.N,/A4(SDA)*%
X170180000Y-120269000D02*
X170180000Y-117729000D01*
X171958000Y-122047000D02*
X170180000Y-120269000D01*
X171958000Y-123825000D02*
X171958000Y-122047000D01*
X173482000Y-117729000D02*
X170180000Y-117729000D01*
%TO.N,+12V*%
X173482000Y-86746000D02*
X173482000Y-86751000D01*
%TD*%
%TA.AperFunction,Conductor*%
%TO.N,+5V*%
G36*
X129842331Y-73797948D02*
G01*
X129862455Y-73788488D01*
X129881761Y-73787000D01*
X132345046Y-73787000D01*
X132382331Y-73797948D01*
X132402455Y-73788488D01*
X132421761Y-73787000D01*
X134885046Y-73787000D01*
X134922331Y-73797948D01*
X134942455Y-73788488D01*
X134961761Y-73787000D01*
X137425046Y-73787000D01*
X137462331Y-73797948D01*
X137482455Y-73788488D01*
X137501761Y-73787000D01*
X139965046Y-73787000D01*
X140002331Y-73797948D01*
X140022455Y-73788488D01*
X140041761Y-73787000D01*
X142505046Y-73787000D01*
X142542331Y-73797948D01*
X142562455Y-73788488D01*
X142581761Y-73787000D01*
X145045046Y-73787000D01*
X145082331Y-73797948D01*
X145102455Y-73788488D01*
X145121761Y-73787000D01*
X147585046Y-73787000D01*
X147622331Y-73797948D01*
X147642455Y-73788488D01*
X147661761Y-73787000D01*
X150125046Y-73787000D01*
X150162332Y-73797948D01*
X150182456Y-73788488D01*
X150201762Y-73787000D01*
X150242000Y-73787000D01*
X150310121Y-73807002D01*
X150356614Y-73860658D01*
X150368000Y-73913000D01*
X150368000Y-73918333D01*
X150347998Y-73986454D01*
X150294342Y-74032947D01*
X150225445Y-74043241D01*
X150185207Y-74037908D01*
X150166919Y-74029799D01*
X150160544Y-74033896D01*
X150129773Y-74038911D01*
X149946178Y-74045803D01*
X149863474Y-74063156D01*
X149723514Y-74092523D01*
X149723511Y-74092524D01*
X149718287Y-74093620D01*
X149501710Y-74179150D01*
X149302641Y-74299949D01*
X149126770Y-74452561D01*
X149123387Y-74456687D01*
X149123383Y-74456691D01*
X149050262Y-74545869D01*
X148979128Y-74632624D01*
X148976489Y-74637260D01*
X148976487Y-74637263D01*
X148953155Y-74678252D01*
X148902073Y-74727558D01*
X148832442Y-74741420D01*
X148766371Y-74715437D01*
X148739133Y-74686287D01*
X148650176Y-74554155D01*
X148647196Y-74549728D01*
X148486468Y-74381242D01*
X148299650Y-74242246D01*
X148175549Y-74179150D01*
X148096842Y-74139133D01*
X148096841Y-74139133D01*
X148092084Y-74136714D01*
X147953299Y-74093620D01*
X147874807Y-74069247D01*
X147874801Y-74069246D01*
X147869704Y-74067663D01*
X147645206Y-74037908D01*
X147626919Y-74029799D01*
X147620544Y-74033896D01*
X147589773Y-74038911D01*
X147406178Y-74045803D01*
X147323474Y-74063156D01*
X147183514Y-74092523D01*
X147183511Y-74092524D01*
X147178287Y-74093620D01*
X146961710Y-74179150D01*
X146762641Y-74299949D01*
X146586770Y-74452561D01*
X146583387Y-74456687D01*
X146583383Y-74456691D01*
X146510262Y-74545869D01*
X146439128Y-74632624D01*
X146436489Y-74637260D01*
X146436487Y-74637263D01*
X146413155Y-74678252D01*
X146362073Y-74727558D01*
X146292442Y-74741420D01*
X146226371Y-74715437D01*
X146199133Y-74686287D01*
X146110176Y-74554155D01*
X146107196Y-74549728D01*
X145946468Y-74381242D01*
X145759650Y-74242246D01*
X145635549Y-74179150D01*
X145556842Y-74139133D01*
X145556841Y-74139133D01*
X145552084Y-74136714D01*
X145413299Y-74093620D01*
X145334807Y-74069247D01*
X145334801Y-74069246D01*
X145329704Y-74067663D01*
X145105206Y-74037908D01*
X145086919Y-74029799D01*
X145080544Y-74033896D01*
X145049773Y-74038911D01*
X144866178Y-74045803D01*
X144783474Y-74063156D01*
X144643514Y-74092523D01*
X144643511Y-74092524D01*
X144638287Y-74093620D01*
X144421710Y-74179150D01*
X144222641Y-74299949D01*
X144046770Y-74452561D01*
X144043387Y-74456687D01*
X144043383Y-74456691D01*
X143970262Y-74545869D01*
X143899128Y-74632624D01*
X143896489Y-74637260D01*
X143896487Y-74637263D01*
X143873155Y-74678252D01*
X143822073Y-74727558D01*
X143752442Y-74741420D01*
X143686371Y-74715437D01*
X143659133Y-74686287D01*
X143570176Y-74554155D01*
X143567196Y-74549728D01*
X143406468Y-74381242D01*
X143219650Y-74242246D01*
X143095549Y-74179150D01*
X143016842Y-74139133D01*
X143016841Y-74139133D01*
X143012084Y-74136714D01*
X142873299Y-74093620D01*
X142794807Y-74069247D01*
X142794801Y-74069246D01*
X142789704Y-74067663D01*
X142565206Y-74037908D01*
X142546919Y-74029799D01*
X142540544Y-74033896D01*
X142509773Y-74038911D01*
X142326178Y-74045803D01*
X142243474Y-74063156D01*
X142103514Y-74092523D01*
X142103511Y-74092524D01*
X142098287Y-74093620D01*
X141881710Y-74179150D01*
X141682641Y-74299949D01*
X141506770Y-74452561D01*
X141503387Y-74456687D01*
X141503383Y-74456691D01*
X141430262Y-74545869D01*
X141359128Y-74632624D01*
X141356489Y-74637260D01*
X141356487Y-74637263D01*
X141333155Y-74678252D01*
X141282073Y-74727558D01*
X141212442Y-74741420D01*
X141146371Y-74715437D01*
X141119133Y-74686287D01*
X141030176Y-74554155D01*
X141027196Y-74549728D01*
X140866468Y-74381242D01*
X140679650Y-74242246D01*
X140555549Y-74179150D01*
X140476842Y-74139133D01*
X140476841Y-74139133D01*
X140472084Y-74136714D01*
X140333299Y-74093620D01*
X140254807Y-74069247D01*
X140254801Y-74069246D01*
X140249704Y-74067663D01*
X140025206Y-74037908D01*
X140006919Y-74029799D01*
X140000544Y-74033896D01*
X139969773Y-74038911D01*
X139786178Y-74045803D01*
X139703474Y-74063156D01*
X139563514Y-74092523D01*
X139563511Y-74092524D01*
X139558287Y-74093620D01*
X139341710Y-74179150D01*
X139142641Y-74299949D01*
X138966770Y-74452561D01*
X138963387Y-74456687D01*
X138963383Y-74456691D01*
X138890262Y-74545869D01*
X138819128Y-74632624D01*
X138816489Y-74637260D01*
X138816487Y-74637263D01*
X138793155Y-74678252D01*
X138742073Y-74727558D01*
X138672442Y-74741420D01*
X138606371Y-74715437D01*
X138579133Y-74686287D01*
X138490176Y-74554155D01*
X138487196Y-74549728D01*
X138326468Y-74381242D01*
X138139650Y-74242246D01*
X138015549Y-74179150D01*
X137936842Y-74139133D01*
X137936841Y-74139133D01*
X137932084Y-74136714D01*
X137793299Y-74093620D01*
X137714807Y-74069247D01*
X137714801Y-74069246D01*
X137709704Y-74067663D01*
X137485206Y-74037908D01*
X137466919Y-74029799D01*
X137460544Y-74033896D01*
X137429773Y-74038911D01*
X137246178Y-74045803D01*
X137163474Y-74063156D01*
X137023514Y-74092523D01*
X137023511Y-74092524D01*
X137018287Y-74093620D01*
X136801710Y-74179150D01*
X136602641Y-74299949D01*
X136426770Y-74452561D01*
X136423387Y-74456687D01*
X136423383Y-74456691D01*
X136350262Y-74545869D01*
X136279128Y-74632624D01*
X136276489Y-74637260D01*
X136276487Y-74637263D01*
X136253155Y-74678252D01*
X136202073Y-74727558D01*
X136132442Y-74741420D01*
X136066371Y-74715437D01*
X136039133Y-74686287D01*
X135950176Y-74554155D01*
X135947196Y-74549728D01*
X135786468Y-74381242D01*
X135599650Y-74242246D01*
X135475549Y-74179150D01*
X135396842Y-74139133D01*
X135396841Y-74139133D01*
X135392084Y-74136714D01*
X135253299Y-74093620D01*
X135174807Y-74069247D01*
X135174801Y-74069246D01*
X135169704Y-74067663D01*
X134945206Y-74037908D01*
X134926919Y-74029799D01*
X134920544Y-74033896D01*
X134889773Y-74038911D01*
X134706178Y-74045803D01*
X134623474Y-74063156D01*
X134483514Y-74092523D01*
X134483511Y-74092524D01*
X134478287Y-74093620D01*
X134261710Y-74179150D01*
X134062641Y-74299949D01*
X133886770Y-74452561D01*
X133883387Y-74456687D01*
X133883383Y-74456691D01*
X133810262Y-74545869D01*
X133739128Y-74632624D01*
X133736489Y-74637260D01*
X133736487Y-74637263D01*
X133713155Y-74678252D01*
X133662073Y-74727558D01*
X133592442Y-74741420D01*
X133526371Y-74715437D01*
X133499133Y-74686287D01*
X133410176Y-74554155D01*
X133407196Y-74549728D01*
X133246468Y-74381242D01*
X133059650Y-74242246D01*
X132935549Y-74179150D01*
X132856842Y-74139133D01*
X132856841Y-74139133D01*
X132852084Y-74136714D01*
X132713299Y-74093620D01*
X132634807Y-74069247D01*
X132634801Y-74069246D01*
X132629704Y-74067663D01*
X132405206Y-74037908D01*
X132386919Y-74029799D01*
X132380544Y-74033896D01*
X132349773Y-74038911D01*
X132166178Y-74045803D01*
X132083474Y-74063156D01*
X131943514Y-74092523D01*
X131943511Y-74092524D01*
X131938287Y-74093620D01*
X131721710Y-74179150D01*
X131522641Y-74299949D01*
X131346770Y-74452561D01*
X131343387Y-74456687D01*
X131343383Y-74456691D01*
X131270262Y-74545869D01*
X131199128Y-74632624D01*
X131196489Y-74637260D01*
X131196487Y-74637263D01*
X131173155Y-74678252D01*
X131122073Y-74727558D01*
X131052442Y-74741420D01*
X130986371Y-74715437D01*
X130959133Y-74686287D01*
X130870176Y-74554155D01*
X130867196Y-74549728D01*
X130706468Y-74381242D01*
X130519650Y-74242246D01*
X130395549Y-74179150D01*
X130316842Y-74139133D01*
X130316841Y-74139133D01*
X130312084Y-74136714D01*
X130173299Y-74093620D01*
X130094807Y-74069247D01*
X130094801Y-74069246D01*
X130089704Y-74067663D01*
X129865206Y-74037908D01*
X129846919Y-74029799D01*
X129840544Y-74033896D01*
X129809773Y-74038911D01*
X129626178Y-74045803D01*
X129543474Y-74063156D01*
X129403514Y-74092523D01*
X129403511Y-74092524D01*
X129398287Y-74093620D01*
X129181710Y-74179150D01*
X128982641Y-74299949D01*
X128806770Y-74452561D01*
X128803387Y-74456687D01*
X128803383Y-74456691D01*
X128730262Y-74545869D01*
X128659128Y-74632624D01*
X128656489Y-74637260D01*
X128656487Y-74637263D01*
X128560597Y-74805719D01*
X128543935Y-74834989D01*
X128542114Y-74840005D01*
X128542112Y-74840010D01*
X128500302Y-74955194D01*
X128464485Y-75053869D01*
X128423050Y-75283007D01*
X128421900Y-75307394D01*
X128421900Y-75775868D01*
X128422125Y-75778517D01*
X128435559Y-75936840D01*
X128436626Y-75949420D01*
X128437964Y-75954577D01*
X128437965Y-75954580D01*
X128486533Y-76141702D01*
X128495125Y-76174806D01*
X128590762Y-76387113D01*
X128720804Y-76580272D01*
X128881532Y-76748758D01*
X129068350Y-76887754D01*
X129073102Y-76890170D01*
X129196310Y-76952812D01*
X129275916Y-76993286D01*
X129387106Y-77027811D01*
X129493193Y-77060753D01*
X129493199Y-77060754D01*
X129498296Y-77062337D01*
X129607433Y-77076802D01*
X129723848Y-77092232D01*
X129723852Y-77092232D01*
X129729132Y-77092932D01*
X129734462Y-77092732D01*
X129734463Y-77092732D01*
X129845477Y-77088564D01*
X129961822Y-77084197D01*
X130044526Y-77066844D01*
X130184486Y-77037477D01*
X130184489Y-77037476D01*
X130189713Y-77036380D01*
X130406290Y-76950850D01*
X130605359Y-76830051D01*
X130609389Y-76826554D01*
X130777197Y-76680939D01*
X130777199Y-76680937D01*
X130781230Y-76677439D01*
X130784613Y-76673313D01*
X130784617Y-76673309D01*
X130925487Y-76501504D01*
X130928872Y-76497376D01*
X130954845Y-76451748D01*
X131005927Y-76402442D01*
X131075558Y-76388580D01*
X131141629Y-76414563D01*
X131168867Y-76443713D01*
X131260804Y-76580272D01*
X131421532Y-76748758D01*
X131608350Y-76887754D01*
X131613102Y-76890170D01*
X131736310Y-76952812D01*
X131815916Y-76993286D01*
X131927106Y-77027811D01*
X132033193Y-77060753D01*
X132033199Y-77060754D01*
X132038296Y-77062337D01*
X132147433Y-77076802D01*
X132263848Y-77092232D01*
X132263852Y-77092232D01*
X132269132Y-77092932D01*
X132274462Y-77092732D01*
X132274463Y-77092732D01*
X132385477Y-77088564D01*
X132501822Y-77084197D01*
X132584526Y-77066844D01*
X132724486Y-77037477D01*
X132724489Y-77037476D01*
X132729713Y-77036380D01*
X132946290Y-76950850D01*
X133145359Y-76830051D01*
X133149389Y-76826554D01*
X133317197Y-76680939D01*
X133317199Y-76680937D01*
X133321230Y-76677439D01*
X133324613Y-76673313D01*
X133324617Y-76673309D01*
X133465487Y-76501504D01*
X133468872Y-76497376D01*
X133494845Y-76451748D01*
X133545927Y-76402442D01*
X133615558Y-76388580D01*
X133681629Y-76414563D01*
X133708867Y-76443713D01*
X133800804Y-76580272D01*
X133961532Y-76748758D01*
X134148350Y-76887754D01*
X134153102Y-76890170D01*
X134276310Y-76952812D01*
X134355916Y-76993286D01*
X134467106Y-77027811D01*
X134573193Y-77060753D01*
X134573199Y-77060754D01*
X134578296Y-77062337D01*
X134687433Y-77076802D01*
X134803848Y-77092232D01*
X134803852Y-77092232D01*
X134809132Y-77092932D01*
X134814462Y-77092732D01*
X134814463Y-77092732D01*
X134925477Y-77088564D01*
X135041822Y-77084197D01*
X135124526Y-77066844D01*
X135264486Y-77037477D01*
X135264489Y-77037476D01*
X135269713Y-77036380D01*
X135486290Y-76950850D01*
X135685359Y-76830051D01*
X135689389Y-76826554D01*
X135857197Y-76680939D01*
X135857199Y-76680937D01*
X135861230Y-76677439D01*
X135864613Y-76673313D01*
X135864617Y-76673309D01*
X136005487Y-76501504D01*
X136008872Y-76497376D01*
X136034845Y-76451748D01*
X136085927Y-76402442D01*
X136155558Y-76388580D01*
X136221629Y-76414563D01*
X136248867Y-76443713D01*
X136340804Y-76580272D01*
X136501532Y-76748758D01*
X136688350Y-76887754D01*
X136693102Y-76890170D01*
X136816310Y-76952812D01*
X136895916Y-76993286D01*
X137007106Y-77027811D01*
X137113193Y-77060753D01*
X137113199Y-77060754D01*
X137118296Y-77062337D01*
X137227433Y-77076802D01*
X137343848Y-77092232D01*
X137343852Y-77092232D01*
X137349132Y-77092932D01*
X137354462Y-77092732D01*
X137354463Y-77092732D01*
X137465477Y-77088564D01*
X137581822Y-77084197D01*
X137664526Y-77066844D01*
X137804486Y-77037477D01*
X137804489Y-77037476D01*
X137809713Y-77036380D01*
X138026290Y-76950850D01*
X138225359Y-76830051D01*
X138229389Y-76826554D01*
X138397197Y-76680939D01*
X138397199Y-76680937D01*
X138401230Y-76677439D01*
X138404613Y-76673313D01*
X138404617Y-76673309D01*
X138545487Y-76501504D01*
X138548872Y-76497376D01*
X138574845Y-76451748D01*
X138625927Y-76402442D01*
X138695558Y-76388580D01*
X138761629Y-76414563D01*
X138788867Y-76443713D01*
X138880804Y-76580272D01*
X139041532Y-76748758D01*
X139045817Y-76751946D01*
X139045818Y-76751947D01*
X139144713Y-76825527D01*
X139187426Y-76882237D01*
X139195500Y-76926616D01*
X139195500Y-76976629D01*
X139175498Y-77044750D01*
X139158595Y-77065724D01*
X138406724Y-77817595D01*
X138344412Y-77851621D01*
X138317629Y-77854500D01*
X136211070Y-77854500D01*
X136192120Y-77853067D01*
X136177885Y-77850901D01*
X136177881Y-77850901D01*
X136170651Y-77849801D01*
X136163359Y-77850394D01*
X136163356Y-77850394D01*
X136117982Y-77854085D01*
X136107767Y-77854500D01*
X136099707Y-77854500D01*
X136096073Y-77854924D01*
X136096067Y-77854924D01*
X136083042Y-77856443D01*
X136071480Y-77857791D01*
X136067132Y-77858221D01*
X135994364Y-77864140D01*
X135987403Y-77866395D01*
X135981463Y-77867582D01*
X135975588Y-77868971D01*
X135968319Y-77869818D01*
X135899670Y-77894736D01*
X135895542Y-77896153D01*
X135833064Y-77916393D01*
X135833062Y-77916394D01*
X135826101Y-77918649D01*
X135819846Y-77922445D01*
X135814372Y-77924951D01*
X135808942Y-77927670D01*
X135802063Y-77930167D01*
X135795943Y-77934180D01*
X135795942Y-77934180D01*
X135741024Y-77970186D01*
X135737320Y-77972523D01*
X135674893Y-78010405D01*
X135666516Y-78017803D01*
X135666492Y-78017776D01*
X135663500Y-78020429D01*
X135660267Y-78023132D01*
X135654148Y-78027144D01*
X135649116Y-78032456D01*
X135600872Y-78083383D01*
X135598494Y-78085825D01*
X132861089Y-80823230D01*
X132846677Y-80835616D01*
X132835082Y-80844149D01*
X132835077Y-80844154D01*
X132829182Y-80848492D01*
X132824443Y-80854070D01*
X132824440Y-80854073D01*
X132794965Y-80888768D01*
X132788035Y-80896284D01*
X132782340Y-80901979D01*
X132780060Y-80904861D01*
X132764719Y-80924251D01*
X132761928Y-80927655D01*
X132719409Y-80977703D01*
X132714667Y-80983285D01*
X132711339Y-80989801D01*
X132707972Y-80994850D01*
X132704805Y-80999979D01*
X132700266Y-81005716D01*
X132669345Y-81071875D01*
X132667442Y-81075769D01*
X132634231Y-81140808D01*
X132632492Y-81147916D01*
X132630393Y-81153559D01*
X132628476Y-81159322D01*
X132625378Y-81165950D01*
X132612983Y-81225544D01*
X132610514Y-81237412D01*
X132609544Y-81241696D01*
X132592192Y-81312610D01*
X132591500Y-81323764D01*
X132591464Y-81323762D01*
X132591225Y-81327755D01*
X132590851Y-81331947D01*
X132589360Y-81339115D01*
X132589558Y-81346432D01*
X132591454Y-81416521D01*
X132591500Y-81419928D01*
X132591500Y-81738655D01*
X132571498Y-81806776D01*
X132541153Y-81839415D01*
X132523872Y-81852390D01*
X132444965Y-81911635D01*
X132290629Y-82073138D01*
X132183201Y-82230621D01*
X132128293Y-82275621D01*
X132057768Y-82283792D01*
X131994021Y-82252538D01*
X131973324Y-82228054D01*
X131892822Y-82103617D01*
X131892820Y-82103614D01*
X131890014Y-82099277D01*
X131739670Y-81934051D01*
X131735619Y-81930852D01*
X131735615Y-81930848D01*
X131568414Y-81798800D01*
X131568410Y-81798798D01*
X131564359Y-81795598D01*
X131368789Y-81687638D01*
X131363920Y-81685914D01*
X131363916Y-81685912D01*
X131163087Y-81614795D01*
X131163083Y-81614794D01*
X131158212Y-81613069D01*
X131153119Y-81612162D01*
X131153116Y-81612161D01*
X130943373Y-81574800D01*
X130943367Y-81574799D01*
X130938284Y-81573894D01*
X130864452Y-81572992D01*
X130720081Y-81571228D01*
X130720079Y-81571228D01*
X130714911Y-81571165D01*
X130494091Y-81604955D01*
X130281756Y-81674357D01*
X130083607Y-81777507D01*
X130079474Y-81780610D01*
X130079471Y-81780612D01*
X130001153Y-81839415D01*
X129904965Y-81911635D01*
X129750629Y-82073138D01*
X129643201Y-82230621D01*
X129588293Y-82275621D01*
X129517768Y-82283792D01*
X129454021Y-82252538D01*
X129433324Y-82228054D01*
X129352822Y-82103617D01*
X129352820Y-82103614D01*
X129350014Y-82099277D01*
X129199670Y-81934051D01*
X129195619Y-81930852D01*
X129195615Y-81930848D01*
X129028414Y-81798800D01*
X129028410Y-81798798D01*
X129024359Y-81795598D01*
X128828789Y-81687638D01*
X128823920Y-81685914D01*
X128823916Y-81685912D01*
X128623087Y-81614795D01*
X128623083Y-81614794D01*
X128618212Y-81613069D01*
X128613119Y-81612162D01*
X128613116Y-81612161D01*
X128403373Y-81574800D01*
X128403367Y-81574799D01*
X128398284Y-81573894D01*
X128324452Y-81572992D01*
X128180081Y-81571228D01*
X128180079Y-81571228D01*
X128174911Y-81571165D01*
X127954091Y-81604955D01*
X127741756Y-81674357D01*
X127543607Y-81777507D01*
X127539474Y-81780610D01*
X127539471Y-81780612D01*
X127461153Y-81839415D01*
X127364965Y-81911635D01*
X127361393Y-81915373D01*
X127283898Y-81996466D01*
X127222374Y-82031895D01*
X127151462Y-82028438D01*
X127093676Y-81987192D01*
X127074823Y-81953644D01*
X127033324Y-81842946D01*
X127024786Y-81827351D01*
X126948285Y-81725276D01*
X126935724Y-81712715D01*
X126833649Y-81636214D01*
X126818054Y-81627676D01*
X126697606Y-81582522D01*
X126682351Y-81578895D01*
X126631486Y-81573369D01*
X126624672Y-81573000D01*
X126002115Y-81573000D01*
X125986876Y-81577475D01*
X125985671Y-81578865D01*
X125984000Y-81586548D01*
X125984000Y-84270884D01*
X125988475Y-84286123D01*
X125989865Y-84287328D01*
X125997548Y-84288999D01*
X126624669Y-84288999D01*
X126631490Y-84288629D01*
X126682352Y-84283105D01*
X126697604Y-84279479D01*
X126818054Y-84234324D01*
X126833649Y-84225786D01*
X126935724Y-84149285D01*
X126948285Y-84136724D01*
X127024786Y-84034649D01*
X127033324Y-84019054D01*
X127074225Y-83909952D01*
X127116867Y-83853188D01*
X127183428Y-83828488D01*
X127252777Y-83843696D01*
X127287444Y-83871684D01*
X127312865Y-83901031D01*
X127312869Y-83901035D01*
X127316250Y-83904938D01*
X127488126Y-84047632D01*
X127681000Y-84160338D01*
X127889692Y-84240030D01*
X127894760Y-84241061D01*
X127894763Y-84241062D01*
X128002017Y-84262883D01*
X128108597Y-84284567D01*
X128113772Y-84284757D01*
X128113774Y-84284757D01*
X128326673Y-84292564D01*
X128326677Y-84292564D01*
X128331837Y-84292753D01*
X128336957Y-84292097D01*
X128336959Y-84292097D01*
X128548288Y-84265025D01*
X128548289Y-84265025D01*
X128553416Y-84264368D01*
X128558366Y-84262883D01*
X128762429Y-84201661D01*
X128762434Y-84201659D01*
X128767384Y-84200174D01*
X128967994Y-84101896D01*
X129149860Y-83972173D01*
X129308096Y-83814489D01*
X129438453Y-83633077D01*
X129439776Y-83634028D01*
X129486645Y-83590857D01*
X129556580Y-83578625D01*
X129622026Y-83606144D01*
X129649875Y-83637994D01*
X129709987Y-83736088D01*
X129856250Y-83904938D01*
X130028126Y-84047632D01*
X130221000Y-84160338D01*
X130429692Y-84240030D01*
X130434760Y-84241061D01*
X130434763Y-84241062D01*
X130542017Y-84262883D01*
X130648597Y-84284567D01*
X130653772Y-84284757D01*
X130653774Y-84284757D01*
X130866673Y-84292564D01*
X130866677Y-84292564D01*
X130871837Y-84292753D01*
X130876957Y-84292097D01*
X130876959Y-84292097D01*
X131088288Y-84265025D01*
X131088289Y-84265025D01*
X131093416Y-84264368D01*
X131098366Y-84262883D01*
X131302429Y-84201661D01*
X131302434Y-84201659D01*
X131307384Y-84200174D01*
X131507994Y-84101896D01*
X131689860Y-83972173D01*
X131848096Y-83814489D01*
X131978453Y-83633077D01*
X131979776Y-83634028D01*
X132026645Y-83590857D01*
X132096580Y-83578625D01*
X132162026Y-83606144D01*
X132189875Y-83637994D01*
X132249987Y-83736088D01*
X132396250Y-83904938D01*
X132543831Y-84027462D01*
X132545985Y-84029250D01*
X132585620Y-84088152D01*
X132591500Y-84126194D01*
X132591500Y-86818655D01*
X132571498Y-86886776D01*
X132541153Y-86919415D01*
X132523872Y-86932390D01*
X132444965Y-86991635D01*
X132290629Y-87153138D01*
X132183201Y-87310621D01*
X132128293Y-87355621D01*
X132057768Y-87363792D01*
X131994021Y-87332538D01*
X131973324Y-87308054D01*
X131892822Y-87183617D01*
X131892820Y-87183614D01*
X131890014Y-87179277D01*
X131739670Y-87014051D01*
X131735619Y-87010852D01*
X131735615Y-87010848D01*
X131568414Y-86878800D01*
X131568410Y-86878798D01*
X131564359Y-86875598D01*
X131368789Y-86767638D01*
X131363920Y-86765914D01*
X131363916Y-86765912D01*
X131163087Y-86694795D01*
X131163083Y-86694794D01*
X131158212Y-86693069D01*
X131153119Y-86692162D01*
X131153116Y-86692161D01*
X130943373Y-86654800D01*
X130943367Y-86654799D01*
X130938284Y-86653894D01*
X130864452Y-86652992D01*
X130720081Y-86651228D01*
X130720079Y-86651228D01*
X130714911Y-86651165D01*
X130494091Y-86684955D01*
X130281756Y-86754357D01*
X130083607Y-86857507D01*
X130079474Y-86860610D01*
X130079471Y-86860612D01*
X129939695Y-86965559D01*
X129904965Y-86991635D01*
X129750629Y-87153138D01*
X129643201Y-87310621D01*
X129588293Y-87355621D01*
X129517768Y-87363792D01*
X129454021Y-87332538D01*
X129433324Y-87308054D01*
X129352822Y-87183617D01*
X129352820Y-87183614D01*
X129350014Y-87179277D01*
X129199670Y-87014051D01*
X129195619Y-87010852D01*
X129195615Y-87010848D01*
X129028414Y-86878800D01*
X129028410Y-86878798D01*
X129024359Y-86875598D01*
X128828789Y-86767638D01*
X128823920Y-86765914D01*
X128823916Y-86765912D01*
X128623087Y-86694795D01*
X128623083Y-86694794D01*
X128618212Y-86693069D01*
X128613119Y-86692162D01*
X128613116Y-86692161D01*
X128403373Y-86654800D01*
X128403367Y-86654799D01*
X128398284Y-86653894D01*
X128324452Y-86652992D01*
X128180081Y-86651228D01*
X128180079Y-86651228D01*
X128174911Y-86651165D01*
X127954091Y-86684955D01*
X127741756Y-86754357D01*
X127543607Y-86857507D01*
X127539474Y-86860610D01*
X127539471Y-86860612D01*
X127399695Y-86965559D01*
X127364965Y-86991635D01*
X127361393Y-86995373D01*
X127283898Y-87076466D01*
X127222374Y-87111895D01*
X127151462Y-87108438D01*
X127093676Y-87067192D01*
X127074823Y-87033644D01*
X127033324Y-86922946D01*
X127024786Y-86907351D01*
X126948285Y-86805276D01*
X126935724Y-86792715D01*
X126833649Y-86716214D01*
X126818054Y-86707676D01*
X126697606Y-86662522D01*
X126682351Y-86658895D01*
X126631486Y-86653369D01*
X126624672Y-86653000D01*
X126002115Y-86653000D01*
X125986876Y-86657475D01*
X125985671Y-86658865D01*
X125984000Y-86666548D01*
X125984000Y-89350884D01*
X125988475Y-89366123D01*
X125989865Y-89367328D01*
X125997548Y-89368999D01*
X126624669Y-89368999D01*
X126631490Y-89368629D01*
X126682352Y-89363105D01*
X126697604Y-89359479D01*
X126818054Y-89314324D01*
X126833649Y-89305786D01*
X126935724Y-89229285D01*
X126948285Y-89216724D01*
X127024786Y-89114649D01*
X127033324Y-89099054D01*
X127074225Y-88989952D01*
X127116867Y-88933188D01*
X127183428Y-88908488D01*
X127252777Y-88923696D01*
X127287444Y-88951684D01*
X127312865Y-88981031D01*
X127312869Y-88981035D01*
X127316250Y-88984938D01*
X127488126Y-89127632D01*
X127681000Y-89240338D01*
X127889692Y-89320030D01*
X127894760Y-89321061D01*
X127894763Y-89321062D01*
X128002017Y-89342883D01*
X128108597Y-89364567D01*
X128113772Y-89364757D01*
X128113774Y-89364757D01*
X128326673Y-89372564D01*
X128326677Y-89372564D01*
X128331837Y-89372753D01*
X128336957Y-89372097D01*
X128336959Y-89372097D01*
X128548288Y-89345025D01*
X128548289Y-89345025D01*
X128553416Y-89344368D01*
X128558366Y-89342883D01*
X128762429Y-89281661D01*
X128762434Y-89281659D01*
X128767384Y-89280174D01*
X128967994Y-89181896D01*
X129149860Y-89052173D01*
X129308096Y-88894489D01*
X129438453Y-88713077D01*
X129439776Y-88714028D01*
X129486645Y-88670857D01*
X129556580Y-88658625D01*
X129622026Y-88686144D01*
X129649875Y-88717994D01*
X129709987Y-88816088D01*
X129856250Y-88984938D01*
X130028126Y-89127632D01*
X130221000Y-89240338D01*
X130429692Y-89320030D01*
X130434760Y-89321061D01*
X130434763Y-89321062D01*
X130542017Y-89342883D01*
X130648597Y-89364567D01*
X130653772Y-89364757D01*
X130653774Y-89364757D01*
X130866673Y-89372564D01*
X130866677Y-89372564D01*
X130871837Y-89372753D01*
X130876957Y-89372097D01*
X130876959Y-89372097D01*
X131088288Y-89345025D01*
X131088289Y-89345025D01*
X131093416Y-89344368D01*
X131098366Y-89342883D01*
X131302429Y-89281661D01*
X131302434Y-89281659D01*
X131307384Y-89280174D01*
X131507994Y-89181896D01*
X131689860Y-89052173D01*
X131848096Y-88894489D01*
X131978453Y-88713077D01*
X131979776Y-88714028D01*
X132026645Y-88670857D01*
X132096580Y-88658625D01*
X132162026Y-88686144D01*
X132189875Y-88717994D01*
X132249987Y-88816088D01*
X132396250Y-88984938D01*
X132543831Y-89107462D01*
X132545985Y-89109250D01*
X132585620Y-89168152D01*
X132591500Y-89206194D01*
X132591500Y-91898655D01*
X132571498Y-91966776D01*
X132541153Y-91999415D01*
X132479695Y-92045559D01*
X132444965Y-92071635D01*
X132290629Y-92233138D01*
X132183201Y-92390621D01*
X132128293Y-92435621D01*
X132057768Y-92443792D01*
X131994021Y-92412538D01*
X131973324Y-92388054D01*
X131892822Y-92263617D01*
X131892820Y-92263614D01*
X131890014Y-92259277D01*
X131739670Y-92094051D01*
X131735619Y-92090852D01*
X131735615Y-92090848D01*
X131568414Y-91958800D01*
X131568410Y-91958798D01*
X131564359Y-91955598D01*
X131368789Y-91847638D01*
X131363920Y-91845914D01*
X131363916Y-91845912D01*
X131163087Y-91774795D01*
X131163083Y-91774794D01*
X131158212Y-91773069D01*
X131153119Y-91772162D01*
X131153116Y-91772161D01*
X130943373Y-91734800D01*
X130943367Y-91734799D01*
X130938284Y-91733894D01*
X130864452Y-91732992D01*
X130720081Y-91731228D01*
X130720079Y-91731228D01*
X130714911Y-91731165D01*
X130494091Y-91764955D01*
X130281756Y-91834357D01*
X130083607Y-91937507D01*
X130079474Y-91940610D01*
X130079471Y-91940612D01*
X129909100Y-92068530D01*
X129904965Y-92071635D01*
X129750629Y-92233138D01*
X129643201Y-92390621D01*
X129588293Y-92435621D01*
X129517768Y-92443792D01*
X129454021Y-92412538D01*
X129433324Y-92388054D01*
X129352822Y-92263617D01*
X129352820Y-92263614D01*
X129350014Y-92259277D01*
X129199670Y-92094051D01*
X129195619Y-92090852D01*
X129195615Y-92090848D01*
X129028414Y-91958800D01*
X129028410Y-91958798D01*
X129024359Y-91955598D01*
X128828789Y-91847638D01*
X128823920Y-91845914D01*
X128823916Y-91845912D01*
X128623087Y-91774795D01*
X128623083Y-91774794D01*
X128618212Y-91773069D01*
X128613119Y-91772162D01*
X128613116Y-91772161D01*
X128403373Y-91734800D01*
X128403367Y-91734799D01*
X128398284Y-91733894D01*
X128324452Y-91732992D01*
X128180081Y-91731228D01*
X128180079Y-91731228D01*
X128174911Y-91731165D01*
X127954091Y-91764955D01*
X127741756Y-91834357D01*
X127543607Y-91937507D01*
X127539474Y-91940610D01*
X127539471Y-91940612D01*
X127369100Y-92068530D01*
X127364965Y-92071635D01*
X127361393Y-92075373D01*
X127283898Y-92156466D01*
X127222374Y-92191895D01*
X127151462Y-92188438D01*
X127093676Y-92147192D01*
X127074823Y-92113644D01*
X127033324Y-92002946D01*
X127024786Y-91987351D01*
X126948285Y-91885276D01*
X126935724Y-91872715D01*
X126833649Y-91796214D01*
X126818054Y-91787676D01*
X126697606Y-91742522D01*
X126682351Y-91738895D01*
X126631486Y-91733369D01*
X126624672Y-91733000D01*
X126002115Y-91733000D01*
X125986876Y-91737475D01*
X125985671Y-91738865D01*
X125984000Y-91746548D01*
X125984000Y-94430884D01*
X125988475Y-94446123D01*
X125989865Y-94447328D01*
X125997548Y-94448999D01*
X126624669Y-94448999D01*
X126631490Y-94448629D01*
X126682352Y-94443105D01*
X126697604Y-94439479D01*
X126818054Y-94394324D01*
X126833649Y-94385786D01*
X126935724Y-94309285D01*
X126948285Y-94296724D01*
X127024786Y-94194649D01*
X127033324Y-94179054D01*
X127074225Y-94069952D01*
X127116867Y-94013188D01*
X127183428Y-93988488D01*
X127252777Y-94003696D01*
X127287444Y-94031684D01*
X127312865Y-94061031D01*
X127312869Y-94061035D01*
X127316250Y-94064938D01*
X127488126Y-94207632D01*
X127681000Y-94320338D01*
X127889692Y-94400030D01*
X127894760Y-94401061D01*
X127894763Y-94401062D01*
X128002017Y-94422883D01*
X128108597Y-94444567D01*
X128113772Y-94444757D01*
X128113774Y-94444757D01*
X128326673Y-94452564D01*
X128326677Y-94452564D01*
X128331837Y-94452753D01*
X128336957Y-94452097D01*
X128336959Y-94452097D01*
X128548288Y-94425025D01*
X128548289Y-94425025D01*
X128553416Y-94424368D01*
X128558366Y-94422883D01*
X128762429Y-94361661D01*
X128762434Y-94361659D01*
X128767384Y-94360174D01*
X128967994Y-94261896D01*
X129149860Y-94132173D01*
X129308096Y-93974489D01*
X129438453Y-93793077D01*
X129439776Y-93794028D01*
X129486645Y-93750857D01*
X129556580Y-93738625D01*
X129622026Y-93766144D01*
X129649875Y-93797994D01*
X129709987Y-93896088D01*
X129856250Y-94064938D01*
X130028126Y-94207632D01*
X130221000Y-94320338D01*
X130429692Y-94400030D01*
X130434760Y-94401061D01*
X130434763Y-94401062D01*
X130542017Y-94422883D01*
X130648597Y-94444567D01*
X130653772Y-94444757D01*
X130653774Y-94444757D01*
X130866673Y-94452564D01*
X130866677Y-94452564D01*
X130871837Y-94452753D01*
X130876957Y-94452097D01*
X130876959Y-94452097D01*
X131088288Y-94425025D01*
X131088289Y-94425025D01*
X131093416Y-94424368D01*
X131098366Y-94422883D01*
X131302429Y-94361661D01*
X131302434Y-94361659D01*
X131307384Y-94360174D01*
X131507994Y-94261896D01*
X131689860Y-94132173D01*
X131848096Y-93974489D01*
X131978453Y-93793077D01*
X131979776Y-93794028D01*
X132026645Y-93750857D01*
X132096580Y-93738625D01*
X132162026Y-93766144D01*
X132189875Y-93797994D01*
X132249987Y-93896088D01*
X132396250Y-94064938D01*
X132543831Y-94187462D01*
X132545985Y-94189250D01*
X132585620Y-94248152D01*
X132591500Y-94286194D01*
X132591500Y-96978655D01*
X132571498Y-97046776D01*
X132541153Y-97079415D01*
X132479695Y-97125559D01*
X132444965Y-97151635D01*
X132290629Y-97313138D01*
X132183201Y-97470621D01*
X132128293Y-97515621D01*
X132057768Y-97523792D01*
X131994021Y-97492538D01*
X131973324Y-97468054D01*
X131892822Y-97343617D01*
X131892820Y-97343614D01*
X131890014Y-97339277D01*
X131739670Y-97174051D01*
X131735619Y-97170852D01*
X131735615Y-97170848D01*
X131568414Y-97038800D01*
X131568410Y-97038798D01*
X131564359Y-97035598D01*
X131368789Y-96927638D01*
X131363920Y-96925914D01*
X131363916Y-96925912D01*
X131163087Y-96854795D01*
X131163083Y-96854794D01*
X131158212Y-96853069D01*
X131153119Y-96852162D01*
X131153116Y-96852161D01*
X130943373Y-96814800D01*
X130943367Y-96814799D01*
X130938284Y-96813894D01*
X130864452Y-96812992D01*
X130720081Y-96811228D01*
X130720079Y-96811228D01*
X130714911Y-96811165D01*
X130494091Y-96844955D01*
X130281756Y-96914357D01*
X130083607Y-97017507D01*
X130079474Y-97020610D01*
X130079471Y-97020612D01*
X129909100Y-97148530D01*
X129904965Y-97151635D01*
X129750629Y-97313138D01*
X129643201Y-97470621D01*
X129588293Y-97515621D01*
X129517768Y-97523792D01*
X129454021Y-97492538D01*
X129433324Y-97468054D01*
X129352822Y-97343617D01*
X129352820Y-97343614D01*
X129350014Y-97339277D01*
X129199670Y-97174051D01*
X129195619Y-97170852D01*
X129195615Y-97170848D01*
X129028414Y-97038800D01*
X129028410Y-97038798D01*
X129024359Y-97035598D01*
X128828789Y-96927638D01*
X128823920Y-96925914D01*
X128823916Y-96925912D01*
X128623087Y-96854795D01*
X128623083Y-96854794D01*
X128618212Y-96853069D01*
X128613119Y-96852162D01*
X128613116Y-96852161D01*
X128403373Y-96814800D01*
X128403367Y-96814799D01*
X128398284Y-96813894D01*
X128324452Y-96812992D01*
X128180081Y-96811228D01*
X128180079Y-96811228D01*
X128174911Y-96811165D01*
X127954091Y-96844955D01*
X127741756Y-96914357D01*
X127543607Y-97017507D01*
X127539474Y-97020610D01*
X127539471Y-97020612D01*
X127369100Y-97148530D01*
X127364965Y-97151635D01*
X127361393Y-97155373D01*
X127283898Y-97236466D01*
X127222374Y-97271895D01*
X127151462Y-97268438D01*
X127093676Y-97227192D01*
X127074823Y-97193644D01*
X127033324Y-97082946D01*
X127024786Y-97067351D01*
X126948285Y-96965276D01*
X126935724Y-96952715D01*
X126833649Y-96876214D01*
X126818054Y-96867676D01*
X126697606Y-96822522D01*
X126682351Y-96818895D01*
X126631486Y-96813369D01*
X126624672Y-96813000D01*
X126002115Y-96813000D01*
X125986876Y-96817475D01*
X125985671Y-96818865D01*
X125984000Y-96826548D01*
X125984000Y-99510884D01*
X125988475Y-99526123D01*
X125989865Y-99527328D01*
X125997548Y-99528999D01*
X126624669Y-99528999D01*
X126631490Y-99528629D01*
X126682352Y-99523105D01*
X126697604Y-99519479D01*
X126818054Y-99474324D01*
X126833649Y-99465786D01*
X126935724Y-99389285D01*
X126948285Y-99376724D01*
X127024786Y-99274649D01*
X127033324Y-99259054D01*
X127074225Y-99149952D01*
X127116867Y-99093188D01*
X127183428Y-99068488D01*
X127252777Y-99083696D01*
X127287444Y-99111684D01*
X127312865Y-99141031D01*
X127312869Y-99141035D01*
X127316250Y-99144938D01*
X127488126Y-99287632D01*
X127681000Y-99400338D01*
X127685825Y-99402180D01*
X127685826Y-99402181D01*
X127750098Y-99426724D01*
X127889692Y-99480030D01*
X127894760Y-99481061D01*
X127894763Y-99481062D01*
X128002017Y-99502883D01*
X128108597Y-99524567D01*
X128113772Y-99524757D01*
X128113774Y-99524757D01*
X128326673Y-99532564D01*
X128326677Y-99532564D01*
X128331837Y-99532753D01*
X128336957Y-99532097D01*
X128336959Y-99532097D01*
X128548288Y-99505025D01*
X128548289Y-99505025D01*
X128553416Y-99504368D01*
X128615696Y-99485683D01*
X128762429Y-99441661D01*
X128762434Y-99441659D01*
X128767384Y-99440174D01*
X128967994Y-99341896D01*
X129149860Y-99212173D01*
X129177210Y-99184919D01*
X129250701Y-99111684D01*
X129308096Y-99054489D01*
X129438453Y-98873077D01*
X129439776Y-98874028D01*
X129486645Y-98830857D01*
X129556580Y-98818625D01*
X129622026Y-98846144D01*
X129649875Y-98877994D01*
X129709987Y-98976088D01*
X129856250Y-99144938D01*
X130028126Y-99287632D01*
X130221000Y-99400338D01*
X130225825Y-99402180D01*
X130225826Y-99402181D01*
X130290098Y-99426724D01*
X130429692Y-99480030D01*
X130434760Y-99481061D01*
X130434763Y-99481062D01*
X130542017Y-99502883D01*
X130648597Y-99524567D01*
X130653772Y-99524757D01*
X130653774Y-99524757D01*
X130866673Y-99532564D01*
X130866677Y-99532564D01*
X130871837Y-99532753D01*
X130876957Y-99532097D01*
X130876959Y-99532097D01*
X131088288Y-99505025D01*
X131088289Y-99505025D01*
X131093416Y-99504368D01*
X131155696Y-99485683D01*
X131302429Y-99441661D01*
X131302434Y-99441659D01*
X131307384Y-99440174D01*
X131507994Y-99341896D01*
X131689860Y-99212173D01*
X131717210Y-99184919D01*
X131790701Y-99111684D01*
X131848096Y-99054489D01*
X131978453Y-98873077D01*
X131979776Y-98874028D01*
X132026645Y-98830857D01*
X132096580Y-98818625D01*
X132162026Y-98846144D01*
X132189875Y-98877994D01*
X132249987Y-98976088D01*
X132396250Y-99144938D01*
X132543831Y-99267462D01*
X132545985Y-99269250D01*
X132585620Y-99328152D01*
X132591500Y-99366194D01*
X132591500Y-102058655D01*
X132571498Y-102126776D01*
X132541153Y-102159415D01*
X132479695Y-102205559D01*
X132444965Y-102231635D01*
X132441393Y-102235373D01*
X132322166Y-102360137D01*
X132290629Y-102393138D01*
X132183201Y-102550621D01*
X132128293Y-102595621D01*
X132057768Y-102603792D01*
X131994021Y-102572538D01*
X131973324Y-102548054D01*
X131892822Y-102423617D01*
X131892820Y-102423614D01*
X131890014Y-102419277D01*
X131739670Y-102254051D01*
X131735619Y-102250852D01*
X131735615Y-102250848D01*
X131568414Y-102118800D01*
X131568410Y-102118798D01*
X131564359Y-102115598D01*
X131368789Y-102007638D01*
X131363920Y-102005914D01*
X131363916Y-102005912D01*
X131163087Y-101934795D01*
X131163083Y-101934794D01*
X131158212Y-101933069D01*
X131153119Y-101932162D01*
X131153116Y-101932161D01*
X130943373Y-101894800D01*
X130943367Y-101894799D01*
X130938284Y-101893894D01*
X130864452Y-101892992D01*
X130720081Y-101891228D01*
X130720079Y-101891228D01*
X130714911Y-101891165D01*
X130494091Y-101924955D01*
X130281756Y-101994357D01*
X130083607Y-102097507D01*
X130079474Y-102100610D01*
X130079471Y-102100612D01*
X129909100Y-102228530D01*
X129904965Y-102231635D01*
X129901393Y-102235373D01*
X129782166Y-102360137D01*
X129750629Y-102393138D01*
X129643201Y-102550621D01*
X129588293Y-102595621D01*
X129517768Y-102603792D01*
X129454021Y-102572538D01*
X129433324Y-102548054D01*
X129352822Y-102423617D01*
X129352820Y-102423614D01*
X129350014Y-102419277D01*
X129199670Y-102254051D01*
X129195619Y-102250852D01*
X129195615Y-102250848D01*
X129028414Y-102118800D01*
X129028410Y-102118798D01*
X129024359Y-102115598D01*
X128828789Y-102007638D01*
X128823920Y-102005914D01*
X128823916Y-102005912D01*
X128623087Y-101934795D01*
X128623083Y-101934794D01*
X128618212Y-101933069D01*
X128613119Y-101932162D01*
X128613116Y-101932161D01*
X128403373Y-101894800D01*
X128403367Y-101894799D01*
X128398284Y-101893894D01*
X128324452Y-101892992D01*
X128180081Y-101891228D01*
X128180079Y-101891228D01*
X128174911Y-101891165D01*
X127954091Y-101924955D01*
X127741756Y-101994357D01*
X127543607Y-102097507D01*
X127539474Y-102100610D01*
X127539471Y-102100612D01*
X127369100Y-102228530D01*
X127364965Y-102231635D01*
X127361393Y-102235373D01*
X127283898Y-102316466D01*
X127222374Y-102351895D01*
X127151462Y-102348438D01*
X127093676Y-102307192D01*
X127074823Y-102273644D01*
X127033324Y-102162946D01*
X127024786Y-102147351D01*
X126948285Y-102045276D01*
X126935724Y-102032715D01*
X126833649Y-101956214D01*
X126818054Y-101947676D01*
X126697606Y-101902522D01*
X126682351Y-101898895D01*
X126631486Y-101893369D01*
X126624672Y-101893000D01*
X126002115Y-101893000D01*
X125986876Y-101897475D01*
X125985671Y-101898865D01*
X125984000Y-101906548D01*
X125984000Y-103379000D01*
X125963998Y-103447121D01*
X125910342Y-103493614D01*
X125858000Y-103505000D01*
X125602000Y-103505000D01*
X125533879Y-103484998D01*
X125487386Y-103431342D01*
X125476000Y-103379000D01*
X125476000Y-101911116D01*
X125471525Y-101895877D01*
X125470135Y-101894672D01*
X125462452Y-101893001D01*
X124835331Y-101893001D01*
X124828510Y-101893371D01*
X124777648Y-101898895D01*
X124762396Y-101902521D01*
X124641946Y-101947676D01*
X124626351Y-101956214D01*
X124524276Y-102032715D01*
X124511715Y-102045276D01*
X124429828Y-102154538D01*
X124426984Y-102152407D01*
X124388766Y-102190542D01*
X124319376Y-102205559D01*
X124252883Y-102180677D01*
X124210397Y-102123796D01*
X124202500Y-102079890D01*
X124202500Y-99342110D01*
X124222502Y-99273989D01*
X124276158Y-99227496D01*
X124346432Y-99217392D01*
X124411012Y-99246886D01*
X124428447Y-99268497D01*
X124429828Y-99267462D01*
X124511715Y-99376724D01*
X124524276Y-99389285D01*
X124626351Y-99465786D01*
X124641946Y-99474324D01*
X124762394Y-99519478D01*
X124777649Y-99523105D01*
X124828514Y-99528631D01*
X124835328Y-99529000D01*
X125457885Y-99529000D01*
X125473124Y-99524525D01*
X125474329Y-99523135D01*
X125476000Y-99515452D01*
X125476000Y-96831116D01*
X125471525Y-96815877D01*
X125470135Y-96814672D01*
X125462452Y-96813001D01*
X124835331Y-96813001D01*
X124828510Y-96813371D01*
X124777648Y-96818895D01*
X124762396Y-96822521D01*
X124641946Y-96867676D01*
X124626351Y-96876214D01*
X124524276Y-96952715D01*
X124511715Y-96965276D01*
X124429828Y-97074538D01*
X124426984Y-97072407D01*
X124388766Y-97110542D01*
X124319376Y-97125559D01*
X124252883Y-97100677D01*
X124210397Y-97043796D01*
X124202500Y-96999890D01*
X124202500Y-94262110D01*
X124222502Y-94193989D01*
X124276158Y-94147496D01*
X124346432Y-94137392D01*
X124411012Y-94166886D01*
X124428447Y-94188497D01*
X124429828Y-94187462D01*
X124511715Y-94296724D01*
X124524276Y-94309285D01*
X124626351Y-94385786D01*
X124641946Y-94394324D01*
X124762394Y-94439478D01*
X124777649Y-94443105D01*
X124828514Y-94448631D01*
X124835328Y-94449000D01*
X125457885Y-94449000D01*
X125473124Y-94444525D01*
X125474329Y-94443135D01*
X125476000Y-94435452D01*
X125476000Y-91751116D01*
X125471525Y-91735877D01*
X125470135Y-91734672D01*
X125462452Y-91733001D01*
X124835331Y-91733001D01*
X124828510Y-91733371D01*
X124777648Y-91738895D01*
X124762396Y-91742521D01*
X124641946Y-91787676D01*
X124626351Y-91796214D01*
X124524276Y-91872715D01*
X124511715Y-91885276D01*
X124429828Y-91994538D01*
X124426984Y-91992407D01*
X124388766Y-92030542D01*
X124319376Y-92045559D01*
X124252883Y-92020677D01*
X124210397Y-91963796D01*
X124202500Y-91919890D01*
X124202500Y-89182110D01*
X124222502Y-89113989D01*
X124276158Y-89067496D01*
X124346432Y-89057392D01*
X124411012Y-89086886D01*
X124428447Y-89108497D01*
X124429828Y-89107462D01*
X124511715Y-89216724D01*
X124524276Y-89229285D01*
X124626351Y-89305786D01*
X124641946Y-89314324D01*
X124762394Y-89359478D01*
X124777649Y-89363105D01*
X124828514Y-89368631D01*
X124835328Y-89369000D01*
X125457885Y-89369000D01*
X125473124Y-89364525D01*
X125474329Y-89363135D01*
X125476000Y-89355452D01*
X125476000Y-86671116D01*
X125471525Y-86655877D01*
X125470135Y-86654672D01*
X125462452Y-86653001D01*
X124835331Y-86653001D01*
X124828510Y-86653371D01*
X124777648Y-86658895D01*
X124762396Y-86662521D01*
X124641946Y-86707676D01*
X124626351Y-86716214D01*
X124524276Y-86792715D01*
X124511715Y-86805276D01*
X124429828Y-86914538D01*
X124426984Y-86912407D01*
X124388766Y-86950542D01*
X124319376Y-86965559D01*
X124252883Y-86940677D01*
X124210397Y-86883796D01*
X124202500Y-86839890D01*
X124202500Y-84102110D01*
X124222502Y-84033989D01*
X124276158Y-83987496D01*
X124346432Y-83977392D01*
X124411012Y-84006886D01*
X124428447Y-84028497D01*
X124429828Y-84027462D01*
X124511715Y-84136724D01*
X124524276Y-84149285D01*
X124626351Y-84225786D01*
X124641946Y-84234324D01*
X124762394Y-84279478D01*
X124777649Y-84283105D01*
X124828514Y-84288631D01*
X124835328Y-84289000D01*
X125457885Y-84289000D01*
X125473124Y-84284525D01*
X125474329Y-84283135D01*
X125476000Y-84275452D01*
X125476000Y-81591116D01*
X125471525Y-81575877D01*
X125470135Y-81574672D01*
X125462452Y-81573001D01*
X124835331Y-81573001D01*
X124828510Y-81573371D01*
X124777648Y-81578895D01*
X124762396Y-81582521D01*
X124641946Y-81627676D01*
X124626351Y-81636214D01*
X124524276Y-81712715D01*
X124511715Y-81725276D01*
X124435214Y-81827351D01*
X124426676Y-81842946D01*
X124381522Y-81963394D01*
X124377895Y-81978649D01*
X124372369Y-82029514D01*
X124372000Y-82036328D01*
X124372000Y-82674622D01*
X124351998Y-82742743D01*
X124298342Y-82789236D01*
X124228068Y-82799340D01*
X124163488Y-82769846D01*
X124138269Y-82739966D01*
X124137847Y-82739270D01*
X124133055Y-82729265D01*
X124132608Y-82729489D01*
X124129331Y-82722944D01*
X124126833Y-82716063D01*
X124086809Y-82655016D01*
X124084472Y-82651312D01*
X124049509Y-82593693D01*
X124049505Y-82593688D01*
X124046595Y-82588892D01*
X124039197Y-82580516D01*
X124039223Y-82580493D01*
X124036574Y-82577503D01*
X124033866Y-82574264D01*
X124029856Y-82568148D01*
X124024549Y-82563121D01*
X124024546Y-82563117D01*
X123973617Y-82514872D01*
X123971175Y-82512494D01*
X119667405Y-78208724D01*
X119633379Y-78146412D01*
X119630500Y-78119629D01*
X119630500Y-77773632D01*
X119650502Y-77705511D01*
X119683331Y-77671054D01*
X119751860Y-77622173D01*
X119764887Y-77609192D01*
X119860479Y-77513933D01*
X119922851Y-77480017D01*
X119993658Y-77485205D01*
X120050419Y-77527851D01*
X120067401Y-77558954D01*
X120108676Y-77669054D01*
X120117214Y-77684649D01*
X120193715Y-77786724D01*
X120206276Y-77799285D01*
X120308351Y-77875786D01*
X120323946Y-77884324D01*
X120444394Y-77929478D01*
X120459649Y-77933105D01*
X120510514Y-77938631D01*
X120517328Y-77939000D01*
X121139885Y-77939000D01*
X121155124Y-77934525D01*
X121156329Y-77933135D01*
X121158000Y-77925452D01*
X121158000Y-77920884D01*
X121666000Y-77920884D01*
X121670475Y-77936123D01*
X121671865Y-77937328D01*
X121679548Y-77938999D01*
X122306669Y-77938999D01*
X122313490Y-77938629D01*
X122364352Y-77933105D01*
X122379604Y-77929479D01*
X122500054Y-77884324D01*
X122515649Y-77875786D01*
X122617724Y-77799285D01*
X122630285Y-77786724D01*
X122706786Y-77684649D01*
X122715324Y-77669054D01*
X122760478Y-77548606D01*
X122764105Y-77533351D01*
X122769631Y-77482486D01*
X122770000Y-77475672D01*
X122770000Y-76853115D01*
X122765525Y-76837876D01*
X122764135Y-76836671D01*
X122756452Y-76835000D01*
X121684115Y-76835000D01*
X121668876Y-76839475D01*
X121667671Y-76840865D01*
X121666000Y-76848548D01*
X121666000Y-77920884D01*
X121158000Y-77920884D01*
X121158000Y-76308885D01*
X121666000Y-76308885D01*
X121670475Y-76324124D01*
X121671865Y-76325329D01*
X121679548Y-76327000D01*
X122751884Y-76327000D01*
X122767123Y-76322525D01*
X122768328Y-76321135D01*
X122769999Y-76313452D01*
X122769999Y-75686331D01*
X122769629Y-75679510D01*
X122764105Y-75628648D01*
X122760479Y-75613396D01*
X122715324Y-75492946D01*
X122706786Y-75477351D01*
X122630285Y-75375276D01*
X122617724Y-75362715D01*
X122515649Y-75286214D01*
X122500054Y-75277676D01*
X122379606Y-75232522D01*
X122364351Y-75228895D01*
X122313486Y-75223369D01*
X122306672Y-75223000D01*
X121684115Y-75223000D01*
X121668876Y-75227475D01*
X121667671Y-75228865D01*
X121666000Y-75236548D01*
X121666000Y-76308885D01*
X121158000Y-76308885D01*
X121158000Y-75241116D01*
X121153525Y-75225877D01*
X121152135Y-75224672D01*
X121144452Y-75223001D01*
X120517331Y-75223001D01*
X120510510Y-75223371D01*
X120459648Y-75228895D01*
X120444396Y-75232521D01*
X120323946Y-75277676D01*
X120308351Y-75286214D01*
X120206276Y-75362715D01*
X120193715Y-75375276D01*
X120117214Y-75477351D01*
X120108676Y-75492946D01*
X120067297Y-75603322D01*
X120024655Y-75660087D01*
X119958093Y-75684786D01*
X119888744Y-75669578D01*
X119856121Y-75643891D01*
X119805151Y-75587876D01*
X119805145Y-75587870D01*
X119801670Y-75584051D01*
X119797619Y-75580852D01*
X119797615Y-75580848D01*
X119630414Y-75448800D01*
X119630410Y-75448798D01*
X119626359Y-75445598D01*
X119430789Y-75337638D01*
X119425920Y-75335914D01*
X119425916Y-75335912D01*
X119225087Y-75264795D01*
X119225083Y-75264794D01*
X119220212Y-75263069D01*
X119215119Y-75262162D01*
X119215116Y-75262161D01*
X119005373Y-75224800D01*
X119005367Y-75224799D01*
X119000284Y-75223894D01*
X118926452Y-75222992D01*
X118782081Y-75221228D01*
X118782079Y-75221228D01*
X118776911Y-75221165D01*
X118556091Y-75254955D01*
X118343756Y-75324357D01*
X118145607Y-75427507D01*
X118141474Y-75430610D01*
X118141471Y-75430612D01*
X118058450Y-75492946D01*
X117966965Y-75561635D01*
X117812629Y-75723138D01*
X117705201Y-75880621D01*
X117650293Y-75925621D01*
X117579768Y-75933792D01*
X117516021Y-75902538D01*
X117495324Y-75878054D01*
X117414822Y-75753617D01*
X117414820Y-75753614D01*
X117412014Y-75749277D01*
X117261670Y-75584051D01*
X117257619Y-75580852D01*
X117257615Y-75580848D01*
X117090414Y-75448800D01*
X117090410Y-75448798D01*
X117086359Y-75445598D01*
X116890789Y-75337638D01*
X116885920Y-75335914D01*
X116885916Y-75335912D01*
X116685087Y-75264795D01*
X116685083Y-75264794D01*
X116680212Y-75263069D01*
X116675119Y-75262162D01*
X116675116Y-75262161D01*
X116465373Y-75224800D01*
X116465367Y-75224799D01*
X116460284Y-75223894D01*
X116386452Y-75222992D01*
X116242081Y-75221228D01*
X116242079Y-75221228D01*
X116236911Y-75221165D01*
X116016091Y-75254955D01*
X115803756Y-75324357D01*
X115605607Y-75427507D01*
X115601474Y-75430610D01*
X115601471Y-75430612D01*
X115518450Y-75492946D01*
X115426965Y-75561635D01*
X115272629Y-75723138D01*
X115269720Y-75727403D01*
X115269714Y-75727411D01*
X115236659Y-75775868D01*
X115146743Y-75907680D01*
X115052688Y-76110305D01*
X114992989Y-76325570D01*
X114969251Y-76547695D01*
X114982110Y-76770715D01*
X114983247Y-76775761D01*
X114983248Y-76775767D01*
X114997606Y-76839475D01*
X115031222Y-76988639D01*
X115115266Y-77195616D01*
X115166942Y-77279944D01*
X115229291Y-77381688D01*
X115231987Y-77386088D01*
X115378250Y-77554938D01*
X115550126Y-77697632D01*
X115743000Y-77810338D01*
X115951692Y-77890030D01*
X115956760Y-77891061D01*
X115956763Y-77891062D01*
X116029454Y-77905851D01*
X116170597Y-77934567D01*
X116175772Y-77934757D01*
X116175774Y-77934757D01*
X116388673Y-77942564D01*
X116388677Y-77942564D01*
X116393837Y-77942753D01*
X116398957Y-77942097D01*
X116398959Y-77942097D01*
X116610288Y-77915025D01*
X116610289Y-77915025D01*
X116615416Y-77914368D01*
X116620366Y-77912883D01*
X116824429Y-77851661D01*
X116824434Y-77851659D01*
X116829384Y-77850174D01*
X117029994Y-77751896D01*
X117211860Y-77622173D01*
X117224887Y-77609192D01*
X117352036Y-77482486D01*
X117370096Y-77464489D01*
X117389569Y-77437390D01*
X117500453Y-77283077D01*
X117501776Y-77284028D01*
X117548645Y-77240857D01*
X117618580Y-77228625D01*
X117684026Y-77256144D01*
X117711875Y-77287994D01*
X117771987Y-77386088D01*
X117918250Y-77554938D01*
X118067985Y-77679250D01*
X118107620Y-77738152D01*
X118113500Y-77776194D01*
X118113500Y-78418930D01*
X118112067Y-78437880D01*
X118108801Y-78459349D01*
X118109394Y-78466641D01*
X118109394Y-78466644D01*
X118113085Y-78512018D01*
X118113500Y-78522233D01*
X118113500Y-78530293D01*
X118113925Y-78533937D01*
X118116789Y-78558507D01*
X118117222Y-78562882D01*
X118123140Y-78635637D01*
X118125396Y-78642601D01*
X118126587Y-78648560D01*
X118127971Y-78654415D01*
X118128818Y-78661681D01*
X118153735Y-78730327D01*
X118155152Y-78734455D01*
X118177649Y-78803899D01*
X118181445Y-78810154D01*
X118183951Y-78815628D01*
X118186670Y-78821058D01*
X118189167Y-78827937D01*
X118193180Y-78834057D01*
X118193180Y-78834058D01*
X118229186Y-78888976D01*
X118231523Y-78892680D01*
X118269405Y-78955107D01*
X118273121Y-78959315D01*
X118273122Y-78959316D01*
X118276803Y-78963484D01*
X118276776Y-78963508D01*
X118279429Y-78966500D01*
X118282132Y-78969733D01*
X118286144Y-78975852D01*
X118291456Y-78980884D01*
X118342383Y-79029128D01*
X118344825Y-79031506D01*
X122648595Y-83335276D01*
X122682621Y-83397588D01*
X122685500Y-83424371D01*
X122685500Y-99337629D01*
X122665498Y-99405750D01*
X122611842Y-99452243D01*
X122541568Y-99462347D01*
X122476988Y-99432853D01*
X122470405Y-99426724D01*
X121487770Y-98444089D01*
X121475384Y-98429677D01*
X121466851Y-98418082D01*
X121466846Y-98418077D01*
X121462508Y-98412182D01*
X121456930Y-98407443D01*
X121456927Y-98407440D01*
X121422232Y-98377965D01*
X121414716Y-98371035D01*
X121409021Y-98365340D01*
X121402880Y-98360482D01*
X121386749Y-98347719D01*
X121383345Y-98344928D01*
X121333297Y-98302409D01*
X121333295Y-98302408D01*
X121327715Y-98297667D01*
X121321199Y-98294339D01*
X121316150Y-98290972D01*
X121311021Y-98287805D01*
X121305284Y-98283266D01*
X121239125Y-98252345D01*
X121235225Y-98250439D01*
X121210062Y-98237590D01*
X121170192Y-98217231D01*
X121163084Y-98215492D01*
X121157441Y-98213393D01*
X121151678Y-98211476D01*
X121145050Y-98208378D01*
X121073583Y-98193513D01*
X121069299Y-98192543D01*
X120998390Y-98175192D01*
X120992788Y-98174844D01*
X120992785Y-98174844D01*
X120987236Y-98174500D01*
X120987238Y-98174464D01*
X120983245Y-98174225D01*
X120979053Y-98173851D01*
X120971885Y-98172360D01*
X120905675Y-98174151D01*
X120894479Y-98174454D01*
X120891072Y-98174500D01*
X116003939Y-98174500D01*
X115935818Y-98154498D01*
X115898147Y-98116941D01*
X115890818Y-98105612D01*
X115888014Y-98101277D01*
X115884540Y-98097459D01*
X115884533Y-98097450D01*
X115740435Y-97939088D01*
X115709383Y-97875242D01*
X115717779Y-97804744D01*
X115762956Y-97749976D01*
X115789400Y-97736307D01*
X115896052Y-97696325D01*
X115911649Y-97687786D01*
X116013724Y-97611285D01*
X116026285Y-97598724D01*
X116102786Y-97496649D01*
X116111324Y-97481054D01*
X116156478Y-97360606D01*
X116160105Y-97345351D01*
X116165631Y-97294486D01*
X116166000Y-97287672D01*
X116166000Y-96665115D01*
X116161525Y-96649876D01*
X116160135Y-96648671D01*
X116152452Y-96647000D01*
X113468116Y-96647000D01*
X113452877Y-96651475D01*
X113451672Y-96652865D01*
X113450001Y-96660548D01*
X113450001Y-97287669D01*
X113450371Y-97294490D01*
X113455895Y-97345352D01*
X113459521Y-97360604D01*
X113504676Y-97481054D01*
X113513214Y-97496649D01*
X113589715Y-97598724D01*
X113602276Y-97611285D01*
X113704351Y-97687786D01*
X113719946Y-97696324D01*
X113828827Y-97737142D01*
X113885591Y-97779784D01*
X113910291Y-97846345D01*
X113895083Y-97915694D01*
X113875691Y-97942175D01*
X113874576Y-97943342D01*
X113748629Y-98075138D01*
X113745715Y-98079410D01*
X113745714Y-98079411D01*
X113694493Y-98154498D01*
X113622743Y-98259680D01*
X113611795Y-98283266D01*
X113537144Y-98444089D01*
X113528688Y-98462305D01*
X113468989Y-98677570D01*
X113445251Y-98899695D01*
X113445548Y-98904848D01*
X113445548Y-98904851D01*
X113457474Y-99111684D01*
X113458110Y-99122715D01*
X113459247Y-99127761D01*
X113459248Y-99127767D01*
X113478946Y-99215171D01*
X113507222Y-99340639D01*
X113563073Y-99478185D01*
X113586875Y-99536801D01*
X113591266Y-99547616D01*
X113593965Y-99552020D01*
X113687708Y-99704995D01*
X113707987Y-99738088D01*
X113854250Y-99906938D01*
X114026126Y-100049632D01*
X114096595Y-100090811D01*
X114099445Y-100092476D01*
X114148169Y-100144114D01*
X114161240Y-100213897D01*
X114134509Y-100279669D01*
X114094055Y-100313027D01*
X114081607Y-100319507D01*
X114077474Y-100322610D01*
X114077471Y-100322612D01*
X113907100Y-100450530D01*
X113902965Y-100453635D01*
X113748629Y-100615138D01*
X113622743Y-100799680D01*
X113607003Y-100833590D01*
X113558695Y-100937661D01*
X113528688Y-101002305D01*
X113468989Y-101217570D01*
X113445251Y-101439695D01*
X113445548Y-101444848D01*
X113445548Y-101444851D01*
X113451709Y-101551703D01*
X113458110Y-101662715D01*
X113459247Y-101667761D01*
X113459248Y-101667767D01*
X113468381Y-101708290D01*
X113507222Y-101880639D01*
X113552745Y-101992750D01*
X113579168Y-102057821D01*
X113591266Y-102087616D01*
X113599230Y-102100612D01*
X113705264Y-102273644D01*
X113707987Y-102278088D01*
X113854250Y-102446938D01*
X114026126Y-102589632D01*
X114219000Y-102702338D01*
X114427692Y-102782030D01*
X114432760Y-102783061D01*
X114432763Y-102783062D01*
X114522893Y-102801399D01*
X114646597Y-102826567D01*
X114651772Y-102826757D01*
X114651774Y-102826757D01*
X114864673Y-102834564D01*
X114864677Y-102834564D01*
X114869837Y-102834753D01*
X114874957Y-102834097D01*
X114874959Y-102834097D01*
X115086288Y-102807025D01*
X115086289Y-102807025D01*
X115091416Y-102806368D01*
X115096366Y-102804883D01*
X115300429Y-102743661D01*
X115300434Y-102743659D01*
X115305384Y-102742174D01*
X115505994Y-102643896D01*
X115687860Y-102514173D01*
X115846096Y-102356489D01*
X115904749Y-102274865D01*
X115973435Y-102179277D01*
X115976453Y-102175077D01*
X115982449Y-102162946D01*
X116073136Y-101979453D01*
X116073137Y-101979451D01*
X116075430Y-101974811D01*
X116107900Y-101867940D01*
X116138865Y-101766023D01*
X116138865Y-101766021D01*
X116140370Y-101761069D01*
X116169529Y-101539590D01*
X116171156Y-101473000D01*
X116152852Y-101250361D01*
X116098431Y-101033702D01*
X116009354Y-100828840D01*
X115969906Y-100767862D01*
X115890822Y-100645617D01*
X115890820Y-100645614D01*
X115888014Y-100641277D01*
X115737670Y-100476051D01*
X115733619Y-100472852D01*
X115733615Y-100472848D01*
X115566414Y-100340800D01*
X115566410Y-100340798D01*
X115562359Y-100337598D01*
X115521053Y-100314796D01*
X115471084Y-100264364D01*
X115456312Y-100194921D01*
X115481428Y-100128516D01*
X115508780Y-100101909D01*
X115556065Y-100068181D01*
X115687860Y-99974173D01*
X115706053Y-99956044D01*
X115842435Y-99820137D01*
X115846096Y-99816489D01*
X115898203Y-99743974D01*
X115954198Y-99700326D01*
X116000526Y-99691500D01*
X120537629Y-99691500D01*
X120605750Y-99711502D01*
X120626724Y-99728405D01*
X121799075Y-100900756D01*
X121833101Y-100963068D01*
X121835980Y-100989851D01*
X121835981Y-105313814D01*
X121834548Y-105332765D01*
X121832436Y-105346649D01*
X121831282Y-105354232D01*
X121831875Y-105361524D01*
X121831875Y-105361527D01*
X121835566Y-105406901D01*
X121835981Y-105417116D01*
X121835981Y-105425176D01*
X121836406Y-105428820D01*
X121839270Y-105453390D01*
X121839703Y-105457765D01*
X121845621Y-105530520D01*
X121847877Y-105537484D01*
X121849068Y-105543443D01*
X121850452Y-105549298D01*
X121851299Y-105556564D01*
X121876216Y-105625210D01*
X121877633Y-105629338D01*
X121900130Y-105698782D01*
X121903926Y-105705037D01*
X121906432Y-105710511D01*
X121909151Y-105715941D01*
X121911648Y-105722820D01*
X121915661Y-105728940D01*
X121915661Y-105728941D01*
X121951667Y-105783859D01*
X121954004Y-105787563D01*
X121991886Y-105849990D01*
X121995602Y-105854198D01*
X121995603Y-105854199D01*
X121999284Y-105858367D01*
X121999257Y-105858391D01*
X122001910Y-105861383D01*
X122004613Y-105864616D01*
X122008625Y-105870735D01*
X122013937Y-105875767D01*
X122064864Y-105924011D01*
X122067306Y-105926389D01*
X123016347Y-106875430D01*
X123028733Y-106889842D01*
X123037266Y-106901437D01*
X123037271Y-106901442D01*
X123041609Y-106907337D01*
X123047187Y-106912076D01*
X123047190Y-106912079D01*
X123081885Y-106941554D01*
X123089401Y-106948484D01*
X123095096Y-106954179D01*
X123097978Y-106956459D01*
X123117368Y-106971800D01*
X123120772Y-106974591D01*
X123170820Y-107017110D01*
X123176402Y-107021852D01*
X123182918Y-107025180D01*
X123187967Y-107028547D01*
X123193096Y-107031714D01*
X123198833Y-107036253D01*
X123264992Y-107067174D01*
X123268886Y-107069077D01*
X123333925Y-107102288D01*
X123341033Y-107104027D01*
X123346676Y-107106126D01*
X123352439Y-107108043D01*
X123359067Y-107111141D01*
X123366229Y-107112631D01*
X123366230Y-107112631D01*
X123430529Y-107126005D01*
X123434813Y-107126975D01*
X123505727Y-107144327D01*
X123511329Y-107144675D01*
X123511332Y-107144675D01*
X123516881Y-107145019D01*
X123516879Y-107145055D01*
X123520872Y-107145294D01*
X123525064Y-107145668D01*
X123532232Y-107147159D01*
X123609637Y-107145065D01*
X123613045Y-107145019D01*
X128401708Y-107145019D01*
X128469829Y-107165021D01*
X128516322Y-107218677D01*
X128526426Y-107288951D01*
X128496932Y-107353531D01*
X128490803Y-107360114D01*
X127807322Y-108043595D01*
X127745010Y-108077621D01*
X127718227Y-108080500D01*
X116003939Y-108080500D01*
X115935818Y-108060498D01*
X115898147Y-108022941D01*
X115890818Y-108011612D01*
X115888014Y-108007277D01*
X115884540Y-108003459D01*
X115884533Y-108003450D01*
X115740435Y-107845088D01*
X115709383Y-107781242D01*
X115717779Y-107710744D01*
X115762956Y-107655976D01*
X115789400Y-107642307D01*
X115896052Y-107602325D01*
X115911649Y-107593786D01*
X116013724Y-107517285D01*
X116026285Y-107504724D01*
X116102786Y-107402649D01*
X116111324Y-107387054D01*
X116156478Y-107266606D01*
X116160105Y-107251351D01*
X116165631Y-107200486D01*
X116166000Y-107193672D01*
X116166000Y-106571115D01*
X116161525Y-106555876D01*
X116160135Y-106554671D01*
X116152452Y-106553000D01*
X113468116Y-106553000D01*
X113452877Y-106557475D01*
X113451672Y-106558865D01*
X113450001Y-106566548D01*
X113450001Y-107193669D01*
X113450371Y-107200490D01*
X113455895Y-107251352D01*
X113459521Y-107266604D01*
X113504676Y-107387054D01*
X113513214Y-107402649D01*
X113589715Y-107504724D01*
X113602276Y-107517285D01*
X113704351Y-107593786D01*
X113719946Y-107602324D01*
X113828827Y-107643142D01*
X113885591Y-107685784D01*
X113910291Y-107752345D01*
X113895083Y-107821694D01*
X113875691Y-107848175D01*
X113869211Y-107854956D01*
X113748629Y-107981138D01*
X113622743Y-108165680D01*
X113528688Y-108368305D01*
X113468989Y-108583570D01*
X113445251Y-108805695D01*
X113445548Y-108810848D01*
X113445548Y-108810851D01*
X113451222Y-108909252D01*
X113458110Y-109028715D01*
X113459247Y-109033761D01*
X113459248Y-109033767D01*
X113483304Y-109140508D01*
X113507222Y-109246639D01*
X113591266Y-109453616D01*
X113707987Y-109644088D01*
X113854250Y-109812938D01*
X114026126Y-109955632D01*
X114096595Y-109996811D01*
X114099445Y-109998476D01*
X114148169Y-110050114D01*
X114161240Y-110119897D01*
X114134509Y-110185669D01*
X114094055Y-110219027D01*
X114081607Y-110225507D01*
X114077474Y-110228610D01*
X114077471Y-110228612D01*
X114053247Y-110246800D01*
X113902965Y-110359635D01*
X113748629Y-110521138D01*
X113622743Y-110705680D01*
X113528688Y-110908305D01*
X113468989Y-111123570D01*
X113445251Y-111345695D01*
X113445548Y-111350848D01*
X113445548Y-111350851D01*
X113451011Y-111445590D01*
X113458110Y-111568715D01*
X113459247Y-111573761D01*
X113459248Y-111573767D01*
X113479119Y-111661939D01*
X113507222Y-111786639D01*
X113591266Y-111993616D01*
X113707987Y-112184088D01*
X113854250Y-112352938D01*
X114026126Y-112495632D01*
X114219000Y-112608338D01*
X114427692Y-112688030D01*
X114432760Y-112689061D01*
X114432763Y-112689062D01*
X114540017Y-112710883D01*
X114646597Y-112732567D01*
X114651772Y-112732757D01*
X114651774Y-112732757D01*
X114864673Y-112740564D01*
X114864677Y-112740564D01*
X114869837Y-112740753D01*
X114874957Y-112740097D01*
X114874959Y-112740097D01*
X115086288Y-112713025D01*
X115086289Y-112713025D01*
X115091416Y-112712368D01*
X115096366Y-112710883D01*
X115300429Y-112649661D01*
X115300434Y-112649659D01*
X115305384Y-112648174D01*
X115505994Y-112549896D01*
X115687860Y-112420173D01*
X115846096Y-112262489D01*
X115905594Y-112179689D01*
X115973435Y-112085277D01*
X115976453Y-112081077D01*
X116075430Y-111880811D01*
X116140370Y-111667069D01*
X116169529Y-111445590D01*
X116171156Y-111379000D01*
X116152852Y-111156361D01*
X116098431Y-110939702D01*
X116009354Y-110734840D01*
X115888014Y-110547277D01*
X115737670Y-110382051D01*
X115733619Y-110378852D01*
X115733615Y-110378848D01*
X115566414Y-110246800D01*
X115566410Y-110246798D01*
X115562359Y-110243598D01*
X115521053Y-110220796D01*
X115471084Y-110170364D01*
X115456312Y-110100921D01*
X115481428Y-110034516D01*
X115508780Y-110007909D01*
X115552603Y-109976650D01*
X115687860Y-109880173D01*
X115846096Y-109722489D01*
X115898203Y-109649974D01*
X115954198Y-109606326D01*
X116000526Y-109597500D01*
X127391555Y-109597500D01*
X127459676Y-109617502D01*
X127506169Y-109671158D01*
X127516273Y-109741432D01*
X127513946Y-109753440D01*
X127513527Y-109755152D01*
X127513526Y-109755158D01*
X127512192Y-109760610D01*
X127511500Y-109771764D01*
X127511464Y-109771762D01*
X127511225Y-109775755D01*
X127510851Y-109779947D01*
X127509360Y-109787115D01*
X127509558Y-109794432D01*
X127511454Y-109864521D01*
X127511500Y-109867928D01*
X127511500Y-121870655D01*
X127491498Y-121938776D01*
X127461153Y-121971415D01*
X127369100Y-122040530D01*
X127364965Y-122043635D01*
X127361393Y-122047373D01*
X127283898Y-122128466D01*
X127222374Y-122163895D01*
X127151462Y-122160438D01*
X127093676Y-122119192D01*
X127074823Y-122085644D01*
X127033324Y-121974946D01*
X127024786Y-121959351D01*
X126948285Y-121857276D01*
X126935724Y-121844715D01*
X126833649Y-121768214D01*
X126818054Y-121759676D01*
X126697606Y-121714522D01*
X126682351Y-121710895D01*
X126631486Y-121705369D01*
X126624672Y-121705000D01*
X126002115Y-121705000D01*
X125986876Y-121709475D01*
X125985671Y-121710865D01*
X125984000Y-121718548D01*
X125984000Y-124402884D01*
X125988475Y-124418123D01*
X125989865Y-124419328D01*
X125997548Y-124420999D01*
X126624669Y-124420999D01*
X126631490Y-124420629D01*
X126682352Y-124415105D01*
X126697604Y-124411479D01*
X126818054Y-124366324D01*
X126833649Y-124357786D01*
X126935724Y-124281285D01*
X126948285Y-124268724D01*
X127024786Y-124166649D01*
X127033324Y-124151054D01*
X127074225Y-124041952D01*
X127116867Y-123985188D01*
X127183428Y-123960488D01*
X127252777Y-123975696D01*
X127287444Y-124003684D01*
X127312865Y-124033031D01*
X127312869Y-124033035D01*
X127316250Y-124036938D01*
X127488126Y-124179632D01*
X127681000Y-124292338D01*
X127889692Y-124372030D01*
X127894760Y-124373061D01*
X127894763Y-124373062D01*
X128002017Y-124394883D01*
X128108597Y-124416567D01*
X128113772Y-124416757D01*
X128113774Y-124416757D01*
X128326673Y-124424564D01*
X128326677Y-124424564D01*
X128331837Y-124424753D01*
X128336957Y-124424097D01*
X128336959Y-124424097D01*
X128548288Y-124397025D01*
X128548289Y-124397025D01*
X128553416Y-124396368D01*
X128558366Y-124394883D01*
X128762429Y-124333661D01*
X128762434Y-124333659D01*
X128767384Y-124332174D01*
X128967994Y-124233896D01*
X129149860Y-124104173D01*
X129171503Y-124082606D01*
X129250701Y-124003684D01*
X129308096Y-123946489D01*
X129438453Y-123765077D01*
X129439776Y-123766028D01*
X129486645Y-123722857D01*
X129556580Y-123710625D01*
X129622026Y-123738144D01*
X129649875Y-123769994D01*
X129709987Y-123868088D01*
X129856250Y-124036938D01*
X130028126Y-124179632D01*
X130221000Y-124292338D01*
X130429692Y-124372030D01*
X130434760Y-124373061D01*
X130434763Y-124373062D01*
X130542017Y-124394883D01*
X130648597Y-124416567D01*
X130653772Y-124416757D01*
X130653774Y-124416757D01*
X130866673Y-124424564D01*
X130866677Y-124424564D01*
X130871837Y-124424753D01*
X130876957Y-124424097D01*
X130876959Y-124424097D01*
X131088288Y-124397025D01*
X131088289Y-124397025D01*
X131093416Y-124396368D01*
X131098366Y-124394883D01*
X131302429Y-124333661D01*
X131302434Y-124333659D01*
X131307384Y-124332174D01*
X131507994Y-124233896D01*
X131689860Y-124104173D01*
X131711503Y-124082606D01*
X131758404Y-124035868D01*
X137565900Y-124035868D01*
X137566125Y-124038517D01*
X137575674Y-124151054D01*
X137580626Y-124209420D01*
X137581964Y-124214577D01*
X137581965Y-124214580D01*
X137636516Y-124424753D01*
X137639125Y-124434806D01*
X137734762Y-124647113D01*
X137864804Y-124840272D01*
X138025532Y-125008758D01*
X138212350Y-125147754D01*
X138217102Y-125150170D01*
X138414244Y-125250402D01*
X138419916Y-125253286D01*
X138531106Y-125287812D01*
X138637193Y-125320753D01*
X138637199Y-125320754D01*
X138642296Y-125322337D01*
X138847652Y-125349555D01*
X138866794Y-125352092D01*
X138885081Y-125360201D01*
X138891456Y-125356104D01*
X138922227Y-125351089D01*
X139105822Y-125344197D01*
X139270713Y-125309599D01*
X139328486Y-125297477D01*
X139328489Y-125297476D01*
X139333713Y-125296380D01*
X139550290Y-125210850D01*
X139749359Y-125090051D01*
X139847492Y-125004896D01*
X139921197Y-124940939D01*
X139921199Y-124940937D01*
X139925230Y-124937439D01*
X139928613Y-124933313D01*
X139928617Y-124933309D01*
X140069487Y-124761504D01*
X140072872Y-124757376D01*
X140098845Y-124711748D01*
X140149927Y-124662442D01*
X140219558Y-124648580D01*
X140285629Y-124674563D01*
X140312867Y-124703713D01*
X140404804Y-124840272D01*
X140565532Y-125008758D01*
X140752350Y-125147754D01*
X140757102Y-125150170D01*
X140954244Y-125250402D01*
X140959916Y-125253286D01*
X141071106Y-125287812D01*
X141177193Y-125320753D01*
X141177199Y-125320754D01*
X141182296Y-125322337D01*
X141387652Y-125349555D01*
X141406794Y-125352092D01*
X141425081Y-125360201D01*
X141431456Y-125356104D01*
X141462227Y-125351089D01*
X141645822Y-125344197D01*
X141810713Y-125309599D01*
X141868486Y-125297477D01*
X141868489Y-125297476D01*
X141873713Y-125296380D01*
X142090290Y-125210850D01*
X142289359Y-125090051D01*
X142387492Y-125004896D01*
X142461197Y-124940939D01*
X142461199Y-124940937D01*
X142465230Y-124937439D01*
X142468613Y-124933313D01*
X142468617Y-124933309D01*
X142609487Y-124761504D01*
X142612872Y-124757376D01*
X142638845Y-124711748D01*
X142689927Y-124662442D01*
X142759558Y-124648580D01*
X142825629Y-124674563D01*
X142852867Y-124703713D01*
X142944804Y-124840272D01*
X143105532Y-125008758D01*
X143292350Y-125147754D01*
X143297102Y-125150170D01*
X143494244Y-125250402D01*
X143499916Y-125253286D01*
X143611106Y-125287812D01*
X143717193Y-125320753D01*
X143717199Y-125320754D01*
X143722296Y-125322337D01*
X143927652Y-125349555D01*
X143946794Y-125352092D01*
X143965081Y-125360201D01*
X143971456Y-125356104D01*
X144002227Y-125351089D01*
X144185822Y-125344197D01*
X144350713Y-125309599D01*
X144408486Y-125297477D01*
X144408489Y-125297476D01*
X144413713Y-125296380D01*
X144630290Y-125210850D01*
X144829359Y-125090051D01*
X144927492Y-125004896D01*
X145001197Y-124940939D01*
X145001199Y-124940937D01*
X145005230Y-124937439D01*
X145008613Y-124933313D01*
X145008617Y-124933309D01*
X145149487Y-124761504D01*
X145152872Y-124757376D01*
X145178845Y-124711748D01*
X145229927Y-124662442D01*
X145299558Y-124648580D01*
X145365629Y-124674563D01*
X145392867Y-124703713D01*
X145484804Y-124840272D01*
X145645532Y-125008758D01*
X145832350Y-125147754D01*
X145837102Y-125150170D01*
X146034244Y-125250402D01*
X146039916Y-125253286D01*
X146151106Y-125287812D01*
X146257193Y-125320753D01*
X146257199Y-125320754D01*
X146262296Y-125322337D01*
X146467652Y-125349555D01*
X146486794Y-125352092D01*
X146505081Y-125360201D01*
X146511456Y-125356104D01*
X146542227Y-125351089D01*
X146725822Y-125344197D01*
X146890713Y-125309599D01*
X146948486Y-125297477D01*
X146948489Y-125297476D01*
X146953713Y-125296380D01*
X147170290Y-125210850D01*
X147369359Y-125090051D01*
X147467492Y-125004896D01*
X147541197Y-124940939D01*
X147541199Y-124940937D01*
X147545230Y-124937439D01*
X147548613Y-124933313D01*
X147548617Y-124933309D01*
X147689487Y-124761504D01*
X147692872Y-124757376D01*
X147719122Y-124711261D01*
X147770202Y-124661956D01*
X147839832Y-124648094D01*
X147905904Y-124674077D01*
X147933143Y-124703227D01*
X148022215Y-124835530D01*
X148028876Y-124843816D01*
X148182180Y-125004520D01*
X148190148Y-125011569D01*
X148368336Y-125144144D01*
X148377366Y-125149743D01*
X148575347Y-125250402D01*
X148585208Y-125254405D01*
X148797301Y-125320263D01*
X148807696Y-125322548D01*
X148826041Y-125324980D01*
X148840208Y-125322783D01*
X148844000Y-125309599D01*
X148844000Y-122342512D01*
X148840027Y-122328981D01*
X148829420Y-122327456D01*
X148707657Y-122353004D01*
X148697461Y-122356064D01*
X148490903Y-122437637D01*
X148481366Y-122442371D01*
X148291497Y-122557586D01*
X148282907Y-122563850D01*
X148115163Y-122709411D01*
X148107743Y-122717041D01*
X147966927Y-122888780D01*
X147960898Y-122897551D01*
X147937467Y-122938715D01*
X147886385Y-122988022D01*
X147816755Y-123001884D01*
X147750684Y-122975901D01*
X147723445Y-122946751D01*
X147684417Y-122888780D01*
X147631196Y-122809728D01*
X147617578Y-122795452D01*
X147528554Y-122702132D01*
X147470468Y-122641242D01*
X147283650Y-122502246D01*
X147156574Y-122437637D01*
X147080842Y-122399133D01*
X147080841Y-122399133D01*
X147076084Y-122396714D01*
X146937299Y-122353620D01*
X146858807Y-122329247D01*
X146858801Y-122329246D01*
X146853704Y-122327663D01*
X146729340Y-122311180D01*
X146628152Y-122297768D01*
X146628148Y-122297768D01*
X146622868Y-122297068D01*
X146617538Y-122297268D01*
X146617537Y-122297268D01*
X146506523Y-122301435D01*
X146390178Y-122305803D01*
X146307474Y-122323156D01*
X146167514Y-122352523D01*
X146167511Y-122352524D01*
X146162287Y-122353620D01*
X145945710Y-122439150D01*
X145746641Y-122559949D01*
X145742611Y-122563446D01*
X145673172Y-122623702D01*
X145570770Y-122712561D01*
X145567387Y-122716687D01*
X145567383Y-122716691D01*
X145496504Y-122803135D01*
X145423128Y-122892624D01*
X145420489Y-122897260D01*
X145420487Y-122897263D01*
X145397155Y-122938252D01*
X145346073Y-122987558D01*
X145276442Y-123001420D01*
X145210371Y-122975437D01*
X145183133Y-122946287D01*
X145102723Y-122826850D01*
X145091196Y-122809728D01*
X145077578Y-122795452D01*
X144988554Y-122702132D01*
X144930468Y-122641242D01*
X144743650Y-122502246D01*
X144616574Y-122437637D01*
X144540842Y-122399133D01*
X144540841Y-122399133D01*
X144536084Y-122396714D01*
X144397299Y-122353620D01*
X144318807Y-122329247D01*
X144318801Y-122329246D01*
X144313704Y-122327663D01*
X144189340Y-122311180D01*
X144088152Y-122297768D01*
X144088148Y-122297768D01*
X144082868Y-122297068D01*
X144077538Y-122297268D01*
X144077537Y-122297268D01*
X143966523Y-122301435D01*
X143850178Y-122305803D01*
X143767474Y-122323156D01*
X143627514Y-122352523D01*
X143627511Y-122352524D01*
X143622287Y-122353620D01*
X143405710Y-122439150D01*
X143206641Y-122559949D01*
X143202611Y-122563446D01*
X143133172Y-122623702D01*
X143030770Y-122712561D01*
X143027387Y-122716687D01*
X143027383Y-122716691D01*
X142956504Y-122803135D01*
X142883128Y-122892624D01*
X142880489Y-122897260D01*
X142880487Y-122897263D01*
X142857155Y-122938252D01*
X142806073Y-122987558D01*
X142736442Y-123001420D01*
X142670371Y-122975437D01*
X142643133Y-122946287D01*
X142562723Y-122826850D01*
X142551196Y-122809728D01*
X142537578Y-122795452D01*
X142448554Y-122702132D01*
X142390468Y-122641242D01*
X142203650Y-122502246D01*
X142076574Y-122437637D01*
X142000842Y-122399133D01*
X142000841Y-122399133D01*
X141996084Y-122396714D01*
X141857299Y-122353620D01*
X141778807Y-122329247D01*
X141778801Y-122329246D01*
X141773704Y-122327663D01*
X141649340Y-122311180D01*
X141548152Y-122297768D01*
X141548148Y-122297768D01*
X141542868Y-122297068D01*
X141537538Y-122297268D01*
X141537537Y-122297268D01*
X141426523Y-122301435D01*
X141310178Y-122305803D01*
X141227474Y-122323156D01*
X141087514Y-122352523D01*
X141087511Y-122352524D01*
X141082287Y-122353620D01*
X140865710Y-122439150D01*
X140666641Y-122559949D01*
X140662611Y-122563446D01*
X140593172Y-122623702D01*
X140490770Y-122712561D01*
X140487387Y-122716687D01*
X140487383Y-122716691D01*
X140416504Y-122803135D01*
X140343128Y-122892624D01*
X140340489Y-122897260D01*
X140340487Y-122897263D01*
X140317155Y-122938252D01*
X140266073Y-122987558D01*
X140196442Y-123001420D01*
X140130371Y-122975437D01*
X140103133Y-122946287D01*
X140022723Y-122826850D01*
X140011196Y-122809728D01*
X139997578Y-122795452D01*
X139908554Y-122702132D01*
X139850468Y-122641242D01*
X139663650Y-122502246D01*
X139536574Y-122437637D01*
X139460842Y-122399133D01*
X139460841Y-122399133D01*
X139456084Y-122396714D01*
X139317299Y-122353620D01*
X139238807Y-122329247D01*
X139238801Y-122329246D01*
X139233704Y-122327663D01*
X139109340Y-122311180D01*
X139008152Y-122297768D01*
X139008148Y-122297768D01*
X139002868Y-122297068D01*
X138997538Y-122297268D01*
X138997537Y-122297268D01*
X138886523Y-122301435D01*
X138770178Y-122305803D01*
X138687474Y-122323156D01*
X138547514Y-122352523D01*
X138547511Y-122352524D01*
X138542287Y-122353620D01*
X138325710Y-122439150D01*
X138126641Y-122559949D01*
X138122611Y-122563446D01*
X138053172Y-122623702D01*
X137950770Y-122712561D01*
X137947387Y-122716687D01*
X137947383Y-122716691D01*
X137876504Y-122803135D01*
X137803128Y-122892624D01*
X137800489Y-122897260D01*
X137800487Y-122897263D01*
X137708053Y-123059646D01*
X137687935Y-123094989D01*
X137686114Y-123100005D01*
X137686112Y-123100010D01*
X137644302Y-123215194D01*
X137608485Y-123313869D01*
X137607536Y-123319118D01*
X137607535Y-123319121D01*
X137606858Y-123322865D01*
X137567050Y-123543007D01*
X137565900Y-123567394D01*
X137565900Y-124035868D01*
X131758404Y-124035868D01*
X131790701Y-124003684D01*
X131848096Y-123946489D01*
X131978453Y-123765077D01*
X131999320Y-123722857D01*
X132075136Y-123569453D01*
X132075137Y-123569451D01*
X132077430Y-123564811D01*
X132142370Y-123351069D01*
X132171529Y-123129590D01*
X132172252Y-123100010D01*
X132173074Y-123066365D01*
X132173074Y-123066361D01*
X132173156Y-123063000D01*
X132154852Y-122840361D01*
X132100431Y-122623702D01*
X132011354Y-122418840D01*
X131952235Y-122327456D01*
X131892822Y-122235617D01*
X131892820Y-122235614D01*
X131890014Y-122231277D01*
X131739670Y-122066051D01*
X131735619Y-122062852D01*
X131735615Y-122062848D01*
X131568414Y-121930800D01*
X131568410Y-121930798D01*
X131564359Y-121927598D01*
X131368789Y-121819638D01*
X131363920Y-121817914D01*
X131363916Y-121817912D01*
X131163087Y-121746795D01*
X131163083Y-121746794D01*
X131158212Y-121745069D01*
X131153119Y-121744162D01*
X131153116Y-121744161D01*
X130943373Y-121706800D01*
X130943367Y-121706799D01*
X130938284Y-121705894D01*
X130864452Y-121704992D01*
X130720081Y-121703228D01*
X130720079Y-121703228D01*
X130714911Y-121703165D01*
X130494091Y-121736955D01*
X130281756Y-121806357D01*
X130083607Y-121909507D01*
X130079474Y-121912610D01*
X130079471Y-121912612D01*
X130004765Y-121968703D01*
X129904965Y-122043635D01*
X129750629Y-122205138D01*
X129643201Y-122362621D01*
X129588293Y-122407621D01*
X129517768Y-122415792D01*
X129454021Y-122384538D01*
X129433324Y-122360054D01*
X129352822Y-122235617D01*
X129352820Y-122235614D01*
X129350014Y-122231277D01*
X129199670Y-122066051D01*
X129195615Y-122062848D01*
X129076407Y-121968703D01*
X129035345Y-121910785D01*
X129028500Y-121869821D01*
X129028500Y-110221371D01*
X129048502Y-110153250D01*
X129065405Y-110132276D01*
X130237757Y-108959924D01*
X130300069Y-108925898D01*
X130326852Y-108923019D01*
X148737617Y-108923019D01*
X148756567Y-108924452D01*
X148770802Y-108926618D01*
X148770806Y-108926618D01*
X148778036Y-108927718D01*
X148785328Y-108927125D01*
X148785331Y-108927125D01*
X148830705Y-108923434D01*
X148840920Y-108923019D01*
X148848980Y-108923019D01*
X148862270Y-108921470D01*
X148877194Y-108919730D01*
X148881569Y-108919297D01*
X148947026Y-108913973D01*
X148947029Y-108913972D01*
X148954324Y-108913379D01*
X148961288Y-108911123D01*
X148967247Y-108909932D01*
X148973102Y-108908548D01*
X148980368Y-108907701D01*
X149049014Y-108882784D01*
X149053142Y-108881367D01*
X149115623Y-108861126D01*
X149115625Y-108861125D01*
X149122586Y-108858870D01*
X149128841Y-108855074D01*
X149134315Y-108852568D01*
X149139745Y-108849849D01*
X149146624Y-108847352D01*
X149207663Y-108807333D01*
X149211367Y-108804996D01*
X149273794Y-108767114D01*
X149282171Y-108759716D01*
X149282195Y-108759743D01*
X149285187Y-108757090D01*
X149288420Y-108754387D01*
X149294539Y-108750375D01*
X149347815Y-108694136D01*
X149350193Y-108691694D01*
X150152905Y-107888982D01*
X150215217Y-107854956D01*
X150286032Y-107860021D01*
X150342868Y-107902568D01*
X150367679Y-107969088D01*
X150368000Y-107978077D01*
X150368000Y-122702132D01*
X150347998Y-122770253D01*
X150294342Y-122816746D01*
X150224068Y-122826850D01*
X150159488Y-122797356D01*
X150150830Y-122789103D01*
X150013826Y-122645485D01*
X150005852Y-122638431D01*
X149827664Y-122505856D01*
X149818634Y-122500257D01*
X149620653Y-122399598D01*
X149610792Y-122395595D01*
X149398699Y-122329737D01*
X149388304Y-122327452D01*
X149369959Y-122325020D01*
X149355792Y-122327217D01*
X149352000Y-122340401D01*
X149352000Y-125307488D01*
X149355973Y-125321019D01*
X149366580Y-125322544D01*
X149488343Y-125296996D01*
X149498539Y-125293936D01*
X149705097Y-125212363D01*
X149714634Y-125207629D01*
X149904503Y-125092414D01*
X149913093Y-125086150D01*
X150080837Y-124940589D01*
X150088257Y-124932959D01*
X150144566Y-124864284D01*
X150203225Y-124824290D01*
X150274195Y-124822358D01*
X150334944Y-124859102D01*
X150366183Y-124922856D01*
X150368000Y-124944175D01*
X150368000Y-125477000D01*
X150347998Y-125545121D01*
X150294342Y-125591614D01*
X150242000Y-125603000D01*
X146546954Y-125603000D01*
X146509669Y-125592052D01*
X146489545Y-125601512D01*
X146470239Y-125603000D01*
X144006954Y-125603000D01*
X143969669Y-125592052D01*
X143949545Y-125601512D01*
X143930239Y-125603000D01*
X141466954Y-125603000D01*
X141429669Y-125592052D01*
X141409545Y-125601512D01*
X141390239Y-125603000D01*
X138926954Y-125603000D01*
X138889669Y-125592052D01*
X138869545Y-125601512D01*
X138850239Y-125603000D01*
X112140000Y-125603000D01*
X112071879Y-125582998D01*
X112025386Y-125529342D01*
X112014000Y-125477000D01*
X112014000Y-123957669D01*
X124372001Y-123957669D01*
X124372371Y-123964490D01*
X124377895Y-124015352D01*
X124381521Y-124030604D01*
X124426676Y-124151054D01*
X124435214Y-124166649D01*
X124511715Y-124268724D01*
X124524276Y-124281285D01*
X124626351Y-124357786D01*
X124641946Y-124366324D01*
X124762394Y-124411478D01*
X124777649Y-124415105D01*
X124828514Y-124420631D01*
X124835328Y-124421000D01*
X125457885Y-124421000D01*
X125473124Y-124416525D01*
X125474329Y-124415135D01*
X125476000Y-124407452D01*
X125476000Y-123335115D01*
X125471525Y-123319876D01*
X125470135Y-123318671D01*
X125462452Y-123317000D01*
X124390116Y-123317000D01*
X124374877Y-123321475D01*
X124373672Y-123322865D01*
X124372001Y-123330548D01*
X124372001Y-123957669D01*
X112014000Y-123957669D01*
X112014000Y-122790885D01*
X124372000Y-122790885D01*
X124376475Y-122806124D01*
X124377865Y-122807329D01*
X124385548Y-122809000D01*
X125457885Y-122809000D01*
X125473124Y-122804525D01*
X125474329Y-122803135D01*
X125476000Y-122795452D01*
X125476000Y-121723116D01*
X125471525Y-121707877D01*
X125470135Y-121706672D01*
X125462452Y-121705001D01*
X124835331Y-121705001D01*
X124828510Y-121705371D01*
X124777648Y-121710895D01*
X124762396Y-121714521D01*
X124641946Y-121759676D01*
X124626351Y-121768214D01*
X124524276Y-121844715D01*
X124511715Y-121857276D01*
X124435214Y-121959351D01*
X124426676Y-121974946D01*
X124381522Y-122095394D01*
X124377895Y-122110649D01*
X124372369Y-122161514D01*
X124372000Y-122168328D01*
X124372000Y-122790885D01*
X112014000Y-122790885D01*
X112014000Y-106026885D01*
X113450000Y-106026885D01*
X113454475Y-106042124D01*
X113455865Y-106043329D01*
X113463548Y-106045000D01*
X114535885Y-106045000D01*
X114551124Y-106040525D01*
X114552329Y-106039135D01*
X114554000Y-106031452D01*
X114554000Y-106026885D01*
X115062000Y-106026885D01*
X115066475Y-106042124D01*
X115067865Y-106043329D01*
X115075548Y-106045000D01*
X116147884Y-106045000D01*
X116163123Y-106040525D01*
X116164328Y-106039135D01*
X116165999Y-106031452D01*
X116165999Y-105404331D01*
X116165629Y-105397510D01*
X116160105Y-105346648D01*
X116156479Y-105331396D01*
X116111324Y-105210946D01*
X116102786Y-105195351D01*
X116026285Y-105093276D01*
X116013724Y-105080715D01*
X115911649Y-105004214D01*
X115896054Y-104995676D01*
X115775606Y-104950522D01*
X115760351Y-104946895D01*
X115709486Y-104941369D01*
X115702672Y-104941000D01*
X115080115Y-104941000D01*
X115064876Y-104945475D01*
X115063671Y-104946865D01*
X115062000Y-104954548D01*
X115062000Y-106026885D01*
X114554000Y-106026885D01*
X114554000Y-104959116D01*
X114549525Y-104943877D01*
X114548135Y-104942672D01*
X114540452Y-104941001D01*
X113913331Y-104941001D01*
X113906510Y-104941371D01*
X113855648Y-104946895D01*
X113840396Y-104950521D01*
X113719946Y-104995676D01*
X113704351Y-105004214D01*
X113602276Y-105080715D01*
X113589715Y-105093276D01*
X113513214Y-105195351D01*
X113504676Y-105210946D01*
X113459522Y-105331394D01*
X113455895Y-105346649D01*
X113450369Y-105397514D01*
X113450000Y-105404328D01*
X113450000Y-106026885D01*
X112014000Y-106026885D01*
X112014000Y-96120885D01*
X113450000Y-96120885D01*
X113454475Y-96136124D01*
X113455865Y-96137329D01*
X113463548Y-96139000D01*
X114535885Y-96139000D01*
X114551124Y-96134525D01*
X114552329Y-96133135D01*
X114554000Y-96125452D01*
X114554000Y-96120885D01*
X115062000Y-96120885D01*
X115066475Y-96136124D01*
X115067865Y-96137329D01*
X115075548Y-96139000D01*
X116147884Y-96139000D01*
X116163123Y-96134525D01*
X116164328Y-96133135D01*
X116165999Y-96125452D01*
X116165999Y-95498331D01*
X116165629Y-95491510D01*
X116160105Y-95440648D01*
X116156479Y-95425396D01*
X116111324Y-95304946D01*
X116102786Y-95289351D01*
X116026285Y-95187276D01*
X116013724Y-95174715D01*
X115911649Y-95098214D01*
X115896054Y-95089676D01*
X115775606Y-95044522D01*
X115760351Y-95040895D01*
X115709486Y-95035369D01*
X115702672Y-95035000D01*
X115080115Y-95035000D01*
X115064876Y-95039475D01*
X115063671Y-95040865D01*
X115062000Y-95048548D01*
X115062000Y-96120885D01*
X114554000Y-96120885D01*
X114554000Y-95053116D01*
X114549525Y-95037877D01*
X114548135Y-95036672D01*
X114540452Y-95035001D01*
X113913331Y-95035001D01*
X113906510Y-95035371D01*
X113855648Y-95040895D01*
X113840396Y-95044521D01*
X113719946Y-95089676D01*
X113704351Y-95098214D01*
X113602276Y-95174715D01*
X113589715Y-95187276D01*
X113513214Y-95289351D01*
X113504676Y-95304946D01*
X113459522Y-95425394D01*
X113455895Y-95440649D01*
X113450369Y-95491514D01*
X113450000Y-95498328D01*
X113450000Y-96120885D01*
X112014000Y-96120885D01*
X112014000Y-73913000D01*
X112034002Y-73844879D01*
X112087658Y-73798386D01*
X112140000Y-73787000D01*
X129805046Y-73787000D01*
X129842331Y-73797948D01*
G37*
%TD.AperFunction*%
%TD*%
%TA.AperFunction,Conductor*%
%TO.N,+12V*%
G36*
X156766331Y-73797948D02*
G01*
X156786455Y-73788488D01*
X156805761Y-73787000D01*
X159269046Y-73787000D01*
X159306331Y-73797948D01*
X159326455Y-73788488D01*
X159345761Y-73787000D01*
X161809046Y-73787000D01*
X161846331Y-73797948D01*
X161866455Y-73788488D01*
X161885761Y-73787000D01*
X164349046Y-73787000D01*
X164386331Y-73797948D01*
X164406455Y-73788488D01*
X164425761Y-73787000D01*
X166889046Y-73787000D01*
X166926331Y-73797948D01*
X166946455Y-73788488D01*
X166965761Y-73787000D01*
X169429046Y-73787000D01*
X169466331Y-73797948D01*
X169486455Y-73788488D01*
X169505761Y-73787000D01*
X171969046Y-73787000D01*
X172006331Y-73797948D01*
X172026455Y-73788488D01*
X172045761Y-73787000D01*
X174509046Y-73787000D01*
X174546331Y-73797948D01*
X174566455Y-73788488D01*
X174585761Y-73787000D01*
X175340390Y-73787000D01*
X175408511Y-73807002D01*
X175422387Y-73817332D01*
X175793152Y-74135130D01*
X176232000Y-74511286D01*
X176270704Y-74570805D01*
X176276000Y-74606952D01*
X176276000Y-86233000D01*
X178779095Y-88736095D01*
X178813121Y-88798407D01*
X178816000Y-88825190D01*
X178816000Y-120722927D01*
X178795998Y-120791048D01*
X178776807Y-120814253D01*
X176250600Y-123215400D01*
X176250706Y-123225397D01*
X176250706Y-123225398D01*
X176274645Y-125475660D01*
X176255369Y-125543989D01*
X176202211Y-125591050D01*
X176148652Y-125603000D01*
X174486954Y-125603000D01*
X174449669Y-125592052D01*
X174429545Y-125601512D01*
X174410239Y-125603000D01*
X171946954Y-125603000D01*
X171909669Y-125592052D01*
X171889545Y-125601512D01*
X171870239Y-125603000D01*
X169406954Y-125603000D01*
X169369669Y-125592052D01*
X169349545Y-125601512D01*
X169330239Y-125603000D01*
X166866954Y-125603000D01*
X166829669Y-125592052D01*
X166809545Y-125601512D01*
X166790239Y-125603000D01*
X164326954Y-125603000D01*
X164289669Y-125592052D01*
X164269545Y-125601512D01*
X164250239Y-125603000D01*
X161786954Y-125603000D01*
X161749669Y-125592052D01*
X161729545Y-125601512D01*
X161710239Y-125603000D01*
X156706954Y-125603000D01*
X156669669Y-125592052D01*
X156649545Y-125601512D01*
X156630239Y-125603000D01*
X154166954Y-125603000D01*
X154129669Y-125592052D01*
X154109545Y-125601512D01*
X154090239Y-125603000D01*
X153542000Y-125603000D01*
X153473879Y-125582998D01*
X153427386Y-125529342D01*
X153416000Y-125477000D01*
X153416000Y-125334685D01*
X153436002Y-125266564D01*
X153489658Y-125220071D01*
X153559932Y-125209967D01*
X153599105Y-125222368D01*
X153659916Y-125253286D01*
X153771106Y-125287812D01*
X153877193Y-125320753D01*
X153877199Y-125320754D01*
X153882296Y-125322337D01*
X154087652Y-125349555D01*
X154106794Y-125352092D01*
X154125081Y-125360201D01*
X154131456Y-125356104D01*
X154162227Y-125351089D01*
X154345822Y-125344197D01*
X154457554Y-125320753D01*
X154568486Y-125297477D01*
X154568489Y-125297476D01*
X154573713Y-125296380D01*
X154790290Y-125210850D01*
X154989359Y-125090051D01*
X155165230Y-124937439D01*
X155168613Y-124933313D01*
X155168617Y-124933309D01*
X155309487Y-124761504D01*
X155312872Y-124757376D01*
X155338845Y-124711748D01*
X155389927Y-124662442D01*
X155459558Y-124648580D01*
X155525629Y-124674563D01*
X155552867Y-124703713D01*
X155644804Y-124840272D01*
X155805532Y-125008758D01*
X155992350Y-125147754D01*
X155997102Y-125150170D01*
X156120310Y-125212812D01*
X156199916Y-125253286D01*
X156311106Y-125287812D01*
X156417193Y-125320753D01*
X156417199Y-125320754D01*
X156422296Y-125322337D01*
X156627652Y-125349555D01*
X156646794Y-125352092D01*
X156665081Y-125360201D01*
X156671456Y-125356104D01*
X156702227Y-125351089D01*
X156885822Y-125344197D01*
X156997554Y-125320753D01*
X157108486Y-125297477D01*
X157108489Y-125297476D01*
X157113713Y-125296380D01*
X157330290Y-125210850D01*
X157529359Y-125090051D01*
X157705230Y-124937439D01*
X157708613Y-124933313D01*
X157708617Y-124933309D01*
X157849487Y-124761504D01*
X157852872Y-124757376D01*
X157913114Y-124651547D01*
X157965422Y-124559654D01*
X157968065Y-124555011D01*
X157988239Y-124499435D01*
X158045695Y-124341146D01*
X158045696Y-124341142D01*
X158047515Y-124336131D01*
X158088950Y-124106993D01*
X158090100Y-124082606D01*
X158090100Y-124035868D01*
X160425900Y-124035868D01*
X160440626Y-124209420D01*
X160441964Y-124214577D01*
X160441965Y-124214580D01*
X160474816Y-124341146D01*
X160499125Y-124434806D01*
X160594762Y-124647113D01*
X160724804Y-124840272D01*
X160885532Y-125008758D01*
X161072350Y-125147754D01*
X161077102Y-125150170D01*
X161200310Y-125212812D01*
X161279916Y-125253286D01*
X161391106Y-125287812D01*
X161497193Y-125320753D01*
X161497199Y-125320754D01*
X161502296Y-125322337D01*
X161707652Y-125349555D01*
X161726794Y-125352092D01*
X161745081Y-125360201D01*
X161751456Y-125356104D01*
X161782227Y-125351089D01*
X161965822Y-125344197D01*
X162077554Y-125320753D01*
X162188486Y-125297477D01*
X162188489Y-125297476D01*
X162193713Y-125296380D01*
X162410290Y-125210850D01*
X162609359Y-125090051D01*
X162785230Y-124937439D01*
X162788613Y-124933313D01*
X162788617Y-124933309D01*
X162929487Y-124761504D01*
X162932872Y-124757376D01*
X162958845Y-124711748D01*
X163009927Y-124662442D01*
X163079558Y-124648580D01*
X163145629Y-124674563D01*
X163172867Y-124703713D01*
X163264804Y-124840272D01*
X163425532Y-125008758D01*
X163612350Y-125147754D01*
X163617102Y-125150170D01*
X163740310Y-125212812D01*
X163819916Y-125253286D01*
X163931106Y-125287812D01*
X164037193Y-125320753D01*
X164037199Y-125320754D01*
X164042296Y-125322337D01*
X164247652Y-125349555D01*
X164266794Y-125352092D01*
X164285081Y-125360201D01*
X164291456Y-125356104D01*
X164322227Y-125351089D01*
X164505822Y-125344197D01*
X164617554Y-125320753D01*
X164728486Y-125297477D01*
X164728489Y-125297476D01*
X164733713Y-125296380D01*
X164950290Y-125210850D01*
X165149359Y-125090051D01*
X165325230Y-124937439D01*
X165328613Y-124933313D01*
X165328617Y-124933309D01*
X165469487Y-124761504D01*
X165472872Y-124757376D01*
X165498845Y-124711748D01*
X165549927Y-124662442D01*
X165619558Y-124648580D01*
X165685629Y-124674563D01*
X165712867Y-124703713D01*
X165804804Y-124840272D01*
X165965532Y-125008758D01*
X166152350Y-125147754D01*
X166157102Y-125150170D01*
X166280310Y-125212812D01*
X166359916Y-125253286D01*
X166471106Y-125287812D01*
X166577193Y-125320753D01*
X166577199Y-125320754D01*
X166582296Y-125322337D01*
X166787652Y-125349555D01*
X166806794Y-125352092D01*
X166825081Y-125360201D01*
X166831456Y-125356104D01*
X166862227Y-125351089D01*
X167045822Y-125344197D01*
X167157554Y-125320753D01*
X167268486Y-125297477D01*
X167268489Y-125297476D01*
X167273713Y-125296380D01*
X167490290Y-125210850D01*
X167689359Y-125090051D01*
X167865230Y-124937439D01*
X167868613Y-124933313D01*
X167868617Y-124933309D01*
X168009487Y-124761504D01*
X168012872Y-124757376D01*
X168038845Y-124711748D01*
X168089927Y-124662442D01*
X168159558Y-124648580D01*
X168225629Y-124674563D01*
X168252867Y-124703713D01*
X168344804Y-124840272D01*
X168505532Y-125008758D01*
X168692350Y-125147754D01*
X168697102Y-125150170D01*
X168820310Y-125212812D01*
X168899916Y-125253286D01*
X169011106Y-125287812D01*
X169117193Y-125320753D01*
X169117199Y-125320754D01*
X169122296Y-125322337D01*
X169327652Y-125349555D01*
X169346794Y-125352092D01*
X169365081Y-125360201D01*
X169371456Y-125356104D01*
X169402227Y-125351089D01*
X169585822Y-125344197D01*
X169697554Y-125320753D01*
X169808486Y-125297477D01*
X169808489Y-125297476D01*
X169813713Y-125296380D01*
X170030290Y-125210850D01*
X170229359Y-125090051D01*
X170405230Y-124937439D01*
X170408613Y-124933313D01*
X170408617Y-124933309D01*
X170549487Y-124761504D01*
X170552872Y-124757376D01*
X170578845Y-124711748D01*
X170629927Y-124662442D01*
X170699558Y-124648580D01*
X170765629Y-124674563D01*
X170792867Y-124703713D01*
X170884804Y-124840272D01*
X171045532Y-125008758D01*
X171232350Y-125147754D01*
X171237102Y-125150170D01*
X171360310Y-125212812D01*
X171439916Y-125253286D01*
X171551106Y-125287812D01*
X171657193Y-125320753D01*
X171657199Y-125320754D01*
X171662296Y-125322337D01*
X171867652Y-125349555D01*
X171886794Y-125352092D01*
X171905081Y-125360201D01*
X171911456Y-125356104D01*
X171942227Y-125351089D01*
X172125822Y-125344197D01*
X172237554Y-125320753D01*
X172348486Y-125297477D01*
X172348489Y-125297476D01*
X172353713Y-125296380D01*
X172570290Y-125210850D01*
X172769359Y-125090051D01*
X172945230Y-124937439D01*
X172948613Y-124933313D01*
X172948617Y-124933309D01*
X173089487Y-124761504D01*
X173092872Y-124757376D01*
X173118845Y-124711748D01*
X173169927Y-124662442D01*
X173239558Y-124648580D01*
X173305629Y-124674563D01*
X173332867Y-124703713D01*
X173424804Y-124840272D01*
X173585532Y-125008758D01*
X173772350Y-125147754D01*
X173777102Y-125150170D01*
X173900310Y-125212812D01*
X173979916Y-125253286D01*
X174091106Y-125287812D01*
X174197193Y-125320753D01*
X174197199Y-125320754D01*
X174202296Y-125322337D01*
X174407652Y-125349555D01*
X174426794Y-125352092D01*
X174445081Y-125360201D01*
X174451456Y-125356104D01*
X174482227Y-125351089D01*
X174665822Y-125344197D01*
X174777554Y-125320753D01*
X174888486Y-125297477D01*
X174888489Y-125297476D01*
X174893713Y-125296380D01*
X175110290Y-125210850D01*
X175309359Y-125090051D01*
X175485230Y-124937439D01*
X175488613Y-124933313D01*
X175488617Y-124933309D01*
X175629487Y-124761504D01*
X175632872Y-124757376D01*
X175693114Y-124651547D01*
X175745422Y-124559654D01*
X175748065Y-124555011D01*
X175768239Y-124499435D01*
X175825695Y-124341146D01*
X175825696Y-124341142D01*
X175827515Y-124336131D01*
X175868950Y-124106993D01*
X175870100Y-124082606D01*
X175870100Y-123614132D01*
X175855374Y-123440580D01*
X175853708Y-123434160D01*
X175798217Y-123220363D01*
X175798216Y-123220359D01*
X175796875Y-123215194D01*
X175701238Y-123002887D01*
X175571196Y-122809728D01*
X175410468Y-122641242D01*
X175223650Y-122502246D01*
X175099549Y-122439150D01*
X175020842Y-122399133D01*
X175020841Y-122399133D01*
X175016084Y-122396714D01*
X174877299Y-122353620D01*
X174798807Y-122329247D01*
X174798801Y-122329246D01*
X174793704Y-122327663D01*
X174639532Y-122307229D01*
X174568152Y-122297768D01*
X174568148Y-122297768D01*
X174562868Y-122297068D01*
X174557538Y-122297268D01*
X174557537Y-122297268D01*
X174449786Y-122301313D01*
X174330178Y-122305803D01*
X174247474Y-122323156D01*
X174107514Y-122352523D01*
X174107511Y-122352524D01*
X174102287Y-122353620D01*
X173885710Y-122439150D01*
X173686641Y-122559949D01*
X173510770Y-122712561D01*
X173507387Y-122716687D01*
X173507383Y-122716691D01*
X173434262Y-122805869D01*
X173363128Y-122892624D01*
X173360489Y-122897260D01*
X173360487Y-122897263D01*
X173337155Y-122938252D01*
X173286073Y-122987558D01*
X173216442Y-123001420D01*
X173150371Y-122975437D01*
X173123133Y-122946287D01*
X173034176Y-122814155D01*
X173031196Y-122809728D01*
X172870468Y-122641242D01*
X172866182Y-122638053D01*
X172817287Y-122601674D01*
X172774574Y-122544964D01*
X172766500Y-122500585D01*
X172766500Y-122056260D01*
X172766507Y-122054941D01*
X172766841Y-122023068D01*
X172767451Y-121964779D01*
X172758289Y-121922403D01*
X172756230Y-121909832D01*
X172754982Y-121898701D01*
X172751397Y-121866745D01*
X172745241Y-121849065D01*
X172740367Y-121835070D01*
X172736204Y-121820258D01*
X172730609Y-121794381D01*
X172729119Y-121787490D01*
X172710793Y-121748189D01*
X172706008Y-121736406D01*
X172691745Y-121695448D01*
X172673979Y-121667016D01*
X172666640Y-121653499D01*
X172655440Y-121629481D01*
X172655438Y-121629477D01*
X172652463Y-121623098D01*
X172648146Y-121617532D01*
X172625891Y-121588840D01*
X172618597Y-121578385D01*
X172599359Y-121547598D01*
X172595626Y-121541624D01*
X172567024Y-121512821D01*
X172566439Y-121512196D01*
X172565922Y-121511530D01*
X172539932Y-121485540D01*
X172467815Y-121412918D01*
X172466778Y-121412260D01*
X172465549Y-121411157D01*
X171025405Y-119971013D01*
X170991379Y-119908701D01*
X170988500Y-119881918D01*
X170988500Y-118823188D01*
X171008502Y-118755067D01*
X171025405Y-118734093D01*
X171185093Y-118574405D01*
X171247405Y-118540379D01*
X171274188Y-118537500D01*
X172327389Y-118537500D01*
X172395510Y-118557502D01*
X172422625Y-118581001D01*
X172528250Y-118702938D01*
X172700126Y-118845632D01*
X172893000Y-118958338D01*
X172897825Y-118960180D01*
X172897826Y-118960181D01*
X172970612Y-118987975D01*
X173101692Y-119038030D01*
X173106760Y-119039061D01*
X173106763Y-119039062D01*
X173214017Y-119060883D01*
X173320597Y-119082567D01*
X173325772Y-119082757D01*
X173325774Y-119082757D01*
X173538673Y-119090564D01*
X173538677Y-119090564D01*
X173543837Y-119090753D01*
X173548957Y-119090097D01*
X173548959Y-119090097D01*
X173760288Y-119063025D01*
X173760289Y-119063025D01*
X173765416Y-119062368D01*
X173831646Y-119042498D01*
X173974429Y-118999661D01*
X173974434Y-118999659D01*
X173979384Y-118998174D01*
X174179994Y-118899896D01*
X174361860Y-118770173D01*
X174393788Y-118738357D01*
X174516435Y-118616137D01*
X174520096Y-118612489D01*
X174551498Y-118568789D01*
X174647435Y-118435277D01*
X174650453Y-118431077D01*
X174670628Y-118390257D01*
X174747136Y-118235453D01*
X174747137Y-118235451D01*
X174749430Y-118230811D01*
X174814370Y-118017069D01*
X174843529Y-117795590D01*
X174845156Y-117729000D01*
X174826852Y-117506361D01*
X174772431Y-117289702D01*
X174683354Y-117084840D01*
X174577038Y-116920500D01*
X174564822Y-116901617D01*
X174564820Y-116901614D01*
X174562014Y-116897277D01*
X174558540Y-116893459D01*
X174558533Y-116893450D01*
X174414435Y-116735088D01*
X174383383Y-116671242D01*
X174391779Y-116600744D01*
X174436956Y-116545976D01*
X174463400Y-116532307D01*
X174570052Y-116492325D01*
X174585649Y-116483786D01*
X174687724Y-116407285D01*
X174700285Y-116394724D01*
X174776786Y-116292649D01*
X174785324Y-116277054D01*
X174830478Y-116156606D01*
X174834105Y-116141351D01*
X174839631Y-116090486D01*
X174840000Y-116083672D01*
X174840000Y-115461115D01*
X174835525Y-115445876D01*
X174834135Y-115444671D01*
X174826452Y-115443000D01*
X172142116Y-115443000D01*
X172126877Y-115447475D01*
X172125672Y-115448865D01*
X172124001Y-115456548D01*
X172124001Y-116083669D01*
X172124371Y-116090490D01*
X172129895Y-116141352D01*
X172133521Y-116156604D01*
X172178676Y-116277054D01*
X172187214Y-116292649D01*
X172263715Y-116394724D01*
X172276276Y-116407285D01*
X172378351Y-116483786D01*
X172393946Y-116492324D01*
X172502827Y-116533142D01*
X172559591Y-116575784D01*
X172584291Y-116642345D01*
X172569083Y-116711694D01*
X172549691Y-116738175D01*
X172495438Y-116794948D01*
X172422629Y-116871138D01*
X172420632Y-116874065D01*
X172362603Y-116914148D01*
X172323102Y-116920500D01*
X171274188Y-116920500D01*
X171206067Y-116900498D01*
X171185093Y-116883595D01*
X171024300Y-116722802D01*
X171019792Y-116719645D01*
X171019789Y-116719643D01*
X170895500Y-116632615D01*
X170836749Y-116591477D01*
X170831767Y-116589154D01*
X170831762Y-116589151D01*
X170634225Y-116497039D01*
X170634224Y-116497039D01*
X170629243Y-116494716D01*
X170623935Y-116493294D01*
X170623933Y-116493293D01*
X170413402Y-116436881D01*
X170413400Y-116436881D01*
X170408087Y-116435457D01*
X170180000Y-116415502D01*
X169951913Y-116435457D01*
X169946600Y-116436881D01*
X169946598Y-116436881D01*
X169736067Y-116493293D01*
X169736065Y-116493294D01*
X169730757Y-116494716D01*
X169643749Y-116535288D01*
X169573558Y-116545949D01*
X169508746Y-116516969D01*
X169469889Y-116457549D01*
X169464500Y-116421093D01*
X169464500Y-115036332D01*
X169484502Y-114968211D01*
X169501405Y-114947237D01*
X169531757Y-114916885D01*
X172124000Y-114916885D01*
X172128475Y-114932124D01*
X172129865Y-114933329D01*
X172137548Y-114935000D01*
X173209885Y-114935000D01*
X173225124Y-114930525D01*
X173226329Y-114929135D01*
X173228000Y-114921452D01*
X173228000Y-114916885D01*
X173736000Y-114916885D01*
X173740475Y-114932124D01*
X173741865Y-114933329D01*
X173749548Y-114935000D01*
X174821884Y-114935000D01*
X174837123Y-114930525D01*
X174838328Y-114929135D01*
X174839999Y-114921452D01*
X174839999Y-114294331D01*
X174839629Y-114287510D01*
X174834105Y-114236648D01*
X174830479Y-114221396D01*
X174785324Y-114100946D01*
X174776786Y-114085351D01*
X174700285Y-113983276D01*
X174687724Y-113970715D01*
X174585649Y-113894214D01*
X174570054Y-113885676D01*
X174449606Y-113840522D01*
X174434351Y-113836895D01*
X174383486Y-113831369D01*
X174376672Y-113831000D01*
X173754115Y-113831000D01*
X173738876Y-113835475D01*
X173737671Y-113836865D01*
X173736000Y-113844548D01*
X173736000Y-114916885D01*
X173228000Y-114916885D01*
X173228000Y-113849116D01*
X173223525Y-113833877D01*
X173222135Y-113832672D01*
X173214452Y-113831001D01*
X172587331Y-113831001D01*
X172580510Y-113831371D01*
X172529648Y-113836895D01*
X172514396Y-113840521D01*
X172393946Y-113885676D01*
X172378351Y-113894214D01*
X172276276Y-113970715D01*
X172263715Y-113983276D01*
X172187214Y-114085351D01*
X172178676Y-114100946D01*
X172133522Y-114221394D01*
X172129895Y-114236649D01*
X172124369Y-114287514D01*
X172124000Y-114294328D01*
X172124000Y-114916885D01*
X169531757Y-114916885D01*
X170745158Y-113703484D01*
X170746095Y-113702556D01*
X170805475Y-113644407D01*
X170805476Y-113644406D01*
X170810507Y-113639479D01*
X170833998Y-113603029D01*
X170841417Y-113592704D01*
X170868476Y-113558807D01*
X170871540Y-113552468D01*
X170871543Y-113552464D01*
X170883074Y-113528612D01*
X170890601Y-113515199D01*
X170904947Y-113492937D01*
X170904948Y-113492934D01*
X170908765Y-113487012D01*
X170911176Y-113480389D01*
X170923592Y-113446277D01*
X170928553Y-113434533D01*
X170944352Y-113401851D01*
X170944353Y-113401849D01*
X170947421Y-113395502D01*
X170954966Y-113362823D01*
X170959334Y-113348075D01*
X170970803Y-113316565D01*
X170971685Y-113309579D01*
X170971687Y-113309573D01*
X170976238Y-113273549D01*
X170978474Y-113260997D01*
X170986638Y-113225636D01*
X170986638Y-113225633D01*
X170988224Y-113218765D01*
X170988366Y-113178194D01*
X170988395Y-113177312D01*
X170988500Y-113176481D01*
X170988500Y-113139678D01*
X170988857Y-113037380D01*
X170988589Y-113036180D01*
X170988500Y-113034543D01*
X170988500Y-111711188D01*
X171008502Y-111643067D01*
X171025405Y-111622093D01*
X171185093Y-111462405D01*
X171247405Y-111428379D01*
X171274188Y-111425500D01*
X172327389Y-111425500D01*
X172395510Y-111445502D01*
X172422625Y-111469001D01*
X172528250Y-111590938D01*
X172700126Y-111733632D01*
X172893000Y-111846338D01*
X172897825Y-111848180D01*
X172897826Y-111848181D01*
X172970612Y-111875975D01*
X173101692Y-111926030D01*
X173106760Y-111927061D01*
X173106763Y-111927062D01*
X173214017Y-111948883D01*
X173320597Y-111970567D01*
X173325772Y-111970757D01*
X173325774Y-111970757D01*
X173538673Y-111978564D01*
X173538677Y-111978564D01*
X173543837Y-111978753D01*
X173548957Y-111978097D01*
X173548959Y-111978097D01*
X173760288Y-111951025D01*
X173760289Y-111951025D01*
X173765416Y-111950368D01*
X173831646Y-111930498D01*
X173974429Y-111887661D01*
X173974434Y-111887659D01*
X173979384Y-111886174D01*
X174179994Y-111787896D01*
X174361860Y-111658173D01*
X174393788Y-111626357D01*
X174516435Y-111504137D01*
X174520096Y-111500489D01*
X174551498Y-111456789D01*
X174647435Y-111323277D01*
X174650453Y-111319077D01*
X174670628Y-111278257D01*
X174747136Y-111123453D01*
X174747137Y-111123451D01*
X174749430Y-111118811D01*
X174814370Y-110905069D01*
X174843529Y-110683590D01*
X174845156Y-110617000D01*
X174826852Y-110394361D01*
X174772431Y-110177702D01*
X174683354Y-109972840D01*
X174577038Y-109808500D01*
X174564822Y-109789617D01*
X174564820Y-109789614D01*
X174562014Y-109785277D01*
X174558540Y-109781459D01*
X174558533Y-109781450D01*
X174414435Y-109623088D01*
X174383383Y-109559242D01*
X174391779Y-109488744D01*
X174436956Y-109433976D01*
X174463400Y-109420307D01*
X174570052Y-109380325D01*
X174585649Y-109371786D01*
X174687724Y-109295285D01*
X174700285Y-109282724D01*
X174776786Y-109180649D01*
X174785324Y-109165054D01*
X174830478Y-109044606D01*
X174834105Y-109029351D01*
X174839631Y-108978486D01*
X174840000Y-108971672D01*
X174840000Y-108349115D01*
X174835525Y-108333876D01*
X174834135Y-108332671D01*
X174826452Y-108331000D01*
X172142116Y-108331000D01*
X172126877Y-108335475D01*
X172125672Y-108336865D01*
X172124001Y-108344548D01*
X172124001Y-108971669D01*
X172124371Y-108978490D01*
X172129895Y-109029352D01*
X172133521Y-109044604D01*
X172178676Y-109165054D01*
X172187214Y-109180649D01*
X172263715Y-109282724D01*
X172276276Y-109295285D01*
X172378351Y-109371786D01*
X172393946Y-109380324D01*
X172502827Y-109421142D01*
X172559591Y-109463784D01*
X172584291Y-109530345D01*
X172569083Y-109599694D01*
X172549691Y-109626175D01*
X172495438Y-109682948D01*
X172422629Y-109759138D01*
X172420632Y-109762065D01*
X172362603Y-109802148D01*
X172323102Y-109808500D01*
X171274188Y-109808500D01*
X171206067Y-109788498D01*
X171185093Y-109771595D01*
X171024300Y-109610802D01*
X171019792Y-109607645D01*
X171019789Y-109607643D01*
X170909396Y-109530345D01*
X170836749Y-109479477D01*
X170831767Y-109477154D01*
X170831762Y-109477151D01*
X170634225Y-109385039D01*
X170634224Y-109385039D01*
X170629243Y-109382716D01*
X170623935Y-109381294D01*
X170623933Y-109381293D01*
X170413402Y-109324881D01*
X170413400Y-109324881D01*
X170408087Y-109323457D01*
X170180000Y-109303502D01*
X169951913Y-109323457D01*
X169946600Y-109324881D01*
X169946598Y-109324881D01*
X169736067Y-109381293D01*
X169736065Y-109381294D01*
X169730757Y-109382716D01*
X169725776Y-109385039D01*
X169725775Y-109385039D01*
X169528238Y-109477151D01*
X169528233Y-109477154D01*
X169523251Y-109479477D01*
X169450604Y-109530345D01*
X169340211Y-109607643D01*
X169340208Y-109607645D01*
X169335700Y-109610802D01*
X169173802Y-109772700D01*
X169170645Y-109777208D01*
X169170643Y-109777211D01*
X169153182Y-109802148D01*
X169042477Y-109960251D01*
X169040154Y-109965233D01*
X169040151Y-109965238D01*
X168948039Y-110162775D01*
X168945716Y-110167757D01*
X168944294Y-110173065D01*
X168944293Y-110173067D01*
X168887881Y-110383598D01*
X168886457Y-110388913D01*
X168866502Y-110617000D01*
X168886457Y-110845087D01*
X168887881Y-110850400D01*
X168887881Y-110850402D01*
X168901155Y-110899939D01*
X168945716Y-111066243D01*
X168948039Y-111071224D01*
X168948039Y-111071225D01*
X169040151Y-111268762D01*
X169040154Y-111268767D01*
X169042477Y-111273749D01*
X169173802Y-111461300D01*
X169334595Y-111622093D01*
X169368621Y-111684405D01*
X169371500Y-111711188D01*
X169371500Y-112738169D01*
X169351498Y-112806290D01*
X169334595Y-112827264D01*
X168155595Y-114006263D01*
X168093283Y-114040289D01*
X168022467Y-114035224D01*
X167965632Y-113992677D01*
X167940821Y-113926157D01*
X167940500Y-113917168D01*
X167940500Y-109480082D01*
X167960502Y-109411961D01*
X167977405Y-109390987D01*
X169563507Y-107804885D01*
X172124000Y-107804885D01*
X172128475Y-107820124D01*
X172129865Y-107821329D01*
X172137548Y-107823000D01*
X173209885Y-107823000D01*
X173225124Y-107818525D01*
X173226329Y-107817135D01*
X173228000Y-107809452D01*
X173228000Y-107804885D01*
X173736000Y-107804885D01*
X173740475Y-107820124D01*
X173741865Y-107821329D01*
X173749548Y-107823000D01*
X174821884Y-107823000D01*
X174837123Y-107818525D01*
X174838328Y-107817135D01*
X174839999Y-107809452D01*
X174839999Y-107182331D01*
X174839629Y-107175510D01*
X174834105Y-107124648D01*
X174830479Y-107109396D01*
X174785324Y-106988946D01*
X174776786Y-106973351D01*
X174700285Y-106871276D01*
X174687724Y-106858715D01*
X174585649Y-106782214D01*
X174570054Y-106773676D01*
X174449606Y-106728522D01*
X174434351Y-106724895D01*
X174383486Y-106719369D01*
X174376672Y-106719000D01*
X173754115Y-106719000D01*
X173738876Y-106723475D01*
X173737671Y-106724865D01*
X173736000Y-106732548D01*
X173736000Y-107804885D01*
X173228000Y-107804885D01*
X173228000Y-106737116D01*
X173223525Y-106721877D01*
X173222135Y-106720672D01*
X173214452Y-106719001D01*
X172587331Y-106719001D01*
X172580510Y-106719371D01*
X172529648Y-106724895D01*
X172514396Y-106728521D01*
X172393946Y-106773676D01*
X172378351Y-106782214D01*
X172276276Y-106858715D01*
X172263715Y-106871276D01*
X172187214Y-106973351D01*
X172178676Y-106988946D01*
X172133522Y-107109394D01*
X172129895Y-107124649D01*
X172124369Y-107175514D01*
X172124000Y-107182328D01*
X172124000Y-107804885D01*
X169563507Y-107804885D01*
X170745158Y-106623234D01*
X170746095Y-106622306D01*
X170805475Y-106564157D01*
X170805476Y-106564156D01*
X170810507Y-106559229D01*
X170833998Y-106522779D01*
X170841417Y-106512454D01*
X170868476Y-106478557D01*
X170883073Y-106448362D01*
X170890602Y-106434945D01*
X170904948Y-106412684D01*
X170908765Y-106406762D01*
X170911173Y-106400145D01*
X170911176Y-106400140D01*
X170923592Y-106366027D01*
X170928553Y-106354284D01*
X170944353Y-106321600D01*
X170944356Y-106321591D01*
X170947421Y-106315251D01*
X170954966Y-106282572D01*
X170959334Y-106267825D01*
X170970803Y-106236315D01*
X170971685Y-106229330D01*
X170971687Y-106229323D01*
X170976237Y-106193308D01*
X170978472Y-106180757D01*
X170986640Y-106145378D01*
X170988225Y-106138515D01*
X170988367Y-106097928D01*
X170988396Y-106097058D01*
X170988500Y-106096231D01*
X170988500Y-106059590D01*
X170988857Y-105957130D01*
X170988589Y-105955930D01*
X170988500Y-105954292D01*
X170988500Y-104599188D01*
X171008502Y-104531067D01*
X171025405Y-104510093D01*
X171185093Y-104350405D01*
X171247405Y-104316379D01*
X171274188Y-104313500D01*
X172327389Y-104313500D01*
X172395510Y-104333502D01*
X172422625Y-104357001D01*
X172528250Y-104478938D01*
X172700126Y-104621632D01*
X172893000Y-104734338D01*
X172897825Y-104736180D01*
X172897826Y-104736181D01*
X172970612Y-104763975D01*
X173101692Y-104814030D01*
X173106760Y-104815061D01*
X173106763Y-104815062D01*
X173214017Y-104836883D01*
X173320597Y-104858567D01*
X173325772Y-104858757D01*
X173325774Y-104858757D01*
X173538673Y-104866564D01*
X173538677Y-104866564D01*
X173543837Y-104866753D01*
X173548957Y-104866097D01*
X173548959Y-104866097D01*
X173760288Y-104839025D01*
X173760289Y-104839025D01*
X173765416Y-104838368D01*
X173831646Y-104818498D01*
X173974429Y-104775661D01*
X173974434Y-104775659D01*
X173979384Y-104774174D01*
X174179994Y-104675896D01*
X174361860Y-104546173D01*
X174393788Y-104514357D01*
X174516435Y-104392137D01*
X174520096Y-104388489D01*
X174551498Y-104344789D01*
X174647435Y-104211277D01*
X174650453Y-104207077D01*
X174670628Y-104166257D01*
X174747136Y-104011453D01*
X174747137Y-104011451D01*
X174749430Y-104006811D01*
X174814370Y-103793069D01*
X174843529Y-103571590D01*
X174845156Y-103505000D01*
X174826852Y-103282361D01*
X174772431Y-103065702D01*
X174683354Y-102860840D01*
X174576587Y-102695803D01*
X174564822Y-102677617D01*
X174564820Y-102677614D01*
X174562014Y-102673277D01*
X174558540Y-102669459D01*
X174558533Y-102669450D01*
X174414435Y-102511088D01*
X174383383Y-102447242D01*
X174391779Y-102376744D01*
X174436956Y-102321976D01*
X174463400Y-102308307D01*
X174570052Y-102268325D01*
X174585649Y-102259786D01*
X174687724Y-102183285D01*
X174700285Y-102170724D01*
X174776786Y-102068649D01*
X174785324Y-102053054D01*
X174830478Y-101932606D01*
X174834105Y-101917351D01*
X174839631Y-101866486D01*
X174840000Y-101859672D01*
X174840000Y-101237115D01*
X174835525Y-101221876D01*
X174834135Y-101220671D01*
X174826452Y-101219000D01*
X172142116Y-101219000D01*
X172126877Y-101223475D01*
X172125672Y-101224865D01*
X172124001Y-101232548D01*
X172124001Y-101859669D01*
X172124371Y-101866490D01*
X172129895Y-101917352D01*
X172133521Y-101932604D01*
X172178676Y-102053054D01*
X172187214Y-102068649D01*
X172263715Y-102170724D01*
X172276276Y-102183285D01*
X172378351Y-102259786D01*
X172393946Y-102268324D01*
X172502827Y-102309142D01*
X172559591Y-102351784D01*
X172584291Y-102418345D01*
X172569083Y-102487694D01*
X172549691Y-102514175D01*
X172495438Y-102570948D01*
X172422629Y-102647138D01*
X172420632Y-102650065D01*
X172362603Y-102690148D01*
X172323102Y-102696500D01*
X171274188Y-102696500D01*
X171206067Y-102676498D01*
X171185093Y-102659595D01*
X171024300Y-102498802D01*
X171019792Y-102495645D01*
X171019789Y-102495643D01*
X170909396Y-102418345D01*
X170836749Y-102367477D01*
X170831767Y-102365154D01*
X170831762Y-102365151D01*
X170634225Y-102273039D01*
X170634224Y-102273039D01*
X170629243Y-102270716D01*
X170623935Y-102269294D01*
X170623933Y-102269293D01*
X170413402Y-102212881D01*
X170413400Y-102212881D01*
X170408087Y-102211457D01*
X170180000Y-102191502D01*
X169951913Y-102211457D01*
X169946600Y-102212881D01*
X169946598Y-102212881D01*
X169736067Y-102269293D01*
X169736065Y-102269294D01*
X169730757Y-102270716D01*
X169725776Y-102273039D01*
X169725775Y-102273039D01*
X169528238Y-102365151D01*
X169528233Y-102365154D01*
X169523251Y-102367477D01*
X169450604Y-102418345D01*
X169340211Y-102495643D01*
X169340208Y-102495645D01*
X169335700Y-102498802D01*
X169173802Y-102660700D01*
X169170645Y-102665208D01*
X169170643Y-102665211D01*
X169148734Y-102696500D01*
X169042477Y-102848251D01*
X169040154Y-102853233D01*
X169040151Y-102853238D01*
X168976019Y-102990771D01*
X168945716Y-103055757D01*
X168944294Y-103061065D01*
X168944293Y-103061067D01*
X168887881Y-103271598D01*
X168886457Y-103276913D01*
X168866502Y-103505000D01*
X168886457Y-103733087D01*
X168887881Y-103738400D01*
X168887881Y-103738402D01*
X168915076Y-103839892D01*
X168945716Y-103954243D01*
X168948039Y-103959224D01*
X168948039Y-103959225D01*
X169040151Y-104156762D01*
X169040154Y-104156767D01*
X169042477Y-104161749D01*
X169173802Y-104349300D01*
X169334595Y-104510093D01*
X169368621Y-104572405D01*
X169371500Y-104599188D01*
X169371500Y-105657918D01*
X169351498Y-105726039D01*
X169334595Y-105747013D01*
X166631595Y-108450013D01*
X166569283Y-108484039D01*
X166498468Y-108478974D01*
X166441632Y-108436427D01*
X166416821Y-108369907D01*
X166416500Y-108360918D01*
X166416500Y-103892082D01*
X166436502Y-103823961D01*
X166453405Y-103802987D01*
X169563507Y-100692885D01*
X172124000Y-100692885D01*
X172128475Y-100708124D01*
X172129865Y-100709329D01*
X172137548Y-100711000D01*
X173209885Y-100711000D01*
X173225124Y-100706525D01*
X173226329Y-100705135D01*
X173228000Y-100697452D01*
X173228000Y-100692885D01*
X173736000Y-100692885D01*
X173740475Y-100708124D01*
X173741865Y-100709329D01*
X173749548Y-100711000D01*
X174821884Y-100711000D01*
X174837123Y-100706525D01*
X174838328Y-100705135D01*
X174839999Y-100697452D01*
X174839999Y-100070331D01*
X174839629Y-100063510D01*
X174834105Y-100012648D01*
X174830479Y-99997396D01*
X174785324Y-99876946D01*
X174776786Y-99861351D01*
X174700285Y-99759276D01*
X174687724Y-99746715D01*
X174585649Y-99670214D01*
X174570054Y-99661676D01*
X174449606Y-99616522D01*
X174434351Y-99612895D01*
X174383486Y-99607369D01*
X174376672Y-99607000D01*
X173754115Y-99607000D01*
X173738876Y-99611475D01*
X173737671Y-99612865D01*
X173736000Y-99620548D01*
X173736000Y-100692885D01*
X173228000Y-100692885D01*
X173228000Y-99625116D01*
X173223525Y-99609877D01*
X173222135Y-99608672D01*
X173214452Y-99607001D01*
X172587331Y-99607001D01*
X172580510Y-99607371D01*
X172529648Y-99612895D01*
X172514396Y-99616521D01*
X172393946Y-99661676D01*
X172378351Y-99670214D01*
X172276276Y-99746715D01*
X172263715Y-99759276D01*
X172187214Y-99861351D01*
X172178676Y-99876946D01*
X172133522Y-99997394D01*
X172129895Y-100012649D01*
X172124369Y-100063514D01*
X172124000Y-100070328D01*
X172124000Y-100692885D01*
X169563507Y-100692885D01*
X170745158Y-99511234D01*
X170746095Y-99510306D01*
X170805475Y-99452157D01*
X170805476Y-99452156D01*
X170810507Y-99447229D01*
X170833998Y-99410779D01*
X170841417Y-99400454D01*
X170868476Y-99366557D01*
X170871540Y-99360218D01*
X170871543Y-99360214D01*
X170883074Y-99336362D01*
X170890601Y-99322949D01*
X170904947Y-99300687D01*
X170904948Y-99300684D01*
X170908765Y-99294762D01*
X170911176Y-99288139D01*
X170923592Y-99254027D01*
X170928553Y-99242283D01*
X170944352Y-99209601D01*
X170944353Y-99209599D01*
X170947421Y-99203252D01*
X170954966Y-99170573D01*
X170959334Y-99155825D01*
X170970803Y-99124315D01*
X170971685Y-99117329D01*
X170971687Y-99117323D01*
X170976238Y-99081299D01*
X170978474Y-99068747D01*
X170986638Y-99033386D01*
X170986638Y-99033383D01*
X170988224Y-99026515D01*
X170988366Y-98985944D01*
X170988395Y-98985062D01*
X170988500Y-98984231D01*
X170988500Y-98947428D01*
X170988857Y-98845130D01*
X170988589Y-98843930D01*
X170988500Y-98842293D01*
X170988500Y-97497188D01*
X171008502Y-97429067D01*
X171025405Y-97408093D01*
X171186198Y-97247300D01*
X171187062Y-97248164D01*
X171241163Y-97212178D01*
X171278562Y-97206500D01*
X172327389Y-97206500D01*
X172395510Y-97226502D01*
X172422625Y-97250001D01*
X172528250Y-97371938D01*
X172700126Y-97514632D01*
X172893000Y-97627338D01*
X172897825Y-97629180D01*
X172897826Y-97629181D01*
X172919046Y-97637284D01*
X173101692Y-97707030D01*
X173106760Y-97708061D01*
X173106763Y-97708062D01*
X173214017Y-97729883D01*
X173320597Y-97751567D01*
X173325772Y-97751757D01*
X173325774Y-97751757D01*
X173538673Y-97759564D01*
X173538677Y-97759564D01*
X173543837Y-97759753D01*
X173548957Y-97759097D01*
X173548959Y-97759097D01*
X173760288Y-97732025D01*
X173760289Y-97732025D01*
X173765416Y-97731368D01*
X173770366Y-97729883D01*
X173974429Y-97668661D01*
X173974434Y-97668659D01*
X173979384Y-97667174D01*
X174179994Y-97568896D01*
X174361860Y-97439173D01*
X174372002Y-97429067D01*
X174516435Y-97285137D01*
X174520096Y-97281489D01*
X174650453Y-97100077D01*
X174668157Y-97064257D01*
X174747136Y-96904453D01*
X174747137Y-96904451D01*
X174749430Y-96899811D01*
X174814370Y-96686069D01*
X174843529Y-96464590D01*
X174845156Y-96398000D01*
X174826852Y-96175361D01*
X174772431Y-95958702D01*
X174683354Y-95753840D01*
X174577038Y-95589500D01*
X174564822Y-95570617D01*
X174564820Y-95570614D01*
X174562014Y-95566277D01*
X174558540Y-95562459D01*
X174558533Y-95562450D01*
X174414435Y-95404088D01*
X174383383Y-95340242D01*
X174391779Y-95269744D01*
X174436956Y-95214976D01*
X174463400Y-95201307D01*
X174570052Y-95161325D01*
X174585649Y-95152786D01*
X174687724Y-95076285D01*
X174700285Y-95063724D01*
X174776786Y-94961649D01*
X174785324Y-94946054D01*
X174830478Y-94825606D01*
X174834105Y-94810351D01*
X174839631Y-94759486D01*
X174840000Y-94752672D01*
X174840000Y-94130115D01*
X174835525Y-94114876D01*
X174834135Y-94113671D01*
X174826452Y-94112000D01*
X172142116Y-94112000D01*
X172126877Y-94116475D01*
X172125672Y-94117865D01*
X172124001Y-94125548D01*
X172124001Y-94752669D01*
X172124371Y-94759490D01*
X172129895Y-94810352D01*
X172133521Y-94825604D01*
X172178676Y-94946054D01*
X172187214Y-94961649D01*
X172263715Y-95063724D01*
X172276276Y-95076285D01*
X172378351Y-95152786D01*
X172393946Y-95161324D01*
X172502827Y-95202142D01*
X172559591Y-95244784D01*
X172584291Y-95311345D01*
X172569083Y-95380694D01*
X172549691Y-95407175D01*
X172495438Y-95463948D01*
X172422629Y-95540138D01*
X172420632Y-95543065D01*
X172362603Y-95583148D01*
X172323102Y-95589500D01*
X171269188Y-95589500D01*
X171201067Y-95569498D01*
X171180093Y-95552595D01*
X171024300Y-95396802D01*
X171019792Y-95393645D01*
X171019789Y-95393643D01*
X170902255Y-95311345D01*
X170836749Y-95265477D01*
X170831767Y-95263154D01*
X170831762Y-95263151D01*
X170634225Y-95171039D01*
X170634224Y-95171039D01*
X170629243Y-95168716D01*
X170623935Y-95167294D01*
X170623933Y-95167293D01*
X170413402Y-95110881D01*
X170413400Y-95110881D01*
X170408087Y-95109457D01*
X170180000Y-95089502D01*
X169951913Y-95109457D01*
X169946600Y-95110881D01*
X169946598Y-95110881D01*
X169736067Y-95167293D01*
X169736065Y-95167294D01*
X169730757Y-95168716D01*
X169725776Y-95171039D01*
X169725775Y-95171039D01*
X169528238Y-95263151D01*
X169528233Y-95263154D01*
X169523251Y-95265477D01*
X169457745Y-95311345D01*
X169340211Y-95393643D01*
X169340208Y-95393645D01*
X169335700Y-95396802D01*
X169173802Y-95558700D01*
X169170645Y-95563208D01*
X169170643Y-95563211D01*
X169115902Y-95641389D01*
X169042477Y-95746251D01*
X169040154Y-95751233D01*
X169040151Y-95751238D01*
X169038938Y-95753840D01*
X168945716Y-95953757D01*
X168886457Y-96174913D01*
X168866502Y-96403000D01*
X168886457Y-96631087D01*
X168945716Y-96852243D01*
X168948039Y-96857224D01*
X168948039Y-96857225D01*
X169040151Y-97054762D01*
X169040154Y-97054767D01*
X169042477Y-97059749D01*
X169173802Y-97247300D01*
X169334595Y-97408093D01*
X169368621Y-97470405D01*
X169371500Y-97497188D01*
X169371500Y-98545919D01*
X169351498Y-98614040D01*
X169334595Y-98635014D01*
X165107595Y-102862013D01*
X165045283Y-102896039D01*
X164974467Y-102890974D01*
X164917632Y-102848427D01*
X164892821Y-102781907D01*
X164892500Y-102772918D01*
X164892500Y-98304082D01*
X164912502Y-98235961D01*
X164929405Y-98214987D01*
X169558507Y-93585885D01*
X172124000Y-93585885D01*
X172128475Y-93601124D01*
X172129865Y-93602329D01*
X172137548Y-93604000D01*
X173209885Y-93604000D01*
X173225124Y-93599525D01*
X173226329Y-93598135D01*
X173228000Y-93590452D01*
X173228000Y-93585885D01*
X173736000Y-93585885D01*
X173740475Y-93601124D01*
X173741865Y-93602329D01*
X173749548Y-93604000D01*
X174821884Y-93604000D01*
X174837123Y-93599525D01*
X174838328Y-93598135D01*
X174839999Y-93590452D01*
X174839999Y-92963331D01*
X174839629Y-92956510D01*
X174834105Y-92905648D01*
X174830479Y-92890396D01*
X174785324Y-92769946D01*
X174776786Y-92754351D01*
X174700285Y-92652276D01*
X174687724Y-92639715D01*
X174585649Y-92563214D01*
X174570054Y-92554676D01*
X174449606Y-92509522D01*
X174434351Y-92505895D01*
X174383486Y-92500369D01*
X174376672Y-92500000D01*
X173754115Y-92500000D01*
X173738876Y-92504475D01*
X173737671Y-92505865D01*
X173736000Y-92513548D01*
X173736000Y-93585885D01*
X173228000Y-93585885D01*
X173228000Y-92518116D01*
X173223525Y-92502877D01*
X173222135Y-92501672D01*
X173214452Y-92500001D01*
X172587331Y-92500001D01*
X172580510Y-92500371D01*
X172529648Y-92505895D01*
X172514396Y-92509521D01*
X172393946Y-92554676D01*
X172378351Y-92563214D01*
X172276276Y-92639715D01*
X172263715Y-92652276D01*
X172187214Y-92754351D01*
X172178676Y-92769946D01*
X172133522Y-92890394D01*
X172129895Y-92905649D01*
X172124369Y-92956514D01*
X172124000Y-92963328D01*
X172124000Y-93585885D01*
X169558507Y-93585885D01*
X170745158Y-92399234D01*
X170746095Y-92398306D01*
X170805475Y-92340157D01*
X170805476Y-92340156D01*
X170810507Y-92335229D01*
X170833998Y-92298779D01*
X170841417Y-92288454D01*
X170868476Y-92254557D01*
X170883073Y-92224362D01*
X170890602Y-92210945D01*
X170904948Y-92188684D01*
X170908765Y-92182762D01*
X170911173Y-92176145D01*
X170911176Y-92176140D01*
X170923592Y-92142027D01*
X170928553Y-92130284D01*
X170944353Y-92097600D01*
X170944356Y-92097591D01*
X170947421Y-92091251D01*
X170954966Y-92058572D01*
X170959334Y-92043825D01*
X170970803Y-92012315D01*
X170971685Y-92005330D01*
X170971687Y-92005323D01*
X170976237Y-91969308D01*
X170978472Y-91956757D01*
X170986640Y-91921378D01*
X170988225Y-91914515D01*
X170988367Y-91873928D01*
X170988396Y-91873058D01*
X170988500Y-91872231D01*
X170988500Y-91835590D01*
X170988857Y-91733130D01*
X170988589Y-91731930D01*
X170988500Y-91730292D01*
X170988500Y-90380188D01*
X171008502Y-90312067D01*
X171025405Y-90291093D01*
X171185093Y-90131405D01*
X171247405Y-90097379D01*
X171274188Y-90094500D01*
X172327389Y-90094500D01*
X172395510Y-90114502D01*
X172422625Y-90138001D01*
X172528250Y-90259938D01*
X172700126Y-90402632D01*
X172893000Y-90515338D01*
X172897825Y-90517180D01*
X172897826Y-90517181D01*
X172970612Y-90544975D01*
X173101692Y-90595030D01*
X173106760Y-90596061D01*
X173106763Y-90596062D01*
X173214017Y-90617883D01*
X173320597Y-90639567D01*
X173325772Y-90639757D01*
X173325774Y-90639757D01*
X173538673Y-90647564D01*
X173538677Y-90647564D01*
X173543837Y-90647753D01*
X173548957Y-90647097D01*
X173548959Y-90647097D01*
X173760288Y-90620025D01*
X173760289Y-90620025D01*
X173765416Y-90619368D01*
X173831646Y-90599498D01*
X173974429Y-90556661D01*
X173974434Y-90556659D01*
X173979384Y-90555174D01*
X174179994Y-90456896D01*
X174361860Y-90327173D01*
X174393788Y-90295357D01*
X174516435Y-90173137D01*
X174520096Y-90169489D01*
X174551498Y-90125789D01*
X174647435Y-89992277D01*
X174650453Y-89988077D01*
X174670628Y-89947257D01*
X174747136Y-89792453D01*
X174747137Y-89792451D01*
X174749430Y-89787811D01*
X174814370Y-89574069D01*
X174843529Y-89352590D01*
X174845156Y-89286000D01*
X174826852Y-89063361D01*
X174772431Y-88846702D01*
X174683354Y-88641840D01*
X174601791Y-88515763D01*
X174564822Y-88458617D01*
X174564820Y-88458614D01*
X174562014Y-88454277D01*
X174558540Y-88450459D01*
X174558533Y-88450450D01*
X174414435Y-88292088D01*
X174383383Y-88228242D01*
X174391779Y-88157744D01*
X174436956Y-88102976D01*
X174463400Y-88089307D01*
X174570052Y-88049325D01*
X174585649Y-88040786D01*
X174687724Y-87964285D01*
X174700285Y-87951724D01*
X174776786Y-87849649D01*
X174785324Y-87834054D01*
X174830478Y-87713606D01*
X174834105Y-87698351D01*
X174839631Y-87647486D01*
X174840000Y-87640672D01*
X174840000Y-87018115D01*
X174835525Y-87002876D01*
X174834135Y-87001671D01*
X174826452Y-87000000D01*
X172142116Y-87000000D01*
X172126877Y-87004475D01*
X172125672Y-87005865D01*
X172124001Y-87013548D01*
X172124001Y-87640669D01*
X172124371Y-87647490D01*
X172129895Y-87698352D01*
X172133521Y-87713604D01*
X172178676Y-87834054D01*
X172187214Y-87849649D01*
X172263715Y-87951724D01*
X172276276Y-87964285D01*
X172378351Y-88040786D01*
X172393946Y-88049324D01*
X172502827Y-88090142D01*
X172559591Y-88132784D01*
X172584291Y-88199345D01*
X172569083Y-88268694D01*
X172549691Y-88295175D01*
X172548472Y-88296451D01*
X172422629Y-88428138D01*
X172420632Y-88431065D01*
X172362603Y-88471148D01*
X172323102Y-88477500D01*
X171274188Y-88477500D01*
X171206067Y-88457498D01*
X171185093Y-88440595D01*
X171024300Y-88279802D01*
X171019792Y-88276645D01*
X171019789Y-88276643D01*
X170858748Y-88163881D01*
X170836749Y-88148477D01*
X170831767Y-88146154D01*
X170831762Y-88146151D01*
X170634225Y-88054039D01*
X170634224Y-88054039D01*
X170629243Y-88051716D01*
X170623935Y-88050294D01*
X170623933Y-88050293D01*
X170413402Y-87993881D01*
X170413400Y-87993881D01*
X170408087Y-87992457D01*
X170180000Y-87972502D01*
X169951913Y-87992457D01*
X169946600Y-87993881D01*
X169946598Y-87993881D01*
X169736067Y-88050293D01*
X169736065Y-88050294D01*
X169730757Y-88051716D01*
X169725776Y-88054039D01*
X169725775Y-88054039D01*
X169528238Y-88146151D01*
X169528233Y-88146154D01*
X169523251Y-88148477D01*
X169501252Y-88163881D01*
X169340211Y-88276643D01*
X169340208Y-88276645D01*
X169335700Y-88279802D01*
X169173802Y-88441700D01*
X169170645Y-88446208D01*
X169170643Y-88446211D01*
X169153182Y-88471148D01*
X169042477Y-88629251D01*
X169040154Y-88634233D01*
X169040151Y-88634238D01*
X168948039Y-88831775D01*
X168945716Y-88836757D01*
X168944294Y-88842065D01*
X168944293Y-88842067D01*
X168893659Y-89031036D01*
X168886457Y-89057913D01*
X168866502Y-89286000D01*
X168886457Y-89514087D01*
X168887881Y-89519400D01*
X168887881Y-89519402D01*
X168901155Y-89568939D01*
X168945716Y-89735243D01*
X168948039Y-89740224D01*
X168948039Y-89740225D01*
X169040151Y-89937762D01*
X169040154Y-89937767D01*
X169042477Y-89942749D01*
X169173802Y-90130300D01*
X169334595Y-90291093D01*
X169368621Y-90353405D01*
X169371500Y-90380188D01*
X169371500Y-91433918D01*
X169351498Y-91502039D01*
X169334595Y-91523013D01*
X163518842Y-97338766D01*
X163517905Y-97339694D01*
X163481607Y-97375240D01*
X163453493Y-97402771D01*
X163430002Y-97439221D01*
X163422583Y-97449546D01*
X163395524Y-97483443D01*
X163392459Y-97489784D01*
X163392458Y-97489785D01*
X163380928Y-97513637D01*
X163373399Y-97527054D01*
X163355235Y-97555238D01*
X163352827Y-97561855D01*
X163352824Y-97561860D01*
X163340408Y-97595973D01*
X163335447Y-97607716D01*
X163319646Y-97640403D01*
X163319644Y-97640408D01*
X163316579Y-97646749D01*
X163314996Y-97653607D01*
X163314995Y-97653609D01*
X163309035Y-97679426D01*
X163304668Y-97694169D01*
X163293197Y-97725685D01*
X163292314Y-97732675D01*
X163292312Y-97732683D01*
X163287762Y-97768701D01*
X163285526Y-97781253D01*
X163275776Y-97823485D01*
X163275751Y-97830531D01*
X163275751Y-97830534D01*
X163275634Y-97864056D01*
X163275605Y-97864938D01*
X163275500Y-97865769D01*
X163275500Y-97902572D01*
X163275143Y-98004870D01*
X163275411Y-98006070D01*
X163275500Y-98007707D01*
X163275500Y-119373919D01*
X163255498Y-119442040D01*
X163238595Y-119463014D01*
X161232843Y-121468765D01*
X161231906Y-121469693D01*
X161189184Y-121511530D01*
X161167493Y-121532771D01*
X161144002Y-121569221D01*
X161136583Y-121579546D01*
X161109524Y-121613443D01*
X161106459Y-121619784D01*
X161106458Y-121619785D01*
X161094928Y-121643637D01*
X161087399Y-121657054D01*
X161069235Y-121685238D01*
X161066827Y-121691855D01*
X161066824Y-121691860D01*
X161054408Y-121725973D01*
X161049447Y-121737716D01*
X161033646Y-121770403D01*
X161033644Y-121770408D01*
X161030579Y-121776749D01*
X161028996Y-121783607D01*
X161028995Y-121783609D01*
X161023035Y-121809426D01*
X161018668Y-121824169D01*
X161007197Y-121855685D01*
X161006314Y-121862675D01*
X161006312Y-121862683D01*
X161001762Y-121898701D01*
X160999526Y-121911253D01*
X160994050Y-121934974D01*
X160989776Y-121953485D01*
X160989751Y-121960531D01*
X160989751Y-121960534D01*
X160989634Y-121994056D01*
X160989605Y-121994938D01*
X160989500Y-121995769D01*
X160989500Y-122032419D01*
X160989499Y-122032859D01*
X160989216Y-122114027D01*
X160989143Y-122134870D01*
X160989411Y-122136070D01*
X160989500Y-122137707D01*
X160989500Y-122499980D01*
X160969498Y-122568101D01*
X160946081Y-122595145D01*
X160810770Y-122712561D01*
X160807387Y-122716687D01*
X160807383Y-122716691D01*
X160734262Y-122805869D01*
X160663128Y-122892624D01*
X160660489Y-122897260D01*
X160660487Y-122897263D01*
X160597589Y-123007760D01*
X160547935Y-123094989D01*
X160546114Y-123100005D01*
X160546112Y-123100010D01*
X160470305Y-123308854D01*
X160468485Y-123313869D01*
X160427050Y-123543007D01*
X160426855Y-123547146D01*
X160426854Y-123547153D01*
X160425970Y-123565905D01*
X160425900Y-123567394D01*
X160425900Y-124035868D01*
X158090100Y-124035868D01*
X158090100Y-123614132D01*
X158075374Y-123440580D01*
X158073708Y-123434160D01*
X158018217Y-123220363D01*
X158018216Y-123220359D01*
X158016875Y-123215194D01*
X157921238Y-123002887D01*
X157791196Y-122809728D01*
X157630468Y-122641242D01*
X157443650Y-122502246D01*
X157319549Y-122439150D01*
X157240842Y-122399133D01*
X157240841Y-122399133D01*
X157236084Y-122396714D01*
X157097299Y-122353620D01*
X157018807Y-122329247D01*
X157018801Y-122329246D01*
X157013704Y-122327663D01*
X156859532Y-122307229D01*
X156788152Y-122297768D01*
X156788148Y-122297768D01*
X156782868Y-122297068D01*
X156777538Y-122297268D01*
X156777537Y-122297268D01*
X156669786Y-122301313D01*
X156550178Y-122305803D01*
X156467474Y-122323156D01*
X156327514Y-122352523D01*
X156327511Y-122352524D01*
X156322287Y-122353620D01*
X156105710Y-122439150D01*
X155906641Y-122559949D01*
X155730770Y-122712561D01*
X155727387Y-122716687D01*
X155727383Y-122716691D01*
X155654262Y-122805869D01*
X155583128Y-122892624D01*
X155580489Y-122897260D01*
X155580487Y-122897263D01*
X155557155Y-122938252D01*
X155506073Y-122987558D01*
X155436442Y-123001420D01*
X155370371Y-122975437D01*
X155343133Y-122946287D01*
X155254176Y-122814155D01*
X155251196Y-122809728D01*
X155090468Y-122641242D01*
X154903650Y-122502246D01*
X154779549Y-122439150D01*
X154700842Y-122399133D01*
X154700841Y-122399133D01*
X154696084Y-122396714D01*
X154557299Y-122353620D01*
X154478807Y-122329247D01*
X154478801Y-122329246D01*
X154473704Y-122327663D01*
X154319532Y-122307229D01*
X154248152Y-122297768D01*
X154248148Y-122297768D01*
X154242868Y-122297068D01*
X154237538Y-122297268D01*
X154237537Y-122297268D01*
X154129786Y-122301313D01*
X154010178Y-122305803D01*
X153927474Y-122323156D01*
X153787514Y-122352523D01*
X153787511Y-122352524D01*
X153782287Y-122353620D01*
X153749660Y-122366505D01*
X153588281Y-122430236D01*
X153517575Y-122436654D01*
X153454624Y-122403826D01*
X153419414Y-122342176D01*
X153416000Y-122313044D01*
X153416000Y-117729000D01*
X158706502Y-117729000D01*
X158726457Y-117957087D01*
X158727881Y-117962400D01*
X158727881Y-117962402D01*
X158741155Y-118011939D01*
X158785716Y-118178243D01*
X158788039Y-118183224D01*
X158788039Y-118183225D01*
X158880151Y-118380762D01*
X158880154Y-118380767D01*
X158882477Y-118385749D01*
X159013802Y-118573300D01*
X159175700Y-118735198D01*
X159180208Y-118738355D01*
X159180211Y-118738357D01*
X159220445Y-118766529D01*
X159363251Y-118866523D01*
X159368233Y-118868846D01*
X159368238Y-118868849D01*
X159565775Y-118960961D01*
X159570757Y-118963284D01*
X159576065Y-118964706D01*
X159576067Y-118964707D01*
X159786598Y-119021119D01*
X159786600Y-119021119D01*
X159791913Y-119022543D01*
X160020000Y-119042498D01*
X160248087Y-119022543D01*
X160253400Y-119021119D01*
X160253402Y-119021119D01*
X160463933Y-118964707D01*
X160463935Y-118964706D01*
X160469243Y-118963284D01*
X160474225Y-118960961D01*
X160671762Y-118868849D01*
X160671767Y-118868846D01*
X160676749Y-118866523D01*
X160819555Y-118766529D01*
X160859789Y-118738357D01*
X160859792Y-118738355D01*
X160864300Y-118735198D01*
X161026198Y-118573300D01*
X161157523Y-118385749D01*
X161159846Y-118380767D01*
X161159849Y-118380762D01*
X161251961Y-118183225D01*
X161251961Y-118183224D01*
X161254284Y-118178243D01*
X161298846Y-118011939D01*
X161312119Y-117962402D01*
X161312119Y-117962400D01*
X161313543Y-117957087D01*
X161333498Y-117729000D01*
X161313543Y-117500913D01*
X161312119Y-117495598D01*
X161255707Y-117285067D01*
X161255706Y-117285065D01*
X161254284Y-117279757D01*
X161251961Y-117274775D01*
X161159849Y-117077238D01*
X161159846Y-117077233D01*
X161157523Y-117072251D01*
X161046818Y-116914148D01*
X161029357Y-116889211D01*
X161029355Y-116889208D01*
X161026198Y-116884700D01*
X160864300Y-116722802D01*
X160859792Y-116719645D01*
X160859789Y-116719643D01*
X160735500Y-116632615D01*
X160676749Y-116591477D01*
X160671767Y-116589154D01*
X160671762Y-116589151D01*
X160474225Y-116497039D01*
X160474224Y-116497039D01*
X160469243Y-116494716D01*
X160463935Y-116493294D01*
X160463933Y-116493293D01*
X160253402Y-116436881D01*
X160253400Y-116436881D01*
X160248087Y-116435457D01*
X160020000Y-116415502D01*
X159791913Y-116435457D01*
X159786600Y-116436881D01*
X159786598Y-116436881D01*
X159576067Y-116493293D01*
X159576065Y-116493294D01*
X159570757Y-116494716D01*
X159565776Y-116497039D01*
X159565775Y-116497039D01*
X159368238Y-116589151D01*
X159368233Y-116589154D01*
X159363251Y-116591477D01*
X159304500Y-116632615D01*
X159180211Y-116719643D01*
X159180208Y-116719645D01*
X159175700Y-116722802D01*
X159013802Y-116884700D01*
X159010645Y-116889208D01*
X159010643Y-116889211D01*
X158993182Y-116914148D01*
X158882477Y-117072251D01*
X158880154Y-117077233D01*
X158880151Y-117077238D01*
X158788039Y-117274775D01*
X158785716Y-117279757D01*
X158784294Y-117285065D01*
X158784293Y-117285067D01*
X158727881Y-117495598D01*
X158726457Y-117500913D01*
X158706502Y-117729000D01*
X153416000Y-117729000D01*
X153416000Y-110617000D01*
X158706502Y-110617000D01*
X158726457Y-110845087D01*
X158727881Y-110850400D01*
X158727881Y-110850402D01*
X158741155Y-110899939D01*
X158785716Y-111066243D01*
X158788039Y-111071224D01*
X158788039Y-111071225D01*
X158880151Y-111268762D01*
X158880154Y-111268767D01*
X158882477Y-111273749D01*
X159013802Y-111461300D01*
X159175700Y-111623198D01*
X159180208Y-111626355D01*
X159180211Y-111626357D01*
X159220445Y-111654529D01*
X159363251Y-111754523D01*
X159368233Y-111756846D01*
X159368238Y-111756849D01*
X159565775Y-111848961D01*
X159570757Y-111851284D01*
X159576065Y-111852706D01*
X159576067Y-111852707D01*
X159786598Y-111909119D01*
X159786600Y-111909119D01*
X159791913Y-111910543D01*
X160020000Y-111930498D01*
X160248087Y-111910543D01*
X160253400Y-111909119D01*
X160253402Y-111909119D01*
X160463933Y-111852707D01*
X160463935Y-111852706D01*
X160469243Y-111851284D01*
X160474225Y-111848961D01*
X160671762Y-111756849D01*
X160671767Y-111756846D01*
X160676749Y-111754523D01*
X160819555Y-111654529D01*
X160859789Y-111626357D01*
X160859792Y-111626355D01*
X160864300Y-111623198D01*
X161026198Y-111461300D01*
X161157523Y-111273749D01*
X161159846Y-111268767D01*
X161159849Y-111268762D01*
X161251961Y-111071225D01*
X161251961Y-111071224D01*
X161254284Y-111066243D01*
X161298846Y-110899939D01*
X161312119Y-110850402D01*
X161312119Y-110850400D01*
X161313543Y-110845087D01*
X161333498Y-110617000D01*
X161313543Y-110388913D01*
X161312119Y-110383598D01*
X161255707Y-110173067D01*
X161255706Y-110173065D01*
X161254284Y-110167757D01*
X161251961Y-110162775D01*
X161159849Y-109965238D01*
X161159846Y-109965233D01*
X161157523Y-109960251D01*
X161046818Y-109802148D01*
X161029357Y-109777211D01*
X161029355Y-109777208D01*
X161026198Y-109772700D01*
X160864300Y-109610802D01*
X160859792Y-109607645D01*
X160859789Y-109607643D01*
X160749396Y-109530345D01*
X160676749Y-109479477D01*
X160671767Y-109477154D01*
X160671762Y-109477151D01*
X160474225Y-109385039D01*
X160474224Y-109385039D01*
X160469243Y-109382716D01*
X160463935Y-109381294D01*
X160463933Y-109381293D01*
X160253402Y-109324881D01*
X160253400Y-109324881D01*
X160248087Y-109323457D01*
X160020000Y-109303502D01*
X159791913Y-109323457D01*
X159786600Y-109324881D01*
X159786598Y-109324881D01*
X159576067Y-109381293D01*
X159576065Y-109381294D01*
X159570757Y-109382716D01*
X159565776Y-109385039D01*
X159565775Y-109385039D01*
X159368238Y-109477151D01*
X159368233Y-109477154D01*
X159363251Y-109479477D01*
X159290604Y-109530345D01*
X159180211Y-109607643D01*
X159180208Y-109607645D01*
X159175700Y-109610802D01*
X159013802Y-109772700D01*
X159010645Y-109777208D01*
X159010643Y-109777211D01*
X158993182Y-109802148D01*
X158882477Y-109960251D01*
X158880154Y-109965233D01*
X158880151Y-109965238D01*
X158788039Y-110162775D01*
X158785716Y-110167757D01*
X158784294Y-110173065D01*
X158784293Y-110173067D01*
X158727881Y-110383598D01*
X158726457Y-110388913D01*
X158706502Y-110617000D01*
X153416000Y-110617000D01*
X153416000Y-103505000D01*
X158706502Y-103505000D01*
X158726457Y-103733087D01*
X158727881Y-103738400D01*
X158727881Y-103738402D01*
X158755076Y-103839892D01*
X158785716Y-103954243D01*
X158788039Y-103959224D01*
X158788039Y-103959225D01*
X158880151Y-104156762D01*
X158880154Y-104156767D01*
X158882477Y-104161749D01*
X159013802Y-104349300D01*
X159175700Y-104511198D01*
X159180208Y-104514355D01*
X159180211Y-104514357D01*
X159220445Y-104542529D01*
X159363251Y-104642523D01*
X159368233Y-104644846D01*
X159368238Y-104644849D01*
X159565775Y-104736961D01*
X159570757Y-104739284D01*
X159576065Y-104740706D01*
X159576067Y-104740707D01*
X159786598Y-104797119D01*
X159786600Y-104797119D01*
X159791913Y-104798543D01*
X160020000Y-104818498D01*
X160248087Y-104798543D01*
X160253400Y-104797119D01*
X160253402Y-104797119D01*
X160463933Y-104740707D01*
X160463935Y-104740706D01*
X160469243Y-104739284D01*
X160474225Y-104736961D01*
X160671762Y-104644849D01*
X160671767Y-104644846D01*
X160676749Y-104642523D01*
X160819555Y-104542529D01*
X160859789Y-104514357D01*
X160859792Y-104514355D01*
X160864300Y-104511198D01*
X161026198Y-104349300D01*
X161157523Y-104161749D01*
X161159846Y-104156767D01*
X161159849Y-104156762D01*
X161251961Y-103959225D01*
X161251961Y-103959224D01*
X161254284Y-103954243D01*
X161284925Y-103839892D01*
X161312119Y-103738402D01*
X161312119Y-103738400D01*
X161313543Y-103733087D01*
X161333498Y-103505000D01*
X161313543Y-103276913D01*
X161312119Y-103271598D01*
X161255707Y-103061067D01*
X161255706Y-103061065D01*
X161254284Y-103055757D01*
X161223981Y-102990771D01*
X161159849Y-102853238D01*
X161159846Y-102853233D01*
X161157523Y-102848251D01*
X161051266Y-102696500D01*
X161029357Y-102665211D01*
X161029355Y-102665208D01*
X161026198Y-102660700D01*
X160864300Y-102498802D01*
X160859792Y-102495645D01*
X160859789Y-102495643D01*
X160749396Y-102418345D01*
X160676749Y-102367477D01*
X160671767Y-102365154D01*
X160671762Y-102365151D01*
X160474225Y-102273039D01*
X160474224Y-102273039D01*
X160469243Y-102270716D01*
X160463935Y-102269294D01*
X160463933Y-102269293D01*
X160253402Y-102212881D01*
X160253400Y-102212881D01*
X160248087Y-102211457D01*
X160020000Y-102191502D01*
X159791913Y-102211457D01*
X159786600Y-102212881D01*
X159786598Y-102212881D01*
X159576067Y-102269293D01*
X159576065Y-102269294D01*
X159570757Y-102270716D01*
X159565776Y-102273039D01*
X159565775Y-102273039D01*
X159368238Y-102365151D01*
X159368233Y-102365154D01*
X159363251Y-102367477D01*
X159290604Y-102418345D01*
X159180211Y-102495643D01*
X159180208Y-102495645D01*
X159175700Y-102498802D01*
X159013802Y-102660700D01*
X159010645Y-102665208D01*
X159010643Y-102665211D01*
X158988734Y-102696500D01*
X158882477Y-102848251D01*
X158880154Y-102853233D01*
X158880151Y-102853238D01*
X158816019Y-102990771D01*
X158785716Y-103055757D01*
X158784294Y-103061065D01*
X158784293Y-103061067D01*
X158727881Y-103271598D01*
X158726457Y-103276913D01*
X158706502Y-103505000D01*
X153416000Y-103505000D01*
X153416000Y-101259273D01*
X153436002Y-101191152D01*
X153452905Y-101170178D01*
X153765914Y-100857169D01*
X153780326Y-100844783D01*
X153791921Y-100836250D01*
X153791926Y-100836245D01*
X153797821Y-100831907D01*
X153802560Y-100826329D01*
X153802563Y-100826326D01*
X153832038Y-100791631D01*
X153838968Y-100784115D01*
X153844663Y-100778420D01*
X153862284Y-100756148D01*
X153865075Y-100752744D01*
X153907594Y-100702696D01*
X153907595Y-100702694D01*
X153912336Y-100697114D01*
X153915664Y-100690598D01*
X153919031Y-100685549D01*
X153922198Y-100680420D01*
X153926737Y-100674683D01*
X153957658Y-100608524D01*
X153959564Y-100604624D01*
X153992772Y-100539591D01*
X153994511Y-100532483D01*
X153996610Y-100526840D01*
X153998527Y-100521077D01*
X154001625Y-100514449D01*
X154016490Y-100442982D01*
X154017460Y-100438698D01*
X154033476Y-100373244D01*
X154034811Y-100367789D01*
X154035503Y-100356635D01*
X154035539Y-100356637D01*
X154035778Y-100352644D01*
X154036152Y-100348452D01*
X154037643Y-100341284D01*
X154035549Y-100263878D01*
X154035503Y-100260471D01*
X154035503Y-96403000D01*
X158706502Y-96403000D01*
X158726457Y-96631087D01*
X158785716Y-96852243D01*
X158788039Y-96857224D01*
X158788039Y-96857225D01*
X158880151Y-97054762D01*
X158880154Y-97054767D01*
X158882477Y-97059749D01*
X159013802Y-97247300D01*
X159175700Y-97409198D01*
X159180208Y-97412355D01*
X159180211Y-97412357D01*
X159218554Y-97439205D01*
X159363251Y-97540523D01*
X159368233Y-97542846D01*
X159368238Y-97542849D01*
X159553380Y-97629181D01*
X159570757Y-97637284D01*
X159576065Y-97638706D01*
X159576067Y-97638707D01*
X159786598Y-97695119D01*
X159786600Y-97695119D01*
X159791913Y-97696543D01*
X160020000Y-97716498D01*
X160248087Y-97696543D01*
X160253400Y-97695119D01*
X160253402Y-97695119D01*
X160463933Y-97638707D01*
X160463935Y-97638706D01*
X160469243Y-97637284D01*
X160486620Y-97629181D01*
X160671762Y-97542849D01*
X160671767Y-97542846D01*
X160676749Y-97540523D01*
X160821446Y-97439205D01*
X160859789Y-97412357D01*
X160859792Y-97412355D01*
X160864300Y-97409198D01*
X161026198Y-97247300D01*
X161157523Y-97059749D01*
X161159846Y-97054767D01*
X161159849Y-97054762D01*
X161251961Y-96857225D01*
X161251961Y-96857224D01*
X161254284Y-96852243D01*
X161313543Y-96631087D01*
X161333498Y-96403000D01*
X161313543Y-96174913D01*
X161254284Y-95953757D01*
X161161062Y-95753840D01*
X161159849Y-95751238D01*
X161159846Y-95751233D01*
X161157523Y-95746251D01*
X161084098Y-95641389D01*
X161029357Y-95563211D01*
X161029355Y-95563208D01*
X161026198Y-95558700D01*
X160864300Y-95396802D01*
X160859792Y-95393645D01*
X160859789Y-95393643D01*
X160742255Y-95311345D01*
X160676749Y-95265477D01*
X160671767Y-95263154D01*
X160671762Y-95263151D01*
X160474225Y-95171039D01*
X160474224Y-95171039D01*
X160469243Y-95168716D01*
X160463935Y-95167294D01*
X160463933Y-95167293D01*
X160253402Y-95110881D01*
X160253400Y-95110881D01*
X160248087Y-95109457D01*
X160020000Y-95089502D01*
X159791913Y-95109457D01*
X159786600Y-95110881D01*
X159786598Y-95110881D01*
X159576067Y-95167293D01*
X159576065Y-95167294D01*
X159570757Y-95168716D01*
X159565776Y-95171039D01*
X159565775Y-95171039D01*
X159368238Y-95263151D01*
X159368233Y-95263154D01*
X159363251Y-95265477D01*
X159297745Y-95311345D01*
X159180211Y-95393643D01*
X159180208Y-95393645D01*
X159175700Y-95396802D01*
X159013802Y-95558700D01*
X159010645Y-95563208D01*
X159010643Y-95563211D01*
X158955902Y-95641389D01*
X158882477Y-95746251D01*
X158880154Y-95751233D01*
X158880151Y-95751238D01*
X158878938Y-95753840D01*
X158785716Y-95953757D01*
X158726457Y-96174913D01*
X158706502Y-96403000D01*
X154035503Y-96403000D01*
X154035503Y-89286000D01*
X158706502Y-89286000D01*
X158726457Y-89514087D01*
X158727881Y-89519400D01*
X158727881Y-89519402D01*
X158741155Y-89568939D01*
X158785716Y-89735243D01*
X158788039Y-89740224D01*
X158788039Y-89740225D01*
X158880151Y-89937762D01*
X158880154Y-89937767D01*
X158882477Y-89942749D01*
X159013802Y-90130300D01*
X159175700Y-90292198D01*
X159180208Y-90295355D01*
X159180211Y-90295357D01*
X159220445Y-90323529D01*
X159363251Y-90423523D01*
X159368233Y-90425846D01*
X159368238Y-90425849D01*
X159565775Y-90517961D01*
X159570757Y-90520284D01*
X159576065Y-90521706D01*
X159576067Y-90521707D01*
X159786598Y-90578119D01*
X159786600Y-90578119D01*
X159791913Y-90579543D01*
X160020000Y-90599498D01*
X160248087Y-90579543D01*
X160253400Y-90578119D01*
X160253402Y-90578119D01*
X160463933Y-90521707D01*
X160463935Y-90521706D01*
X160469243Y-90520284D01*
X160474225Y-90517961D01*
X160671762Y-90425849D01*
X160671767Y-90425846D01*
X160676749Y-90423523D01*
X160819555Y-90323529D01*
X160859789Y-90295357D01*
X160859792Y-90295355D01*
X160864300Y-90292198D01*
X161026198Y-90130300D01*
X161157523Y-89942749D01*
X161159846Y-89937767D01*
X161159849Y-89937762D01*
X161251961Y-89740225D01*
X161251961Y-89740224D01*
X161254284Y-89735243D01*
X161298846Y-89568939D01*
X161312119Y-89519402D01*
X161312119Y-89519400D01*
X161313543Y-89514087D01*
X161333498Y-89286000D01*
X161313543Y-89057913D01*
X161306341Y-89031036D01*
X161255707Y-88842067D01*
X161255706Y-88842065D01*
X161254284Y-88836757D01*
X161251961Y-88831775D01*
X161159849Y-88634238D01*
X161159846Y-88634233D01*
X161157523Y-88629251D01*
X161046818Y-88471148D01*
X161029357Y-88446211D01*
X161029355Y-88446208D01*
X161026198Y-88441700D01*
X160864300Y-88279802D01*
X160859792Y-88276645D01*
X160859789Y-88276643D01*
X160698748Y-88163881D01*
X160676749Y-88148477D01*
X160671767Y-88146154D01*
X160671762Y-88146151D01*
X160474225Y-88054039D01*
X160474224Y-88054039D01*
X160469243Y-88051716D01*
X160463935Y-88050294D01*
X160463933Y-88050293D01*
X160253402Y-87993881D01*
X160253400Y-87993881D01*
X160248087Y-87992457D01*
X160020000Y-87972502D01*
X159791913Y-87992457D01*
X159786600Y-87993881D01*
X159786598Y-87993881D01*
X159576067Y-88050293D01*
X159576065Y-88050294D01*
X159570757Y-88051716D01*
X159565776Y-88054039D01*
X159565775Y-88054039D01*
X159368238Y-88146151D01*
X159368233Y-88146154D01*
X159363251Y-88148477D01*
X159341252Y-88163881D01*
X159180211Y-88276643D01*
X159180208Y-88276645D01*
X159175700Y-88279802D01*
X159013802Y-88441700D01*
X159010645Y-88446208D01*
X159010643Y-88446211D01*
X158993182Y-88471148D01*
X158882477Y-88629251D01*
X158880154Y-88634233D01*
X158880151Y-88634238D01*
X158788039Y-88831775D01*
X158785716Y-88836757D01*
X158784294Y-88842065D01*
X158784293Y-88842067D01*
X158733659Y-89031036D01*
X158726457Y-89057913D01*
X158706502Y-89286000D01*
X154035503Y-89286000D01*
X154035503Y-88798182D01*
X154055505Y-88730061D01*
X154072408Y-88709087D01*
X156307610Y-86473885D01*
X172124000Y-86473885D01*
X172128475Y-86489124D01*
X172129865Y-86490329D01*
X172137548Y-86492000D01*
X173209885Y-86492000D01*
X173225124Y-86487525D01*
X173226329Y-86486135D01*
X173228000Y-86478452D01*
X173228000Y-86473885D01*
X173736000Y-86473885D01*
X173740475Y-86489124D01*
X173741865Y-86490329D01*
X173749548Y-86492000D01*
X174821884Y-86492000D01*
X174837123Y-86487525D01*
X174838328Y-86486135D01*
X174839999Y-86478452D01*
X174839999Y-85851331D01*
X174839629Y-85844510D01*
X174834105Y-85793648D01*
X174830479Y-85778396D01*
X174785324Y-85657946D01*
X174776786Y-85642351D01*
X174700285Y-85540276D01*
X174687724Y-85527715D01*
X174585649Y-85451214D01*
X174570054Y-85442676D01*
X174449606Y-85397522D01*
X174434351Y-85393895D01*
X174383486Y-85388369D01*
X174376672Y-85388000D01*
X173754115Y-85388000D01*
X173738876Y-85392475D01*
X173737671Y-85393865D01*
X173736000Y-85401548D01*
X173736000Y-86473885D01*
X173228000Y-86473885D01*
X173228000Y-85406116D01*
X173223525Y-85390877D01*
X173222135Y-85389672D01*
X173214452Y-85388001D01*
X172587331Y-85388001D01*
X172580510Y-85388371D01*
X172529648Y-85393895D01*
X172514396Y-85397521D01*
X172393946Y-85442676D01*
X172378351Y-85451214D01*
X172276276Y-85527715D01*
X172263715Y-85540276D01*
X172187214Y-85642351D01*
X172178676Y-85657946D01*
X172133522Y-85778394D01*
X172129895Y-85793649D01*
X172124369Y-85844514D01*
X172124000Y-85851328D01*
X172124000Y-86473885D01*
X156307610Y-86473885D01*
X158792364Y-83989131D01*
X158854676Y-83955105D01*
X158881459Y-83952226D01*
X163754204Y-83952226D01*
X163773154Y-83953659D01*
X163787389Y-83955825D01*
X163787393Y-83955825D01*
X163794623Y-83956925D01*
X163801915Y-83956332D01*
X163801918Y-83956332D01*
X163847292Y-83952641D01*
X163857507Y-83952226D01*
X163865567Y-83952226D01*
X163878857Y-83950677D01*
X163893781Y-83948937D01*
X163898156Y-83948504D01*
X163963613Y-83943180D01*
X163963616Y-83943179D01*
X163970911Y-83942586D01*
X163977875Y-83940330D01*
X163983834Y-83939139D01*
X163989689Y-83937755D01*
X163996955Y-83936908D01*
X164065601Y-83911991D01*
X164069729Y-83910574D01*
X164132210Y-83890333D01*
X164132212Y-83890332D01*
X164139173Y-83888077D01*
X164145428Y-83884281D01*
X164150902Y-83881775D01*
X164156332Y-83879056D01*
X164163211Y-83876559D01*
X164224250Y-83836540D01*
X164227954Y-83834203D01*
X164290381Y-83796321D01*
X164298758Y-83788923D01*
X164298782Y-83788950D01*
X164301774Y-83786297D01*
X164305007Y-83783594D01*
X164311126Y-83779582D01*
X164364402Y-83723343D01*
X164366780Y-83720901D01*
X165941986Y-82145695D01*
X172119251Y-82145695D01*
X172119548Y-82150848D01*
X172119548Y-82150851D01*
X172125011Y-82245590D01*
X172132110Y-82368715D01*
X172133247Y-82373761D01*
X172133248Y-82373767D01*
X172138782Y-82398321D01*
X172181222Y-82586639D01*
X172265266Y-82793616D01*
X172381987Y-82984088D01*
X172528250Y-83152938D01*
X172700126Y-83295632D01*
X172893000Y-83408338D01*
X173101692Y-83488030D01*
X173106760Y-83489061D01*
X173106763Y-83489062D01*
X173214017Y-83510883D01*
X173320597Y-83532567D01*
X173325772Y-83532757D01*
X173325774Y-83532757D01*
X173538673Y-83540564D01*
X173538677Y-83540564D01*
X173543837Y-83540753D01*
X173548957Y-83540097D01*
X173548959Y-83540097D01*
X173760288Y-83513025D01*
X173760289Y-83513025D01*
X173765416Y-83512368D01*
X173770366Y-83510883D01*
X173974429Y-83449661D01*
X173974434Y-83449659D01*
X173979384Y-83448174D01*
X174179994Y-83349896D01*
X174361860Y-83220173D01*
X174520096Y-83062489D01*
X174579594Y-82979689D01*
X174647435Y-82885277D01*
X174650453Y-82881077D01*
X174749430Y-82680811D01*
X174814370Y-82467069D01*
X174843529Y-82245590D01*
X174845156Y-82179000D01*
X174826852Y-81956361D01*
X174772431Y-81739702D01*
X174683354Y-81534840D01*
X174581368Y-81377194D01*
X174564822Y-81351617D01*
X174564820Y-81351614D01*
X174562014Y-81347277D01*
X174558540Y-81343459D01*
X174558533Y-81343450D01*
X174414435Y-81185088D01*
X174383383Y-81121242D01*
X174391779Y-81050744D01*
X174436956Y-80995976D01*
X174463400Y-80982307D01*
X174570052Y-80942325D01*
X174585649Y-80933786D01*
X174687724Y-80857285D01*
X174700285Y-80844724D01*
X174776786Y-80742649D01*
X174785324Y-80727054D01*
X174830478Y-80606606D01*
X174834105Y-80591351D01*
X174839631Y-80540486D01*
X174840000Y-80533672D01*
X174840000Y-79911115D01*
X174835525Y-79895876D01*
X174834135Y-79894671D01*
X174826452Y-79893000D01*
X172142116Y-79893000D01*
X172126877Y-79897475D01*
X172125672Y-79898865D01*
X172124001Y-79906548D01*
X172124001Y-80533669D01*
X172124371Y-80540490D01*
X172129895Y-80591352D01*
X172133521Y-80606604D01*
X172178676Y-80727054D01*
X172187214Y-80742649D01*
X172263715Y-80844724D01*
X172276276Y-80857285D01*
X172378351Y-80933786D01*
X172393946Y-80942324D01*
X172502827Y-80983142D01*
X172559591Y-81025784D01*
X172584291Y-81092345D01*
X172569083Y-81161694D01*
X172549691Y-81188175D01*
X172426200Y-81317401D01*
X172422629Y-81321138D01*
X172296743Y-81505680D01*
X172202688Y-81708305D01*
X172142989Y-81923570D01*
X172119251Y-82145695D01*
X165941986Y-82145695D01*
X168720796Y-79366885D01*
X172124000Y-79366885D01*
X172128475Y-79382124D01*
X172129865Y-79383329D01*
X172137548Y-79385000D01*
X173209885Y-79385000D01*
X173225124Y-79380525D01*
X173226329Y-79379135D01*
X173228000Y-79371452D01*
X173228000Y-79366885D01*
X173736000Y-79366885D01*
X173740475Y-79382124D01*
X173741865Y-79383329D01*
X173749548Y-79385000D01*
X174821884Y-79385000D01*
X174837123Y-79380525D01*
X174838328Y-79379135D01*
X174839999Y-79371452D01*
X174839999Y-78744331D01*
X174839629Y-78737510D01*
X174834105Y-78686648D01*
X174830479Y-78671396D01*
X174785324Y-78550946D01*
X174776786Y-78535351D01*
X174700285Y-78433276D01*
X174687724Y-78420715D01*
X174585649Y-78344214D01*
X174570054Y-78335676D01*
X174449606Y-78290522D01*
X174434351Y-78286895D01*
X174383486Y-78281369D01*
X174376672Y-78281000D01*
X173754115Y-78281000D01*
X173738876Y-78285475D01*
X173737671Y-78286865D01*
X173736000Y-78294548D01*
X173736000Y-79366885D01*
X173228000Y-79366885D01*
X173228000Y-78299116D01*
X173223525Y-78283877D01*
X173222135Y-78282672D01*
X173214452Y-78281001D01*
X172587331Y-78281001D01*
X172580510Y-78281371D01*
X172529648Y-78286895D01*
X172514396Y-78290521D01*
X172393946Y-78335676D01*
X172378351Y-78344214D01*
X172276276Y-78420715D01*
X172263715Y-78433276D01*
X172187214Y-78535351D01*
X172178676Y-78550946D01*
X172133522Y-78671394D01*
X172129895Y-78686649D01*
X172124369Y-78737514D01*
X172124000Y-78744328D01*
X172124000Y-79366885D01*
X168720796Y-79366885D01*
X169906911Y-78180770D01*
X169921323Y-78168384D01*
X169932918Y-78159851D01*
X169932923Y-78159846D01*
X169938818Y-78155508D01*
X169943557Y-78149930D01*
X169943560Y-78149927D01*
X169973035Y-78115232D01*
X169979965Y-78107716D01*
X169985661Y-78102020D01*
X169987924Y-78099159D01*
X169987929Y-78099154D01*
X170003293Y-78079734D01*
X170006082Y-78076333D01*
X170022511Y-78056995D01*
X170053333Y-78020715D01*
X170056659Y-78014202D01*
X170060020Y-78009163D01*
X170063196Y-78004021D01*
X170067734Y-77998284D01*
X170098655Y-77932125D01*
X170100561Y-77928225D01*
X170105825Y-77917916D01*
X170133769Y-77863192D01*
X170135508Y-77856083D01*
X170137604Y-77850449D01*
X170139523Y-77844679D01*
X170142622Y-77838050D01*
X170144112Y-77830887D01*
X170144113Y-77830884D01*
X170154661Y-77780170D01*
X170157491Y-77766565D01*
X170158461Y-77762282D01*
X170175808Y-77691390D01*
X170176500Y-77680236D01*
X170176535Y-77680238D01*
X170176775Y-77676266D01*
X170177152Y-77672045D01*
X170178641Y-77664885D01*
X170176546Y-77587458D01*
X170176500Y-77584050D01*
X170176500Y-76932100D01*
X170196502Y-76863979D01*
X170227328Y-76831283D01*
X170229359Y-76830051D01*
X170405230Y-76677439D01*
X170408613Y-76673313D01*
X170408617Y-76673309D01*
X170549487Y-76501504D01*
X170552872Y-76497376D01*
X170578845Y-76451748D01*
X170629927Y-76402442D01*
X170699558Y-76388580D01*
X170765629Y-76414563D01*
X170792867Y-76443713D01*
X170884804Y-76580272D01*
X171045532Y-76748758D01*
X171232350Y-76887754D01*
X171237102Y-76890170D01*
X171360310Y-76952812D01*
X171439916Y-76993286D01*
X171551106Y-77027811D01*
X171657193Y-77060753D01*
X171657199Y-77060754D01*
X171662296Y-77062337D01*
X171786660Y-77078820D01*
X171887848Y-77092232D01*
X171887852Y-77092232D01*
X171893132Y-77092932D01*
X171898462Y-77092732D01*
X171898463Y-77092732D01*
X172009477Y-77088564D01*
X172125822Y-77084197D01*
X172237554Y-77060753D01*
X172348486Y-77037477D01*
X172348489Y-77037476D01*
X172353713Y-77036380D01*
X172570290Y-76950850D01*
X172769359Y-76830051D01*
X172773389Y-76826554D01*
X172941197Y-76680939D01*
X172941199Y-76680937D01*
X172945230Y-76677439D01*
X172948613Y-76673313D01*
X172948617Y-76673309D01*
X173089487Y-76501504D01*
X173092872Y-76497376D01*
X173118845Y-76451748D01*
X173169927Y-76402442D01*
X173239558Y-76388580D01*
X173305629Y-76414563D01*
X173332867Y-76443713D01*
X173424804Y-76580272D01*
X173585532Y-76748758D01*
X173772350Y-76887754D01*
X173777102Y-76890170D01*
X173900310Y-76952812D01*
X173979916Y-76993286D01*
X174091106Y-77027811D01*
X174197193Y-77060753D01*
X174197199Y-77060754D01*
X174202296Y-77062337D01*
X174326660Y-77078820D01*
X174427848Y-77092232D01*
X174427852Y-77092232D01*
X174433132Y-77092932D01*
X174438462Y-77092732D01*
X174438463Y-77092732D01*
X174549477Y-77088564D01*
X174665822Y-77084197D01*
X174777554Y-77060753D01*
X174888486Y-77037477D01*
X174888489Y-77037476D01*
X174893713Y-77036380D01*
X175110290Y-76950850D01*
X175309359Y-76830051D01*
X175313389Y-76826554D01*
X175481197Y-76680939D01*
X175481199Y-76680937D01*
X175485230Y-76677439D01*
X175488613Y-76673313D01*
X175488617Y-76673309D01*
X175629487Y-76501504D01*
X175632872Y-76497376D01*
X175693114Y-76391547D01*
X175745422Y-76299654D01*
X175748065Y-76295011D01*
X175768239Y-76239435D01*
X175825695Y-76081146D01*
X175825696Y-76081142D01*
X175827515Y-76076131D01*
X175868950Y-75846993D01*
X175870100Y-75822606D01*
X175870100Y-75354132D01*
X175855374Y-75180580D01*
X175854035Y-75175420D01*
X175798217Y-74960363D01*
X175798216Y-74960359D01*
X175796875Y-74955194D01*
X175701238Y-74742887D01*
X175571196Y-74549728D01*
X175554861Y-74532604D01*
X175414152Y-74385104D01*
X175414150Y-74385102D01*
X175410468Y-74381242D01*
X175223650Y-74242246D01*
X175099549Y-74179150D01*
X175020842Y-74139133D01*
X175020841Y-74139133D01*
X175016084Y-74136714D01*
X174877299Y-74093620D01*
X174798807Y-74069247D01*
X174798801Y-74069246D01*
X174793704Y-74067663D01*
X174569206Y-74037908D01*
X174550919Y-74029799D01*
X174544544Y-74033896D01*
X174513773Y-74038911D01*
X174330178Y-74045803D01*
X174247474Y-74063156D01*
X174107514Y-74092523D01*
X174107511Y-74092524D01*
X174102287Y-74093620D01*
X173885710Y-74179150D01*
X173686641Y-74299949D01*
X173682611Y-74303446D01*
X173519570Y-74444925D01*
X173510770Y-74452561D01*
X173507387Y-74456687D01*
X173507383Y-74456691D01*
X173461604Y-74512523D01*
X173363128Y-74632624D01*
X173360489Y-74637260D01*
X173360487Y-74637263D01*
X173337155Y-74678252D01*
X173286073Y-74727558D01*
X173216442Y-74741420D01*
X173150371Y-74715437D01*
X173123133Y-74686287D01*
X173034176Y-74554155D01*
X173031196Y-74549728D01*
X173014861Y-74532604D01*
X172874152Y-74385104D01*
X172874150Y-74385102D01*
X172870468Y-74381242D01*
X172683650Y-74242246D01*
X172559549Y-74179150D01*
X172480842Y-74139133D01*
X172480841Y-74139133D01*
X172476084Y-74136714D01*
X172337299Y-74093620D01*
X172258807Y-74069247D01*
X172258801Y-74069246D01*
X172253704Y-74067663D01*
X172029206Y-74037908D01*
X172010919Y-74029799D01*
X172004544Y-74033896D01*
X171973773Y-74038911D01*
X171790178Y-74045803D01*
X171707474Y-74063156D01*
X171567514Y-74092523D01*
X171567511Y-74092524D01*
X171562287Y-74093620D01*
X171345710Y-74179150D01*
X171146641Y-74299949D01*
X171142611Y-74303446D01*
X170979570Y-74444925D01*
X170970770Y-74452561D01*
X170967387Y-74456687D01*
X170967383Y-74456691D01*
X170921604Y-74512523D01*
X170823128Y-74632624D01*
X170820489Y-74637260D01*
X170820487Y-74637263D01*
X170797155Y-74678252D01*
X170746073Y-74727558D01*
X170676442Y-74741420D01*
X170610371Y-74715437D01*
X170583133Y-74686287D01*
X170494176Y-74554155D01*
X170491196Y-74549728D01*
X170474861Y-74532604D01*
X170334152Y-74385104D01*
X170334150Y-74385102D01*
X170330468Y-74381242D01*
X170143650Y-74242246D01*
X170019549Y-74179150D01*
X169940842Y-74139133D01*
X169940841Y-74139133D01*
X169936084Y-74136714D01*
X169797299Y-74093620D01*
X169718807Y-74069247D01*
X169718801Y-74069246D01*
X169713704Y-74067663D01*
X169489206Y-74037908D01*
X169470919Y-74029799D01*
X169464544Y-74033896D01*
X169433773Y-74038911D01*
X169250178Y-74045803D01*
X169167474Y-74063156D01*
X169027514Y-74092523D01*
X169027511Y-74092524D01*
X169022287Y-74093620D01*
X168805710Y-74179150D01*
X168606641Y-74299949D01*
X168602611Y-74303446D01*
X168439570Y-74444925D01*
X168430770Y-74452561D01*
X168427387Y-74456687D01*
X168427383Y-74456691D01*
X168381604Y-74512523D01*
X168283128Y-74632624D01*
X168280489Y-74637260D01*
X168280487Y-74637263D01*
X168257155Y-74678252D01*
X168206073Y-74727558D01*
X168136442Y-74741420D01*
X168070371Y-74715437D01*
X168043133Y-74686287D01*
X167954176Y-74554155D01*
X167951196Y-74549728D01*
X167934861Y-74532604D01*
X167794152Y-74385104D01*
X167794150Y-74385102D01*
X167790468Y-74381242D01*
X167603650Y-74242246D01*
X167479549Y-74179150D01*
X167400842Y-74139133D01*
X167400841Y-74139133D01*
X167396084Y-74136714D01*
X167257299Y-74093620D01*
X167178807Y-74069247D01*
X167178801Y-74069246D01*
X167173704Y-74067663D01*
X166949206Y-74037908D01*
X166930919Y-74029799D01*
X166924544Y-74033896D01*
X166893773Y-74038911D01*
X166710178Y-74045803D01*
X166627474Y-74063156D01*
X166487514Y-74092523D01*
X166487511Y-74092524D01*
X166482287Y-74093620D01*
X166265710Y-74179150D01*
X166066641Y-74299949D01*
X166062611Y-74303446D01*
X165899570Y-74444925D01*
X165890770Y-74452561D01*
X165887387Y-74456687D01*
X165887383Y-74456691D01*
X165841604Y-74512523D01*
X165743128Y-74632624D01*
X165740489Y-74637260D01*
X165740487Y-74637263D01*
X165717155Y-74678252D01*
X165666073Y-74727558D01*
X165596442Y-74741420D01*
X165530371Y-74715437D01*
X165503133Y-74686287D01*
X165414176Y-74554155D01*
X165411196Y-74549728D01*
X165394861Y-74532604D01*
X165254152Y-74385104D01*
X165254150Y-74385102D01*
X165250468Y-74381242D01*
X165063650Y-74242246D01*
X164939549Y-74179150D01*
X164860842Y-74139133D01*
X164860841Y-74139133D01*
X164856084Y-74136714D01*
X164717299Y-74093620D01*
X164638807Y-74069247D01*
X164638801Y-74069246D01*
X164633704Y-74067663D01*
X164409206Y-74037908D01*
X164390919Y-74029799D01*
X164384544Y-74033896D01*
X164353773Y-74038911D01*
X164170178Y-74045803D01*
X164087474Y-74063156D01*
X163947514Y-74092523D01*
X163947511Y-74092524D01*
X163942287Y-74093620D01*
X163725710Y-74179150D01*
X163526641Y-74299949D01*
X163522611Y-74303446D01*
X163359570Y-74444925D01*
X163350770Y-74452561D01*
X163347387Y-74456687D01*
X163347383Y-74456691D01*
X163301604Y-74512523D01*
X163203128Y-74632624D01*
X163200489Y-74637260D01*
X163200487Y-74637263D01*
X163177155Y-74678252D01*
X163126073Y-74727558D01*
X163056442Y-74741420D01*
X162990371Y-74715437D01*
X162963133Y-74686287D01*
X162874176Y-74554155D01*
X162871196Y-74549728D01*
X162854861Y-74532604D01*
X162714152Y-74385104D01*
X162714150Y-74385102D01*
X162710468Y-74381242D01*
X162523650Y-74242246D01*
X162399549Y-74179150D01*
X162320842Y-74139133D01*
X162320841Y-74139133D01*
X162316084Y-74136714D01*
X162177299Y-74093620D01*
X162098807Y-74069247D01*
X162098801Y-74069246D01*
X162093704Y-74067663D01*
X161869206Y-74037908D01*
X161850919Y-74029799D01*
X161844544Y-74033896D01*
X161813773Y-74038911D01*
X161630178Y-74045803D01*
X161547474Y-74063156D01*
X161407514Y-74092523D01*
X161407511Y-74092524D01*
X161402287Y-74093620D01*
X161185710Y-74179150D01*
X160986641Y-74299949D01*
X160982611Y-74303446D01*
X160819570Y-74444925D01*
X160810770Y-74452561D01*
X160807387Y-74456687D01*
X160807383Y-74456691D01*
X160761604Y-74512523D01*
X160663128Y-74632624D01*
X160660489Y-74637260D01*
X160660487Y-74637263D01*
X160637155Y-74678252D01*
X160586073Y-74727558D01*
X160516442Y-74741420D01*
X160450371Y-74715437D01*
X160423133Y-74686287D01*
X160334176Y-74554155D01*
X160331196Y-74549728D01*
X160314861Y-74532604D01*
X160174152Y-74385104D01*
X160174150Y-74385102D01*
X160170468Y-74381242D01*
X159983650Y-74242246D01*
X159859549Y-74179150D01*
X159780842Y-74139133D01*
X159780841Y-74139133D01*
X159776084Y-74136714D01*
X159637299Y-74093620D01*
X159558807Y-74069247D01*
X159558801Y-74069246D01*
X159553704Y-74067663D01*
X159329206Y-74037908D01*
X159310919Y-74029799D01*
X159304544Y-74033896D01*
X159273773Y-74038911D01*
X159090178Y-74045803D01*
X159007474Y-74063156D01*
X158867514Y-74092523D01*
X158867511Y-74092524D01*
X158862287Y-74093620D01*
X158645710Y-74179150D01*
X158446641Y-74299949D01*
X158442611Y-74303446D01*
X158279570Y-74444925D01*
X158270770Y-74452561D01*
X158267387Y-74456687D01*
X158267383Y-74456691D01*
X158221604Y-74512523D01*
X158123128Y-74632624D01*
X158120489Y-74637260D01*
X158120487Y-74637263D01*
X158097155Y-74678252D01*
X158046073Y-74727558D01*
X157976442Y-74741420D01*
X157910371Y-74715437D01*
X157883133Y-74686287D01*
X157794176Y-74554155D01*
X157791196Y-74549728D01*
X157774861Y-74532604D01*
X157634152Y-74385104D01*
X157634150Y-74385102D01*
X157630468Y-74381242D01*
X157443650Y-74242246D01*
X157319549Y-74179150D01*
X157240842Y-74139133D01*
X157240841Y-74139133D01*
X157236084Y-74136714D01*
X157097299Y-74093620D01*
X157018807Y-74069247D01*
X157018801Y-74069246D01*
X157013704Y-74067663D01*
X156789206Y-74037908D01*
X156770919Y-74029799D01*
X156764544Y-74033896D01*
X156733773Y-74038911D01*
X156550178Y-74045803D01*
X156467474Y-74063156D01*
X156327514Y-74092523D01*
X156327511Y-74092524D01*
X156322287Y-74093620D01*
X156105710Y-74179150D01*
X155906641Y-74299949D01*
X155902611Y-74303446D01*
X155739570Y-74444925D01*
X155730770Y-74452561D01*
X155727387Y-74456687D01*
X155727383Y-74456691D01*
X155681604Y-74512523D01*
X155583128Y-74632624D01*
X155580489Y-74637260D01*
X155580487Y-74637263D01*
X155517589Y-74747760D01*
X155467935Y-74834989D01*
X155466114Y-74840005D01*
X155466112Y-74840010D01*
X155424302Y-74955194D01*
X155388485Y-75053869D01*
X155347050Y-75283007D01*
X155345900Y-75307394D01*
X155345900Y-75775868D01*
X155360626Y-75949420D01*
X155361964Y-75954577D01*
X155361965Y-75954580D01*
X155394816Y-76081146D01*
X155419125Y-76174806D01*
X155514762Y-76387113D01*
X155644804Y-76580272D01*
X155805532Y-76748758D01*
X155809817Y-76751946D01*
X155809818Y-76751947D01*
X155908713Y-76825527D01*
X155951426Y-76882237D01*
X155959500Y-76926616D01*
X155959500Y-78617433D01*
X155939498Y-78685554D01*
X155922595Y-78706528D01*
X153631095Y-80998028D01*
X153568783Y-81032054D01*
X153497968Y-81026989D01*
X153441132Y-80984442D01*
X153416321Y-80917922D01*
X153416000Y-80908933D01*
X153416000Y-76929548D01*
X153436002Y-76861427D01*
X153465466Y-76830175D01*
X153465359Y-76830051D01*
X153466591Y-76828982D01*
X153641230Y-76677439D01*
X153644613Y-76673313D01*
X153644617Y-76673309D01*
X153785487Y-76501504D01*
X153788872Y-76497376D01*
X153849114Y-76391547D01*
X153901422Y-76299654D01*
X153904065Y-76295011D01*
X153924239Y-76239435D01*
X153981695Y-76081146D01*
X153981696Y-76081142D01*
X153983515Y-76076131D01*
X154024950Y-75846993D01*
X154026100Y-75822606D01*
X154026100Y-75354132D01*
X154011374Y-75180580D01*
X154010035Y-75175420D01*
X153954217Y-74960363D01*
X153954216Y-74960359D01*
X153952875Y-74955194D01*
X153857238Y-74742887D01*
X153727196Y-74549728D01*
X153723515Y-74545869D01*
X153570151Y-74385102D01*
X153570146Y-74385098D01*
X153566468Y-74381242D01*
X153466786Y-74307077D01*
X153424074Y-74250368D01*
X153416000Y-74205989D01*
X153416000Y-73913000D01*
X153436002Y-73844879D01*
X153489658Y-73798386D01*
X153542000Y-73787000D01*
X156729046Y-73787000D01*
X156766331Y-73797948D01*
G37*
%TD.AperFunction*%
%TD*%
M02*
