M48
; DRILL file {KiCad 6.0.1} date Tue 15 Feb 2022 03:14:27 PM MST
; FORMAT={-:-/ absolute / inch / decimal}
; #@! TF.CreationDate,2022-02-15T15:14:27-07:00
; #@! TF.GenerationSoftware,Kicad,Pcbnew,6.0.1
; #@! TF.FileFunction,Plated,1,2,PTH
FMAT,2
INCH
; #@! TA.AperFunction,Plated,PTH,ComponentDrill
T1C0.0315
; #@! TA.AperFunction,Plated,PTH,ComponentDrill
T2C0.0394
; #@! TA.AperFunction,Plated,PTH,ComponentDrill
T3C0.0400
%
G90
G05
T1
X6.3Y-3.5152
X6.3Y-3.7954
X6.3Y-4.075
X6.3Y-4.355
X6.3Y-4.635
X6.7Y-3.5152
X6.7Y-3.7954
X6.7Y-4.075
X6.7Y-4.355
X6.7Y-4.635
T2
X4.52Y-3.795
X4.52Y-3.895
X4.52Y-3.995
X4.52Y-4.185
X4.52Y-4.285
X4.52Y-4.385
X4.58Y-3.015
X4.68Y-3.015
X4.78Y-3.015
X4.95Y-3.265
X4.95Y-3.465
X4.95Y-3.665
X4.95Y-3.865
X4.95Y-4.065
X4.95Y-4.845
X5.05Y-3.265
X5.05Y-3.465
X5.05Y-3.665
X5.05Y-3.865
X5.05Y-4.065
X5.05Y-4.845
X5.15Y-3.265
X5.15Y-3.465
X5.15Y-3.665
X5.15Y-3.865
X5.15Y-4.065
X5.15Y-4.845
X5.25Y-3.265
X5.25Y-3.465
X5.25Y-3.665
X5.25Y-3.865
X5.25Y-4.065
X5.35Y-3.265
X5.35Y-3.465
X5.35Y-3.665
X5.35Y-3.865
X5.35Y-4.065
X5.45Y-3.265
X5.45Y-3.465
X5.45Y-3.665
X5.45Y-3.865
X5.45Y-4.065
X5.55Y-3.265
X5.55Y-3.465
X5.55Y-3.665
X5.55Y-3.865
X5.55Y-4.065
X5.65Y-3.265
X5.65Y-3.465
X5.65Y-3.665
X5.65Y-3.865
X5.65Y-4.065
X5.75Y-3.265
X5.75Y-3.465
X5.75Y-3.665
X5.75Y-3.865
X5.75Y-4.065
X6.83Y-3.1354
X6.83Y-3.2354
X6.83Y-3.4152
X6.83Y-3.5152
X6.83Y-3.6952
X6.83Y-3.7952
X6.83Y-3.975
X6.83Y-4.075
X6.83Y-4.255
X6.83Y-4.355
X6.83Y-4.535
X6.83Y-4.635
T3
X5.11Y-2.975
X5.21Y-2.975
X5.31Y-2.975
X5.41Y-2.975
X5.47Y-4.875
X5.51Y-2.975
X5.57Y-4.875
X5.61Y-2.975
X5.67Y-4.875
X5.71Y-2.975
X5.77Y-4.875
X5.81Y-2.975
X5.87Y-4.875
X5.91Y-2.975
X5.97Y-4.875
X6.01Y-2.975
X6.07Y-4.875
X6.17Y-2.975
X6.17Y-4.875
X6.27Y-2.975
X6.37Y-2.975
X6.37Y-4.875
X6.47Y-2.975
X6.47Y-4.875
X6.57Y-2.975
X6.57Y-4.875
X6.67Y-2.975
X6.67Y-4.875
X6.77Y-2.975
X6.77Y-4.875
X6.87Y-2.975
X6.87Y-4.875
T0
M30
