%TF.GenerationSoftware,KiCad,Pcbnew,6.0.1*%
%TF.CreationDate,2022-02-11T14:06:14-07:00*%
%TF.ProjectId,aerogel_shield,6165726f-6765-46c5-9f73-6869656c642e,rev?*%
%TF.SameCoordinates,Original*%
%TF.FileFunction,Legend,Top*%
%TF.FilePolarity,Positive*%
%FSLAX46Y46*%
G04 Gerber Fmt 4.6, Leading zero omitted, Abs format (unit mm)*
G04 Created by KiCad (PCBNEW 6.0.1) date 2022-02-11 14:06:14*
%MOMM*%
%LPD*%
G01*
G04 APERTURE LIST*
%ADD10C,0.300000*%
%ADD11C,0.150000*%
%ADD12C,0.120000*%
%ADD13O,1.727200X2.032000*%
G04 APERTURE END LIST*
D10*
X157396571Y-112140428D02*
X157396571Y-112997571D01*
X157396571Y-112569000D02*
X155896571Y-112569000D01*
X156110857Y-112711857D01*
X156253714Y-112854714D01*
X156325142Y-112997571D01*
X156039428Y-111569000D02*
X155968000Y-111497571D01*
X155896571Y-111354714D01*
X155896571Y-110997571D01*
X155968000Y-110854714D01*
X156039428Y-110783285D01*
X156182285Y-110711857D01*
X156325142Y-110711857D01*
X156539428Y-110783285D01*
X157396571Y-111640428D01*
X157396571Y-110711857D01*
X155896571Y-110283285D02*
X157396571Y-109783285D01*
X155896571Y-109283285D01*
X156396571Y-107640428D02*
X157896571Y-107640428D01*
X156468000Y-107640428D02*
X156396571Y-107497571D01*
X156396571Y-107211857D01*
X156468000Y-107069000D01*
X156539428Y-106997571D01*
X156682285Y-106926142D01*
X157110857Y-106926142D01*
X157253714Y-106997571D01*
X157325142Y-107069000D01*
X157396571Y-107211857D01*
X157396571Y-107497571D01*
X157325142Y-107640428D01*
X157396571Y-106069000D02*
X157325142Y-106211857D01*
X157182285Y-106283285D01*
X155896571Y-106283285D01*
X157396571Y-104854714D02*
X156610857Y-104854714D01*
X156468000Y-104926142D01*
X156396571Y-105069000D01*
X156396571Y-105354714D01*
X156468000Y-105497571D01*
X157325142Y-104854714D02*
X157396571Y-104997571D01*
X157396571Y-105354714D01*
X157325142Y-105497571D01*
X157182285Y-105569000D01*
X157039428Y-105569000D01*
X156896571Y-105497571D01*
X156825142Y-105354714D01*
X156825142Y-104997571D01*
X156753714Y-104854714D01*
X156396571Y-104140428D02*
X157396571Y-104140428D01*
X156539428Y-104140428D02*
X156468000Y-104069000D01*
X156396571Y-103926142D01*
X156396571Y-103711857D01*
X156468000Y-103569000D01*
X156610857Y-103497571D01*
X157396571Y-103497571D01*
X157325142Y-102211857D02*
X157396571Y-102354714D01*
X157396571Y-102640428D01*
X157325142Y-102783285D01*
X157182285Y-102854714D01*
X156610857Y-102854714D01*
X156468000Y-102783285D01*
X156396571Y-102640428D01*
X156396571Y-102354714D01*
X156468000Y-102211857D01*
X156610857Y-102140428D01*
X156753714Y-102140428D01*
X156896571Y-102854714D01*
X136533428Y-114367571D02*
X135819142Y-114367571D01*
X135747714Y-115081857D01*
X135819142Y-115010428D01*
X135962000Y-114939000D01*
X136319142Y-114939000D01*
X136462000Y-115010428D01*
X136533428Y-115081857D01*
X136604857Y-115224714D01*
X136604857Y-115581857D01*
X136533428Y-115724714D01*
X136462000Y-115796142D01*
X136319142Y-115867571D01*
X135962000Y-115867571D01*
X135819142Y-115796142D01*
X135747714Y-115724714D01*
X137033428Y-114367571D02*
X137533428Y-115867571D01*
X138033428Y-114367571D01*
X139676285Y-114867571D02*
X139676285Y-116367571D01*
X139676285Y-114939000D02*
X139819142Y-114867571D01*
X140104857Y-114867571D01*
X140247714Y-114939000D01*
X140319142Y-115010428D01*
X140390571Y-115153285D01*
X140390571Y-115581857D01*
X140319142Y-115724714D01*
X140247714Y-115796142D01*
X140104857Y-115867571D01*
X139819142Y-115867571D01*
X139676285Y-115796142D01*
X141247714Y-115867571D02*
X141104857Y-115796142D01*
X141033428Y-115653285D01*
X141033428Y-114367571D01*
X142462000Y-115867571D02*
X142462000Y-115081857D01*
X142390571Y-114939000D01*
X142247714Y-114867571D01*
X141962000Y-114867571D01*
X141819142Y-114939000D01*
X142462000Y-115796142D02*
X142319142Y-115867571D01*
X141962000Y-115867571D01*
X141819142Y-115796142D01*
X141747714Y-115653285D01*
X141747714Y-115510428D01*
X141819142Y-115367571D01*
X141962000Y-115296142D01*
X142319142Y-115296142D01*
X142462000Y-115224714D01*
X143176285Y-114867571D02*
X143176285Y-115867571D01*
X143176285Y-115010428D02*
X143247714Y-114939000D01*
X143390571Y-114867571D01*
X143604857Y-114867571D01*
X143747714Y-114939000D01*
X143819142Y-115081857D01*
X143819142Y-115867571D01*
X145104857Y-115796142D02*
X144962000Y-115867571D01*
X144676285Y-115867571D01*
X144533428Y-115796142D01*
X144462000Y-115653285D01*
X144462000Y-115081857D01*
X144533428Y-114939000D01*
X144676285Y-114867571D01*
X144962000Y-114867571D01*
X145104857Y-114939000D01*
X145176285Y-115081857D01*
X145176285Y-115224714D01*
X144462000Y-115367571D01*
D11*
X139390380Y-120999285D02*
X139390380Y-121570714D01*
X139390380Y-121285000D02*
X138390380Y-121285000D01*
X138533238Y-121380238D01*
X138628476Y-121475476D01*
X138676095Y-121570714D01*
%TO.C,P5*%
X172743904Y-84868380D02*
X172743904Y-83868380D01*
X173124857Y-83868380D01*
X173220095Y-83916000D01*
X173267714Y-83963619D01*
X173315333Y-84058857D01*
X173315333Y-84201714D01*
X173267714Y-84296952D01*
X173220095Y-84344571D01*
X173124857Y-84392190D01*
X172743904Y-84392190D01*
X174220095Y-83868380D02*
X173743904Y-83868380D01*
X173696285Y-84344571D01*
X173743904Y-84296952D01*
X173839142Y-84249333D01*
X174077238Y-84249333D01*
X174172476Y-84296952D01*
X174220095Y-84344571D01*
X174267714Y-84439809D01*
X174267714Y-84677904D01*
X174220095Y-84773142D01*
X174172476Y-84820761D01*
X174077238Y-84868380D01*
X173839142Y-84868380D01*
X173743904Y-84820761D01*
X173696285Y-84773142D01*
%TO.C,12V*%
X171648380Y-80248047D02*
X171648380Y-80819476D01*
X171648380Y-80533761D02*
X170648380Y-80533761D01*
X170791238Y-80629000D01*
X170886476Y-80724238D01*
X170934095Y-80819476D01*
X170743619Y-79867095D02*
X170696000Y-79819476D01*
X170648380Y-79724238D01*
X170648380Y-79486142D01*
X170696000Y-79390904D01*
X170743619Y-79343285D01*
X170838857Y-79295666D01*
X170934095Y-79295666D01*
X171076952Y-79343285D01*
X171648380Y-79914714D01*
X171648380Y-79295666D01*
X170648380Y-79009952D02*
X171648380Y-78676619D01*
X170648380Y-78343285D01*
%TO.C,Digital*%
X145637523Y-121737380D02*
X145637523Y-120737380D01*
X145875619Y-120737380D01*
X146018476Y-120785000D01*
X146113714Y-120880238D01*
X146161333Y-120975476D01*
X146208952Y-121165952D01*
X146208952Y-121308809D01*
X146161333Y-121499285D01*
X146113714Y-121594523D01*
X146018476Y-121689761D01*
X145875619Y-121737380D01*
X145637523Y-121737380D01*
X146637523Y-121737380D02*
X146637523Y-121070714D01*
X146637523Y-120737380D02*
X146589904Y-120785000D01*
X146637523Y-120832619D01*
X146685142Y-120785000D01*
X146637523Y-120737380D01*
X146637523Y-120832619D01*
X147542285Y-121070714D02*
X147542285Y-121880238D01*
X147494666Y-121975476D01*
X147447047Y-122023095D01*
X147351809Y-122070714D01*
X147208952Y-122070714D01*
X147113714Y-122023095D01*
X147542285Y-121689761D02*
X147447047Y-121737380D01*
X147256571Y-121737380D01*
X147161333Y-121689761D01*
X147113714Y-121642142D01*
X147066095Y-121546904D01*
X147066095Y-121261190D01*
X147113714Y-121165952D01*
X147161333Y-121118333D01*
X147256571Y-121070714D01*
X147447047Y-121070714D01*
X147542285Y-121118333D01*
X148018476Y-121737380D02*
X148018476Y-121070714D01*
X148018476Y-120737380D02*
X147970857Y-120785000D01*
X148018476Y-120832619D01*
X148066095Y-120785000D01*
X148018476Y-120737380D01*
X148018476Y-120832619D01*
X148351809Y-121070714D02*
X148732761Y-121070714D01*
X148494666Y-120737380D02*
X148494666Y-121594523D01*
X148542285Y-121689761D01*
X148637523Y-121737380D01*
X148732761Y-121737380D01*
X149494666Y-121737380D02*
X149494666Y-121213571D01*
X149447047Y-121118333D01*
X149351809Y-121070714D01*
X149161333Y-121070714D01*
X149066095Y-121118333D01*
X149494666Y-121689761D02*
X149399428Y-121737380D01*
X149161333Y-121737380D01*
X149066095Y-121689761D01*
X149018476Y-121594523D01*
X149018476Y-121499285D01*
X149066095Y-121404047D01*
X149161333Y-121356428D01*
X149399428Y-121356428D01*
X149494666Y-121308809D01*
X150113714Y-121737380D02*
X150018476Y-121689761D01*
X149970857Y-121594523D01*
X149970857Y-120737380D01*
%TO.C,Analog*%
X166092476Y-121451666D02*
X166568666Y-121451666D01*
X165997238Y-121737380D02*
X166330571Y-120737380D01*
X166663904Y-121737380D01*
X166997238Y-121070714D02*
X166997238Y-121737380D01*
X166997238Y-121165952D02*
X167044857Y-121118333D01*
X167140095Y-121070714D01*
X167282952Y-121070714D01*
X167378190Y-121118333D01*
X167425809Y-121213571D01*
X167425809Y-121737380D01*
X168330571Y-121737380D02*
X168330571Y-121213571D01*
X168282952Y-121118333D01*
X168187714Y-121070714D01*
X167997238Y-121070714D01*
X167902000Y-121118333D01*
X168330571Y-121689761D02*
X168235333Y-121737380D01*
X167997238Y-121737380D01*
X167902000Y-121689761D01*
X167854380Y-121594523D01*
X167854380Y-121499285D01*
X167902000Y-121404047D01*
X167997238Y-121356428D01*
X168235333Y-121356428D01*
X168330571Y-121308809D01*
X168949619Y-121737380D02*
X168854380Y-121689761D01*
X168806761Y-121594523D01*
X168806761Y-120737380D01*
X169473428Y-121737380D02*
X169378190Y-121689761D01*
X169330571Y-121642142D01*
X169282952Y-121546904D01*
X169282952Y-121261190D01*
X169330571Y-121165952D01*
X169378190Y-121118333D01*
X169473428Y-121070714D01*
X169616285Y-121070714D01*
X169711523Y-121118333D01*
X169759142Y-121165952D01*
X169806761Y-121261190D01*
X169806761Y-121546904D01*
X169759142Y-121642142D01*
X169711523Y-121689761D01*
X169616285Y-121737380D01*
X169473428Y-121737380D01*
X170663904Y-121070714D02*
X170663904Y-121880238D01*
X170616285Y-121975476D01*
X170568666Y-122023095D01*
X170473428Y-122070714D01*
X170330571Y-122070714D01*
X170235333Y-122023095D01*
X170663904Y-121689761D02*
X170568666Y-121737380D01*
X170378190Y-121737380D01*
X170282952Y-121689761D01*
X170235333Y-121642142D01*
X170187714Y-121546904D01*
X170187714Y-121261190D01*
X170235333Y-121165952D01*
X170282952Y-121118333D01*
X170378190Y-121070714D01*
X170568666Y-121070714D01*
X170663904Y-121118333D01*
%TO.C,Digital*%
X139033523Y-78811380D02*
X139033523Y-77811380D01*
X139271619Y-77811380D01*
X139414476Y-77859000D01*
X139509714Y-77954238D01*
X139557333Y-78049476D01*
X139604952Y-78239952D01*
X139604952Y-78382809D01*
X139557333Y-78573285D01*
X139509714Y-78668523D01*
X139414476Y-78763761D01*
X139271619Y-78811380D01*
X139033523Y-78811380D01*
X140033523Y-78811380D02*
X140033523Y-78144714D01*
X140033523Y-77811380D02*
X139985904Y-77859000D01*
X140033523Y-77906619D01*
X140081142Y-77859000D01*
X140033523Y-77811380D01*
X140033523Y-77906619D01*
X140938285Y-78144714D02*
X140938285Y-78954238D01*
X140890666Y-79049476D01*
X140843047Y-79097095D01*
X140747809Y-79144714D01*
X140604952Y-79144714D01*
X140509714Y-79097095D01*
X140938285Y-78763761D02*
X140843047Y-78811380D01*
X140652571Y-78811380D01*
X140557333Y-78763761D01*
X140509714Y-78716142D01*
X140462095Y-78620904D01*
X140462095Y-78335190D01*
X140509714Y-78239952D01*
X140557333Y-78192333D01*
X140652571Y-78144714D01*
X140843047Y-78144714D01*
X140938285Y-78192333D01*
X141414476Y-78811380D02*
X141414476Y-78144714D01*
X141414476Y-77811380D02*
X141366857Y-77859000D01*
X141414476Y-77906619D01*
X141462095Y-77859000D01*
X141414476Y-77811380D01*
X141414476Y-77906619D01*
X141747809Y-78144714D02*
X142128761Y-78144714D01*
X141890666Y-77811380D02*
X141890666Y-78668523D01*
X141938285Y-78763761D01*
X142033523Y-78811380D01*
X142128761Y-78811380D01*
X142890666Y-78811380D02*
X142890666Y-78287571D01*
X142843047Y-78192333D01*
X142747809Y-78144714D01*
X142557333Y-78144714D01*
X142462095Y-78192333D01*
X142890666Y-78763761D02*
X142795428Y-78811380D01*
X142557333Y-78811380D01*
X142462095Y-78763761D01*
X142414476Y-78668523D01*
X142414476Y-78573285D01*
X142462095Y-78478047D01*
X142557333Y-78430428D01*
X142795428Y-78430428D01*
X142890666Y-78382809D01*
X143509714Y-78811380D02*
X143414476Y-78763761D01*
X143366857Y-78668523D01*
X143366857Y-77811380D01*
X163417523Y-78811380D02*
X163417523Y-77811380D01*
X163655619Y-77811380D01*
X163798476Y-77859000D01*
X163893714Y-77954238D01*
X163941333Y-78049476D01*
X163988952Y-78239952D01*
X163988952Y-78382809D01*
X163941333Y-78573285D01*
X163893714Y-78668523D01*
X163798476Y-78763761D01*
X163655619Y-78811380D01*
X163417523Y-78811380D01*
X164417523Y-78811380D02*
X164417523Y-78144714D01*
X164417523Y-77811380D02*
X164369904Y-77859000D01*
X164417523Y-77906619D01*
X164465142Y-77859000D01*
X164417523Y-77811380D01*
X164417523Y-77906619D01*
X165322285Y-78144714D02*
X165322285Y-78954238D01*
X165274666Y-79049476D01*
X165227047Y-79097095D01*
X165131809Y-79144714D01*
X164988952Y-79144714D01*
X164893714Y-79097095D01*
X165322285Y-78763761D02*
X165227047Y-78811380D01*
X165036571Y-78811380D01*
X164941333Y-78763761D01*
X164893714Y-78716142D01*
X164846095Y-78620904D01*
X164846095Y-78335190D01*
X164893714Y-78239952D01*
X164941333Y-78192333D01*
X165036571Y-78144714D01*
X165227047Y-78144714D01*
X165322285Y-78192333D01*
X165798476Y-78811380D02*
X165798476Y-78144714D01*
X165798476Y-77811380D02*
X165750857Y-77859000D01*
X165798476Y-77906619D01*
X165846095Y-77859000D01*
X165798476Y-77811380D01*
X165798476Y-77906619D01*
X166131809Y-78144714D02*
X166512761Y-78144714D01*
X166274666Y-77811380D02*
X166274666Y-78668523D01*
X166322285Y-78763761D01*
X166417523Y-78811380D01*
X166512761Y-78811380D01*
X167274666Y-78811380D02*
X167274666Y-78287571D01*
X167227047Y-78192333D01*
X167131809Y-78144714D01*
X166941333Y-78144714D01*
X166846095Y-78192333D01*
X167274666Y-78763761D02*
X167179428Y-78811380D01*
X166941333Y-78811380D01*
X166846095Y-78763761D01*
X166798476Y-78668523D01*
X166798476Y-78573285D01*
X166846095Y-78478047D01*
X166941333Y-78430428D01*
X167179428Y-78430428D01*
X167274666Y-78382809D01*
X167893714Y-78811380D02*
X167798476Y-78763761D01*
X167750857Y-78668523D01*
X167750857Y-77811380D01*
%TO.C,T3*%
X122852380Y-93852904D02*
X122852380Y-93281476D01*
X123852380Y-93567190D02*
X122852380Y-93567190D01*
X122852380Y-93043380D02*
X122852380Y-92424333D01*
X123233333Y-92757666D01*
X123233333Y-92614809D01*
X123280952Y-92519571D01*
X123328571Y-92471952D01*
X123423809Y-92424333D01*
X123661904Y-92424333D01*
X123757142Y-92471952D01*
X123804761Y-92519571D01*
X123852380Y-92614809D01*
X123852380Y-92900523D01*
X123804761Y-92995761D01*
X123757142Y-93043380D01*
%TO.C,Y1*%
X123718190Y-77057190D02*
X124194380Y-77057190D01*
X123194380Y-77390523D02*
X123718190Y-77057190D01*
X123194380Y-76723857D01*
X124194380Y-75866714D02*
X124194380Y-76438142D01*
X124194380Y-76152428D02*
X123194380Y-76152428D01*
X123337238Y-76247666D01*
X123432476Y-76342904D01*
X123480095Y-76438142D01*
%TO.C,Y4*%
X123376190Y-123539190D02*
X123852380Y-123539190D01*
X122852380Y-123872523D02*
X123376190Y-123539190D01*
X122852380Y-123205857D01*
X123185714Y-122443952D02*
X123852380Y-122443952D01*
X122804761Y-122682047D02*
X123519047Y-122920142D01*
X123519047Y-122301095D01*
%TO.C,T2*%
X122852380Y-88772904D02*
X122852380Y-88201476D01*
X123852380Y-88487190D02*
X122852380Y-88487190D01*
X122947619Y-87915761D02*
X122900000Y-87868142D01*
X122852380Y-87772904D01*
X122852380Y-87534809D01*
X122900000Y-87439571D01*
X122947619Y-87391952D01*
X123042857Y-87344333D01*
X123138095Y-87344333D01*
X123280952Y-87391952D01*
X123852380Y-87963380D01*
X123852380Y-87344333D01*
%TO.C,P4*%
X172743904Y-91980380D02*
X172743904Y-90980380D01*
X173124857Y-90980380D01*
X173220095Y-91028000D01*
X173267714Y-91075619D01*
X173315333Y-91170857D01*
X173315333Y-91313714D01*
X173267714Y-91408952D01*
X173220095Y-91456571D01*
X173124857Y-91504190D01*
X172743904Y-91504190D01*
X174172476Y-91313714D02*
X174172476Y-91980380D01*
X173934380Y-90932761D02*
X173696285Y-91647047D01*
X174315333Y-91647047D01*
%TO.C,T4*%
X122852380Y-98932904D02*
X122852380Y-98361476D01*
X123852380Y-98647190D02*
X122852380Y-98647190D01*
X123185714Y-97599571D02*
X123852380Y-97599571D01*
X122804761Y-97837666D02*
X123519047Y-98075761D01*
X123519047Y-97456714D01*
%TO.C,P2*%
X172743904Y-106448380D02*
X172743904Y-105448380D01*
X173124857Y-105448380D01*
X173220095Y-105496000D01*
X173267714Y-105543619D01*
X173315333Y-105638857D01*
X173315333Y-105781714D01*
X173267714Y-105876952D01*
X173220095Y-105924571D01*
X173124857Y-105972190D01*
X172743904Y-105972190D01*
X173696285Y-105543619D02*
X173743904Y-105496000D01*
X173839142Y-105448380D01*
X174077238Y-105448380D01*
X174172476Y-105496000D01*
X174220095Y-105543619D01*
X174267714Y-105638857D01*
X174267714Y-105734095D01*
X174220095Y-105876952D01*
X173648666Y-106448380D01*
X174267714Y-106448380D01*
%TO.C,Y3*%
X114331809Y-103945190D02*
X114331809Y-104421380D01*
X113998476Y-103421380D02*
X114331809Y-103945190D01*
X114665142Y-103421380D01*
X114903238Y-103421380D02*
X115522285Y-103421380D01*
X115188952Y-103802333D01*
X115331809Y-103802333D01*
X115427047Y-103849952D01*
X115474666Y-103897571D01*
X115522285Y-103992809D01*
X115522285Y-104230904D01*
X115474666Y-104326142D01*
X115427047Y-104373761D01*
X115331809Y-104421380D01*
X115046095Y-104421380D01*
X114950857Y-104373761D01*
X114903238Y-104326142D01*
%TO.C,P1*%
X172743904Y-113560380D02*
X172743904Y-112560380D01*
X173124857Y-112560380D01*
X173220095Y-112608000D01*
X173267714Y-112655619D01*
X173315333Y-112750857D01*
X173315333Y-112893714D01*
X173267714Y-112988952D01*
X173220095Y-113036571D01*
X173124857Y-113084190D01*
X172743904Y-113084190D01*
X174267714Y-113560380D02*
X173696285Y-113560380D01*
X173982000Y-113560380D02*
X173982000Y-112560380D01*
X173886761Y-112703238D01*
X173791523Y-112798476D01*
X173696285Y-112846095D01*
%TO.C,R5*%
X164933333Y-115811380D02*
X164600000Y-115335190D01*
X164361904Y-115811380D02*
X164361904Y-114811380D01*
X164742857Y-114811380D01*
X164838095Y-114859000D01*
X164885714Y-114906619D01*
X164933333Y-115001857D01*
X164933333Y-115144714D01*
X164885714Y-115239952D01*
X164838095Y-115287571D01*
X164742857Y-115335190D01*
X164361904Y-115335190D01*
X165838095Y-114811380D02*
X165361904Y-114811380D01*
X165314285Y-115287571D01*
X165361904Y-115239952D01*
X165457142Y-115192333D01*
X165695238Y-115192333D01*
X165790476Y-115239952D01*
X165838095Y-115287571D01*
X165885714Y-115382809D01*
X165885714Y-115620904D01*
X165838095Y-115716142D01*
X165790476Y-115763761D01*
X165695238Y-115811380D01*
X165457142Y-115811380D01*
X165361904Y-115763761D01*
X165314285Y-115716142D01*
%TO.C,Y2*%
X114331809Y-94039190D02*
X114331809Y-94515380D01*
X113998476Y-93515380D02*
X114331809Y-94039190D01*
X114665142Y-93515380D01*
X114950857Y-93610619D02*
X114998476Y-93563000D01*
X115093714Y-93515380D01*
X115331809Y-93515380D01*
X115427047Y-93563000D01*
X115474666Y-93610619D01*
X115522285Y-93705857D01*
X115522285Y-93801095D01*
X115474666Y-93943952D01*
X114903238Y-94515380D01*
X115522285Y-94515380D01*
%TO.C,P3*%
X172743904Y-99087380D02*
X172743904Y-98087380D01*
X173124857Y-98087380D01*
X173220095Y-98135000D01*
X173267714Y-98182619D01*
X173315333Y-98277857D01*
X173315333Y-98420714D01*
X173267714Y-98515952D01*
X173220095Y-98563571D01*
X173124857Y-98611190D01*
X172743904Y-98611190D01*
X173648666Y-98087380D02*
X174267714Y-98087380D01*
X173934380Y-98468333D01*
X174077238Y-98468333D01*
X174172476Y-98515952D01*
X174220095Y-98563571D01*
X174267714Y-98658809D01*
X174267714Y-98896904D01*
X174220095Y-98992142D01*
X174172476Y-99039761D01*
X174077238Y-99087380D01*
X173791523Y-99087380D01*
X173696285Y-99039761D01*
X173648666Y-98992142D01*
%TO.C,R4*%
X164933333Y-108699380D02*
X164600000Y-108223190D01*
X164361904Y-108699380D02*
X164361904Y-107699380D01*
X164742857Y-107699380D01*
X164838095Y-107747000D01*
X164885714Y-107794619D01*
X164933333Y-107889857D01*
X164933333Y-108032714D01*
X164885714Y-108127952D01*
X164838095Y-108175571D01*
X164742857Y-108223190D01*
X164361904Y-108223190D01*
X165790476Y-108032714D02*
X165790476Y-108699380D01*
X165552380Y-107651761D02*
X165314285Y-108366047D01*
X165933333Y-108366047D01*
%TO.C,R3*%
X164933333Y-101587380D02*
X164600000Y-101111190D01*
X164361904Y-101587380D02*
X164361904Y-100587380D01*
X164742857Y-100587380D01*
X164838095Y-100635000D01*
X164885714Y-100682619D01*
X164933333Y-100777857D01*
X164933333Y-100920714D01*
X164885714Y-101015952D01*
X164838095Y-101063571D01*
X164742857Y-101111190D01*
X164361904Y-101111190D01*
X165266666Y-100587380D02*
X165885714Y-100587380D01*
X165552380Y-100968333D01*
X165695238Y-100968333D01*
X165790476Y-101015952D01*
X165838095Y-101063571D01*
X165885714Y-101158809D01*
X165885714Y-101396904D01*
X165838095Y-101492142D01*
X165790476Y-101539761D01*
X165695238Y-101587380D01*
X165409523Y-101587380D01*
X165314285Y-101539761D01*
X165266666Y-101492142D01*
%TO.C,R2*%
X164933333Y-94485380D02*
X164600000Y-94009190D01*
X164361904Y-94485380D02*
X164361904Y-93485380D01*
X164742857Y-93485380D01*
X164838095Y-93533000D01*
X164885714Y-93580619D01*
X164933333Y-93675857D01*
X164933333Y-93818714D01*
X164885714Y-93913952D01*
X164838095Y-93961571D01*
X164742857Y-94009190D01*
X164361904Y-94009190D01*
X165314285Y-93580619D02*
X165361904Y-93533000D01*
X165457142Y-93485380D01*
X165695238Y-93485380D01*
X165790476Y-93533000D01*
X165838095Y-93580619D01*
X165885714Y-93675857D01*
X165885714Y-93771095D01*
X165838095Y-93913952D01*
X165266666Y-94485380D01*
X165885714Y-94485380D01*
%TO.C,T1*%
X122852380Y-83438904D02*
X122852380Y-82867476D01*
X123852380Y-83153190D02*
X122852380Y-83153190D01*
X123852380Y-82010333D02*
X123852380Y-82581761D01*
X123852380Y-82296047D02*
X122852380Y-82296047D01*
X122995238Y-82391285D01*
X123090476Y-82486523D01*
X123138095Y-82581761D01*
%TO.C,R1*%
X164933333Y-87368380D02*
X164600000Y-86892190D01*
X164361904Y-87368380D02*
X164361904Y-86368380D01*
X164742857Y-86368380D01*
X164838095Y-86416000D01*
X164885714Y-86463619D01*
X164933333Y-86558857D01*
X164933333Y-86701714D01*
X164885714Y-86796952D01*
X164838095Y-86844571D01*
X164742857Y-86892190D01*
X164361904Y-86892190D01*
X165885714Y-87368380D02*
X165314285Y-87368380D01*
X165600000Y-87368380D02*
X165600000Y-86368380D01*
X165504761Y-86511238D01*
X165409523Y-86606476D01*
X165314285Y-86654095D01*
%TO.C,T5*%
X122852380Y-104012904D02*
X122852380Y-103441476D01*
X123852380Y-103727190D02*
X122852380Y-103727190D01*
X122852380Y-102631952D02*
X122852380Y-103108142D01*
X123328571Y-103155761D01*
X123280952Y-103108142D01*
X123233333Y-103012904D01*
X123233333Y-102774809D01*
X123280952Y-102679571D01*
X123328571Y-102631952D01*
X123423809Y-102584333D01*
X123661904Y-102584333D01*
X123757142Y-102631952D01*
X123804761Y-102679571D01*
X123852380Y-102774809D01*
X123852380Y-103012904D01*
X123804761Y-103108142D01*
X123757142Y-103155761D01*
D12*
%TO.C,P5*%
X172152000Y-85416000D02*
X173482000Y-85416000D01*
X172152000Y-90616000D02*
X174812000Y-90616000D01*
X172152000Y-86746000D02*
X172152000Y-85416000D01*
X172152000Y-88016000D02*
X172152000Y-90616000D01*
X174812000Y-88016000D02*
X174812000Y-90616000D01*
X172152000Y-88016000D02*
X174812000Y-88016000D01*
%TO.C,12V*%
X172152000Y-79639000D02*
X172152000Y-78309000D01*
X172152000Y-80909000D02*
X174812000Y-80909000D01*
X172152000Y-78309000D02*
X173482000Y-78309000D01*
X172152000Y-83509000D02*
X174812000Y-83509000D01*
X172152000Y-80909000D02*
X172152000Y-83509000D01*
X174812000Y-80909000D02*
X174812000Y-83509000D01*
D11*
%TO.C,Digital*%
X157988000Y-125095000D02*
X157988000Y-122555000D01*
X140208000Y-125095000D02*
X157988000Y-125095000D01*
X157988000Y-122555000D02*
X140208000Y-122555000D01*
X138938000Y-122275000D02*
X137388000Y-122275000D01*
X137388000Y-122275000D02*
X137388000Y-125375000D01*
X137388000Y-125375000D02*
X138938000Y-125375000D01*
X140208000Y-125095000D02*
X140208000Y-122555000D01*
%TO.C,Analog*%
X163068000Y-125095000D02*
X163068000Y-122555000D01*
X161798000Y-122275000D02*
X160248000Y-122275000D01*
X175768000Y-122555000D02*
X163068000Y-122555000D01*
X163068000Y-125095000D02*
X175768000Y-125095000D01*
X175768000Y-125095000D02*
X175768000Y-122555000D01*
X160248000Y-122275000D02*
X160248000Y-125375000D01*
X160248000Y-125375000D02*
X161798000Y-125375000D01*
%TO.C,Digital*%
X128244000Y-74015000D02*
X128244000Y-77115000D01*
X131064000Y-76835000D02*
X153924000Y-76835000D01*
X153924000Y-76835000D02*
X153924000Y-74295000D01*
X153924000Y-74295000D02*
X131064000Y-74295000D01*
X129794000Y-74015000D02*
X128244000Y-74015000D01*
X128244000Y-77115000D02*
X129794000Y-77115000D01*
X131064000Y-76835000D02*
X131064000Y-74295000D01*
X175768000Y-74295000D02*
X157988000Y-74295000D01*
X155168000Y-77115000D02*
X156718000Y-77115000D01*
X157988000Y-76835000D02*
X175768000Y-76835000D01*
X157988000Y-76835000D02*
X157988000Y-74295000D01*
X156718000Y-74015000D02*
X155168000Y-74015000D01*
X175768000Y-76835000D02*
X175768000Y-74295000D01*
X155168000Y-74015000D02*
X155168000Y-77115000D01*
D12*
%TO.C,T3*%
X127000000Y-94421000D02*
X127000000Y-91761000D01*
X125730000Y-94421000D02*
X124400000Y-94421000D01*
X124400000Y-94421000D02*
X124400000Y-93091000D01*
X147380000Y-94421000D02*
X147380000Y-91761000D01*
X127000000Y-94421000D02*
X147380000Y-94421000D01*
X127000000Y-91761000D02*
X147380000Y-91761000D01*
%TO.C,Y1*%
X115002000Y-75251000D02*
X115002000Y-77911000D01*
X120142000Y-75251000D02*
X120142000Y-77911000D01*
X120142000Y-75251000D02*
X115002000Y-75251000D01*
X121412000Y-75251000D02*
X122742000Y-75251000D01*
X122742000Y-75251000D02*
X122742000Y-76581000D01*
X120142000Y-77911000D02*
X115002000Y-77911000D01*
%TO.C,Y4*%
X124400000Y-124393000D02*
X124400000Y-123063000D01*
X127000000Y-124393000D02*
X127000000Y-121733000D01*
X132140000Y-124393000D02*
X132140000Y-121733000D01*
X125730000Y-124393000D02*
X124400000Y-124393000D01*
X127000000Y-121733000D02*
X132140000Y-121733000D01*
X127000000Y-124393000D02*
X132140000Y-124393000D01*
%TO.C,T2*%
X124400000Y-89341000D02*
X124400000Y-88011000D01*
X127000000Y-86681000D02*
X147380000Y-86681000D01*
X127000000Y-89341000D02*
X147380000Y-89341000D01*
X147380000Y-89341000D02*
X147380000Y-86681000D01*
X127000000Y-89341000D02*
X127000000Y-86681000D01*
X125730000Y-89341000D02*
X124400000Y-89341000D01*
%TO.C,P4*%
X172152000Y-95128000D02*
X172152000Y-97728000D01*
X172152000Y-97728000D02*
X174812000Y-97728000D01*
X172152000Y-95128000D02*
X174812000Y-95128000D01*
X174812000Y-95128000D02*
X174812000Y-97728000D01*
X172152000Y-92528000D02*
X173482000Y-92528000D01*
X172152000Y-93858000D02*
X172152000Y-92528000D01*
%TO.C,T4*%
X127000000Y-99501000D02*
X127000000Y-96841000D01*
X127000000Y-99501000D02*
X147380000Y-99501000D01*
X147380000Y-99501000D02*
X147380000Y-96841000D01*
X124400000Y-99501000D02*
X124400000Y-98171000D01*
X127000000Y-96841000D02*
X147380000Y-96841000D01*
X125730000Y-99501000D02*
X124400000Y-99501000D01*
%TO.C,P2*%
X172152000Y-109347000D02*
X174812000Y-109347000D01*
X174812000Y-109347000D02*
X174812000Y-111947000D01*
X172152000Y-111947000D02*
X174812000Y-111947000D01*
X172152000Y-106747000D02*
X173482000Y-106747000D01*
X172152000Y-108077000D02*
X172152000Y-106747000D01*
X172152000Y-109347000D02*
X172152000Y-111947000D01*
%TO.C,Y3*%
X113478000Y-107569000D02*
X116138000Y-107569000D01*
X113478000Y-112709000D02*
X116138000Y-112709000D01*
X113478000Y-104969000D02*
X114808000Y-104969000D01*
X116138000Y-107569000D02*
X116138000Y-112709000D01*
X113478000Y-106299000D02*
X113478000Y-104969000D01*
X113478000Y-107569000D02*
X113478000Y-112709000D01*
%TO.C,P1*%
X172152000Y-113859000D02*
X173482000Y-113859000D01*
X172152000Y-116459000D02*
X174812000Y-116459000D01*
X172152000Y-115189000D02*
X172152000Y-113859000D01*
X172152000Y-119059000D02*
X174812000Y-119059000D01*
X172152000Y-116459000D02*
X172152000Y-119059000D01*
X174812000Y-116459000D02*
X174812000Y-119059000D01*
%TO.C,R5*%
X168370000Y-119099000D02*
X168370000Y-116359000D01*
X161830000Y-119099000D02*
X168370000Y-119099000D01*
X168370000Y-116359000D02*
X161830000Y-116359000D01*
X169140000Y-117729000D02*
X168370000Y-117729000D01*
X161060000Y-117729000D02*
X161830000Y-117729000D01*
X161830000Y-116359000D02*
X161830000Y-119099000D01*
%TO.C,Y2*%
X113478000Y-102803000D02*
X116138000Y-102803000D01*
X116138000Y-97663000D02*
X116138000Y-102803000D01*
X113478000Y-95063000D02*
X114808000Y-95063000D01*
X113478000Y-96393000D02*
X113478000Y-95063000D01*
X113478000Y-97663000D02*
X113478000Y-102803000D01*
X113478000Y-97663000D02*
X116138000Y-97663000D01*
%TO.C,P3*%
X172152000Y-102235000D02*
X172152000Y-104835000D01*
X172152000Y-100965000D02*
X172152000Y-99635000D01*
X174812000Y-102235000D02*
X174812000Y-104835000D01*
X172152000Y-102235000D02*
X174812000Y-102235000D01*
X172152000Y-104835000D02*
X174812000Y-104835000D01*
X172152000Y-99635000D02*
X173482000Y-99635000D01*
%TO.C,R4*%
X161060000Y-110617000D02*
X161830000Y-110617000D01*
X168370000Y-111987000D02*
X168370000Y-109247000D01*
X161830000Y-109247000D02*
X161830000Y-111987000D01*
X168370000Y-109247000D02*
X161830000Y-109247000D01*
X169140000Y-110617000D02*
X168370000Y-110617000D01*
X161830000Y-111987000D02*
X168370000Y-111987000D01*
%TO.C,R3*%
X161830000Y-102135000D02*
X161830000Y-104875000D01*
X168370000Y-104875000D02*
X168370000Y-102135000D01*
X161060000Y-103505000D02*
X161830000Y-103505000D01*
X168370000Y-102135000D02*
X161830000Y-102135000D01*
X169140000Y-103505000D02*
X168370000Y-103505000D01*
X161830000Y-104875000D02*
X168370000Y-104875000D01*
%TO.C,R2*%
X161060000Y-96403000D02*
X161830000Y-96403000D01*
X161830000Y-95033000D02*
X161830000Y-97773000D01*
X169140000Y-96403000D02*
X168370000Y-96403000D01*
X168370000Y-95033000D02*
X161830000Y-95033000D01*
X168370000Y-97773000D02*
X168370000Y-95033000D01*
X161830000Y-97773000D02*
X168370000Y-97773000D01*
%TO.C,T1*%
X125730000Y-84007000D02*
X124400000Y-84007000D01*
X127000000Y-84007000D02*
X127000000Y-81347000D01*
X127000000Y-81347000D02*
X147380000Y-81347000D01*
X124400000Y-84007000D02*
X124400000Y-82677000D01*
X127000000Y-84007000D02*
X147380000Y-84007000D01*
X147380000Y-84007000D02*
X147380000Y-81347000D01*
%TO.C,R1*%
X168370000Y-90656000D02*
X168370000Y-87916000D01*
X161830000Y-87916000D02*
X161830000Y-90656000D01*
X161060000Y-89286000D02*
X161830000Y-89286000D01*
X161830000Y-90656000D02*
X168370000Y-90656000D01*
X169140000Y-89286000D02*
X168370000Y-89286000D01*
X168370000Y-87916000D02*
X161830000Y-87916000D01*
%TO.C,T5*%
X124400000Y-104581000D02*
X124400000Y-103251000D01*
X125730000Y-104581000D02*
X124400000Y-104581000D01*
X147380000Y-104581000D02*
X147380000Y-101921000D01*
X127000000Y-101921000D02*
X147380000Y-101921000D01*
X127000000Y-104581000D02*
X127000000Y-101921000D01*
X127000000Y-104581000D02*
X147380000Y-104581000D01*
%TD*%
D13*
%TO.C,Digital*%
X138938000Y-123825000D03*
X141478000Y-123825000D03*
X144018000Y-123825000D03*
X146558000Y-123825000D03*
X149098000Y-123825000D03*
X151638000Y-123825000D03*
X154178000Y-123825000D03*
X156718000Y-123825000D03*
%TD*%
%TO.C,Analog*%
X161798000Y-123825000D03*
X164338000Y-123825000D03*
X166878000Y-123825000D03*
X169418000Y-123825000D03*
X171958000Y-123825000D03*
X174498000Y-123825000D03*
%TD*%
%TO.C,Digital*%
X129794000Y-75565000D03*
X132334000Y-75565000D03*
X134874000Y-75565000D03*
X137414000Y-75565000D03*
X139954000Y-75565000D03*
X142494000Y-75565000D03*
X145034000Y-75565000D03*
X147574000Y-75565000D03*
X150114000Y-75565000D03*
X152654000Y-75565000D03*
%TD*%
%TO.C,Digital*%
X156718000Y-75565000D03*
X159258000Y-75565000D03*
X161798000Y-75565000D03*
X164338000Y-75565000D03*
X166878000Y-75565000D03*
X169418000Y-75565000D03*
X171958000Y-75565000D03*
X174498000Y-75565000D03*
%TD*%
M02*
